M48
METRIC,LZ,000.000
;FILE_FORMAT=3:3
;TYPE=PLATED
;Layer: PTH_Through_Via
;EasyEDA v6.5.40, 2024-07-01 11:27:10
;c1f3bc4e761f40e689e8ea0538afd347,7243cdaf381449fe92b9da44aa7c23a7,10
;Gerber Generator version 0.2
;Holesize 1 = 0.306 mm
T01C0.306
%
G05
G90
T01
X047456Y-036746
X054305Y-038217
X054066Y-025181
X041568Y-032356
X047308Y-024236
X024462Y-035053
X019650Y-003599
X021647Y-035192
X029245Y-030619
X079112Y-047975
X100756Y-024846
X087712Y-027478
X086654Y-050754
X084206Y-050594
X018216Y-004506
X032978Y-050385
X034762Y-050346
X053248Y-050346
X059302Y-029959
X011151Y-041509
X023501Y-037593
X031244Y-043286
X078325Y-037764
X079713Y-029483
X079371Y-037607
X053839Y-035647
X050556Y-028273
X081308Y-051214
X010387Y-037689
X074046Y-044263
X077829Y-044228
X077091Y-028387
X064313Y-042626
X066722Y-023373
X064553Y-023794
X061137Y-009533
X030079Y-041047
X031500Y-040640
X088999Y-017926
X047985Y-034307
X056693Y-021821
X049285Y-023615
X017744Y-014026
X022824Y-008946
X022824Y-014026
X022824Y-024186
X027904Y-008946
X027904Y-014026
X032984Y-008946
X032984Y-014026
X038064Y-008946
X034904Y-035606
X039984Y-015286
X045064Y-010206
X045064Y-015286
X050144Y-010206
X050144Y-015286
X055224Y-010206
X055224Y-020366
X009585Y-040394
X087760Y-003866
X092840Y-003866
X097920Y-003866
X103000Y-008946
X103000Y-014026
X103000Y-019106
X103000Y-024186
X103000Y-029266
X103000Y-034346
X103000Y-039426
X103000Y-044506
M30
