M48
METRIC,LZ,000.000
;FILE_FORMAT=3:3
;TYPE=PLATED
;Layer: PTH_Through
;EasyEDA v6.5.40, 2024-07-01 11:27:10
;c1f3bc4e761f40e689e8ea0538afd347,7243cdaf381449fe92b9da44aa7c23a7,10
;Gerber Generator version 0.2
;Holesize 1 = 0.306 mm
T01C0.306
;Holesize 2 = 0.712 mm
T02C0.712
;Holesize 3 = 0.889 mm
T03C0.889
;Holesize 4 = 0.901 mm
T04C0.901
;Holesize 5 = 1.000 mm
T05C1.000
%
G05
G90
T01
X047456Y-036746
X054305Y-038217
X054066Y-025181
X041568Y-032356
X047308Y-024236
X024462Y-035053
X019650Y-003599
X021647Y-035192
X029245Y-030619
X079112Y-047975
X100756Y-024846
X087712Y-027478
X086654Y-050754
X084206Y-050594
X018216Y-004506
X032978Y-050385
X034762Y-050346
X053248Y-050346
X059302Y-029959
X011151Y-041509
X023501Y-037593
X031244Y-043286
X078325Y-037764
X079713Y-029483
X079371Y-037607
X053839Y-035647
X050556Y-028273
X081308Y-051214
X010387Y-037689
X074046Y-044263
X077829Y-044228
X077091Y-028387
X064313Y-042626
X066722Y-023373
X064553Y-023794
X061137Y-009533
X030079Y-041047
X031500Y-040640
X088999Y-017926
X047985Y-034307
X056693Y-021821
X049285Y-023615
X017744Y-014026
X022824Y-008946
X022824Y-014026
X022824Y-024186
X027904Y-008946
X027904Y-014026
X032984Y-008946
X032984Y-014026
X038064Y-008946
X034904Y-035606
X039984Y-015286
X045064Y-010206
X045064Y-015286
X050144Y-010206
X050144Y-015286
X055224Y-010206
X055224Y-020366
X009585Y-040394
X087760Y-003866
X092840Y-003866
X097920Y-003866
X103000Y-008946
X103000Y-014026
X103000Y-019106
X103000Y-024186
X103000Y-029266
X103000Y-034346
X103000Y-039426
X103000Y-044506
T02
X012446Y-018288
X012446Y-020828
X023622Y-018288
X023622Y-020828
X037084Y-018288
X037084Y-020828
X049784Y-018288
X049784Y-020828
X057912Y-030480
X057912Y-027940
X057912Y-010922
X057912Y-008382
T03
X004572Y-049022
X098552Y-049022
X096012Y-049022
X093472Y-049022
X090932Y-049022
X088392Y-049022
X085852Y-049022
X083312Y-049022
X080772Y-049022
X078232Y-049022
X075692Y-049022
X073152Y-049022
X070612Y-049022
X068072Y-049022
X065532Y-049022
X062992Y-049022
X060452Y-049022
X057912Y-049022
X055372Y-049022
X052832Y-049022
X050292Y-049022
X047752Y-049022
X045212Y-049022
X042672Y-049022
X040132Y-049022
X037592Y-049022
X035052Y-049022
X032512Y-049022
X029972Y-049022
X027432Y-049022
X024892Y-049022
X022352Y-049022
X019812Y-049022
X017272Y-049022
X014732Y-049022
X012192Y-049022
X009652Y-049022
X007112Y-049022
X101092Y-049022
X098552Y-046482
X096012Y-046482
X093472Y-046482
X090932Y-046482
X088392Y-046482
X085852Y-046482
X083312Y-046482
X080772Y-046482
X078232Y-046482
X075692Y-046482
X073152Y-046482
X070612Y-046482
X068072Y-046482
X065532Y-046482
X062992Y-046482
X060452Y-046482
X057912Y-046482
X055372Y-046482
X052832Y-046482
X050292Y-046482
X047752Y-046482
X045212Y-046482
X042672Y-046482
X040132Y-046482
X037592Y-046482
X035052Y-046482
X032512Y-046482
X029972Y-046482
X027432Y-046482
X024892Y-046482
X022352Y-046482
X019812Y-046482
X017272Y-046482
X014732Y-046482
X012192Y-046482
X009652Y-046482
X101092Y-046482
X007112Y-046482
X004572Y-046482
X103632Y-049022
X103632Y-046482
T04
X031351Y-023622
X068839Y-025400
X066299Y-025400
X063759Y-025400
X061219Y-025400
X096779Y-025400
X094239Y-025400
X091699Y-025400
X089159Y-025400
X086619Y-025400
X084079Y-025400
X081539Y-025400
X071379Y-025400
X073919Y-025400
X076459Y-025400
X078999Y-025400
X099319Y-025400
X091699Y-040640
X081539Y-040640
X078999Y-040640
X076459Y-040640
X073919Y-040640
X071379Y-040640
X068839Y-040640
X066299Y-040640
X063759Y-040640
X061219Y-040640
X084079Y-040640
X089159Y-040640
X086619Y-040640
X094239Y-040640
X099319Y-040640
X096779Y-040640
X068834Y-005842
X066294Y-005842
X063754Y-005842
X061214Y-005842
X096774Y-005842
X094234Y-005842
X091694Y-005842
X089154Y-005842
X086614Y-005842
X084074Y-005842
X081534Y-005842
X071374Y-005842
X073914Y-005842
X076454Y-005842
X078994Y-005842
X099314Y-005842
X091694Y-021082
X081534Y-021082
X078994Y-021082
X076454Y-021082
X073914Y-021082
X071374Y-021082
X068834Y-021082
X066294Y-021082
X063754Y-021082
X061214Y-021082
X084074Y-021082
X089154Y-021082
X086614Y-021082
X094234Y-021082
X099314Y-021082
X096774Y-021082
T05
X031351Y-026162
X031351Y-028702
X031351Y-031242
X031351Y-033782
X031351Y-036322
X031351Y-038862
X039614Y-023647
X039614Y-026187
X039614Y-028727
X039614Y-031267
X039614Y-033807
X039614Y-036347
X039614Y-038887
X018674Y-023623
X018674Y-026163
X018674Y-038863
X018674Y-041403
X018674Y-028703
X018674Y-031243
X018674Y-036323
X018674Y-033783
X026294Y-041403
X026294Y-038863
X026294Y-036323
X026294Y-033783
X026294Y-031243
X026294Y-028703
X026294Y-026163
X026294Y-023623
X006096Y-023623
X006096Y-026163
X006096Y-038863
X006096Y-041403
X006096Y-028703
X006096Y-031243
X006096Y-036323
X006096Y-033783
X013716Y-041403
X013716Y-038863
X013716Y-036323
X013716Y-033783
X013716Y-031243
X013716Y-028703
X013716Y-026163
X013716Y-023623
X044036Y-023622
X044036Y-026162
X044036Y-038862
X044036Y-041402
X044036Y-028702
X044036Y-031242
X044036Y-036322
X044036Y-033782
X051976Y-041402
X051976Y-038862
X051976Y-036322
X051976Y-033782
X051976Y-031242
X051976Y-028702
X051976Y-026162
X051976Y-023622
M30
