G04 Layer: TopLayer*
G04 EasyEDA v6.5.40, 2024-07-01 11:27:10*
G04 c1f3bc4e761f40e689e8ea0538afd347,7243cdaf381449fe92b9da44aa7c23a7,10*
G04 Gerber Generator version 0.2*
G04 Scale: 100 percent, Rotated: No, Reflected: No *
G04 Dimensions in millimeters *
G04 leading zeros omitted , absolute positions ,4 integer and 5 decimal *
%FSLAX45Y45*%
%MOMM*%

%ADD10C,0.2540*%
%ADD11C,0.5080*%
%ADD12R,2.0000X1.5000*%
%ADD13O,1.9999959999999999X1.499997*%
%ADD14R,1.7000X1.7000*%
%ADD15C,1.7000*%
%ADD16O,1.524X1.9999959999999999*%
%ADD17O,1.499997X1.9999959999999999*%
%ADD18R,1.5000X2.0000*%
%ADD19C,1.3970*%
%ADD20R,1.5748X1.5748*%
%ADD21C,1.5748*%
%ADD22C,0.5840*%
%ADD23C,0.6100*%
%ADD24C,0.0104*%

%LPD*%
G36*
X4067403Y-3974642D02*
G01*
X4063644Y-3973931D01*
X4060393Y-3971798D01*
X4058158Y-3968699D01*
X4057294Y-3964940D01*
X4057853Y-3961129D01*
X4059783Y-3957777D01*
X4066489Y-3950157D01*
X4073804Y-3939184D01*
X4079646Y-3927348D01*
X4083862Y-3914851D01*
X4086453Y-3901897D01*
X4087317Y-3888740D01*
X4086453Y-3875582D01*
X4083862Y-3862628D01*
X4079646Y-3850132D01*
X4073804Y-3838295D01*
X4066489Y-3827322D01*
X4057751Y-3817416D01*
X4047845Y-3808679D01*
X4036872Y-3801364D01*
X4025036Y-3795522D01*
X4012539Y-3791305D01*
X3999585Y-3788714D01*
X3986123Y-3787851D01*
X3936746Y-3787851D01*
X3923284Y-3788714D01*
X3910329Y-3791305D01*
X3897833Y-3795522D01*
X3885996Y-3801364D01*
X3875024Y-3808679D01*
X3865118Y-3817416D01*
X3856380Y-3827322D01*
X3849065Y-3838295D01*
X3846017Y-3844442D01*
X3843782Y-3847439D01*
X3840581Y-3849420D01*
X3836924Y-3850132D01*
X3589375Y-3850132D01*
X3585464Y-3849370D01*
X3582162Y-3847134D01*
X3282492Y-3547465D01*
X3280308Y-3544214D01*
X3279546Y-3540302D01*
X3280308Y-3536391D01*
X3282492Y-3533140D01*
X3285794Y-3530904D01*
X3289706Y-3530142D01*
X3878275Y-3530142D01*
X3882491Y-3531057D01*
X3885946Y-3533597D01*
X3888028Y-3537356D01*
X3888333Y-3541623D01*
X3886911Y-3545687D01*
X3883914Y-3548735D01*
X3875024Y-3554679D01*
X3865118Y-3563416D01*
X3856380Y-3573322D01*
X3849065Y-3584295D01*
X3843223Y-3596132D01*
X3839006Y-3608628D01*
X3836415Y-3621582D01*
X3835552Y-3634740D01*
X3836415Y-3647897D01*
X3839006Y-3660851D01*
X3843223Y-3673348D01*
X3849065Y-3685184D01*
X3856380Y-3696157D01*
X3865118Y-3706063D01*
X3875024Y-3714800D01*
X3885996Y-3722115D01*
X3897833Y-3727958D01*
X3910329Y-3732174D01*
X3923284Y-3734765D01*
X3936746Y-3735628D01*
X3986123Y-3735628D01*
X4003649Y-3734511D01*
X4006799Y-3735476D01*
X4009491Y-3737406D01*
X4058158Y-3786022D01*
X4064355Y-3791153D01*
X4071061Y-3794709D01*
X4078274Y-3796893D01*
X4086301Y-3797706D01*
X4311294Y-3797706D01*
X4315612Y-3798671D01*
X4319117Y-3801414D01*
X4321149Y-3805428D01*
X4321251Y-3809847D01*
X4319422Y-3813962D01*
X4310634Y-3825697D01*
X4303674Y-3838092D01*
X4298340Y-3851249D01*
X4294733Y-3865016D01*
X4292904Y-3879087D01*
X4292904Y-3893312D01*
X4294733Y-3907383D01*
X4298340Y-3921150D01*
X4303674Y-3934307D01*
X4310634Y-3946702D01*
X4319371Y-3958386D01*
X4321200Y-3962501D01*
X4321098Y-3966921D01*
X4319117Y-3970934D01*
X4315561Y-3973677D01*
X4311243Y-3974642D01*
G37*

%LPD*%
G36*
X393242Y-4564278D02*
G01*
X388874Y-4564024D01*
X385064Y-4561941D01*
X382422Y-4558487D01*
X381508Y-4554220D01*
X381508Y-1795475D01*
X382270Y-1791563D01*
X384454Y-1788261D01*
X1754479Y-418287D01*
X1757832Y-416051D01*
X1761794Y-415290D01*
X1765706Y-416153D01*
X1769008Y-418439D01*
X1771142Y-421843D01*
X1771802Y-425856D01*
X1770837Y-429768D01*
X1769872Y-431800D01*
X1767382Y-441096D01*
X1766570Y-450646D01*
X1767382Y-460197D01*
X1769872Y-469493D01*
X1773936Y-478180D01*
X1779473Y-486054D01*
X1786229Y-492810D01*
X1794103Y-498348D01*
X1802790Y-502412D01*
X1812086Y-504901D01*
X1821637Y-505714D01*
X1831187Y-504901D01*
X1840484Y-502412D01*
X1849170Y-498348D01*
X1860956Y-490016D01*
X1864817Y-489254D01*
X6027420Y-489254D01*
X6031687Y-490169D01*
X6035141Y-492810D01*
X6037173Y-496671D01*
X6037427Y-500989D01*
X6035852Y-505053D01*
X6033008Y-509371D01*
X6027064Y-521309D01*
X6022797Y-533958D01*
X6020206Y-547065D01*
X6019292Y-560730D01*
X6019292Y-607669D01*
X6020206Y-621334D01*
X6022797Y-634441D01*
X6027064Y-647090D01*
X6033008Y-659028D01*
X6040424Y-670153D01*
X6049213Y-680161D01*
X6059271Y-689000D01*
X6070346Y-696417D01*
X6082334Y-702310D01*
X6094984Y-706628D01*
X6108090Y-709218D01*
X6121400Y-710082D01*
X6134709Y-709218D01*
X6147816Y-706628D01*
X6160465Y-702310D01*
X6172454Y-696417D01*
X6183528Y-689000D01*
X6193586Y-680161D01*
X6202375Y-670153D01*
X6209792Y-659028D01*
X6215735Y-647090D01*
X6220002Y-634441D01*
X6222593Y-621334D01*
X6223508Y-607669D01*
X6223508Y-560730D01*
X6222593Y-547065D01*
X6220002Y-533958D01*
X6215735Y-521309D01*
X6209792Y-509371D01*
X6206947Y-505053D01*
X6205372Y-500989D01*
X6205626Y-496671D01*
X6207658Y-492810D01*
X6211112Y-490169D01*
X6215380Y-489254D01*
X6281420Y-489254D01*
X6285687Y-490169D01*
X6289141Y-492810D01*
X6291173Y-496671D01*
X6291427Y-500989D01*
X6289852Y-505053D01*
X6287008Y-509371D01*
X6281064Y-521309D01*
X6276797Y-533958D01*
X6274206Y-547065D01*
X6273292Y-560730D01*
X6273292Y-607669D01*
X6274206Y-621334D01*
X6274714Y-623925D01*
X6274816Y-627227D01*
X6273850Y-630428D01*
X6271920Y-633120D01*
X6024727Y-880313D01*
X6019596Y-886561D01*
X6016040Y-893216D01*
X6013856Y-900430D01*
X6013043Y-908456D01*
X6013043Y-961593D01*
X6012281Y-965453D01*
X6010046Y-968756D01*
X5848350Y-1130503D01*
X5845048Y-1132687D01*
X5841136Y-1133500D01*
X5832500Y-1133500D01*
X5832500Y-1142136D01*
X5831687Y-1146048D01*
X5829503Y-1149350D01*
X5064607Y-1914194D01*
X5061305Y-1916430D01*
X5057444Y-1917192D01*
X5049469Y-1917192D01*
X5045506Y-1916379D01*
X5042204Y-1914143D01*
X5040020Y-1910740D01*
X5039309Y-1906778D01*
X5040172Y-1902866D01*
X5042509Y-1899615D01*
X5048351Y-1894128D01*
X5056632Y-1884019D01*
X5063388Y-1872843D01*
X5064607Y-1870100D01*
X5019700Y-1870100D01*
X5019700Y-1907032D01*
X5018887Y-1910943D01*
X5016703Y-1914194D01*
X5013401Y-1916430D01*
X5009540Y-1917192D01*
X4947310Y-1917192D01*
X4943398Y-1916430D01*
X4940096Y-1914194D01*
X4937912Y-1910943D01*
X4937150Y-1907032D01*
X4937150Y-1870100D01*
X4892192Y-1870100D01*
X4893411Y-1872843D01*
X4900168Y-1884019D01*
X4908448Y-1894128D01*
X4914290Y-1899615D01*
X4916627Y-1902866D01*
X4917490Y-1906778D01*
X4916779Y-1910740D01*
X4914595Y-1914143D01*
X4911293Y-1916379D01*
X4907330Y-1917192D01*
X3779469Y-1917192D01*
X3775506Y-1916379D01*
X3772204Y-1914143D01*
X3770020Y-1910740D01*
X3769309Y-1906778D01*
X3770172Y-1902866D01*
X3772509Y-1899615D01*
X3778351Y-1894128D01*
X3786632Y-1884019D01*
X3793388Y-1872843D01*
X3794607Y-1870100D01*
X3749700Y-1870100D01*
X3749700Y-1907032D01*
X3748887Y-1910943D01*
X3746703Y-1914194D01*
X3743401Y-1916430D01*
X3739540Y-1917192D01*
X3677310Y-1917192D01*
X3673398Y-1916430D01*
X3670096Y-1914194D01*
X3667912Y-1910943D01*
X3667150Y-1907032D01*
X3667150Y-1870100D01*
X3622192Y-1870100D01*
X3623411Y-1872843D01*
X3630168Y-1884019D01*
X3638448Y-1894128D01*
X3644290Y-1899615D01*
X3646627Y-1902866D01*
X3647490Y-1906778D01*
X3646779Y-1910740D01*
X3644595Y-1914143D01*
X3641293Y-1916379D01*
X3637330Y-1917192D01*
X2433269Y-1917192D01*
X2429306Y-1916379D01*
X2426004Y-1914143D01*
X2423820Y-1910740D01*
X2423109Y-1906778D01*
X2423972Y-1902866D01*
X2426309Y-1899615D01*
X2432151Y-1894128D01*
X2440432Y-1884019D01*
X2447188Y-1872843D01*
X2448407Y-1870100D01*
X2403500Y-1870100D01*
X2403500Y-1907032D01*
X2402687Y-1910943D01*
X2400503Y-1914194D01*
X2397201Y-1916430D01*
X2393340Y-1917192D01*
X2331110Y-1917192D01*
X2327198Y-1916430D01*
X2323896Y-1914194D01*
X2321712Y-1910943D01*
X2320950Y-1907032D01*
X2320950Y-1870100D01*
X2275992Y-1870100D01*
X2277211Y-1872843D01*
X2283968Y-1884019D01*
X2292248Y-1894128D01*
X2298090Y-1899615D01*
X2300427Y-1902866D01*
X2301290Y-1906778D01*
X2300579Y-1910740D01*
X2298395Y-1914143D01*
X2295093Y-1916379D01*
X2291130Y-1917192D01*
X1315669Y-1917192D01*
X1311706Y-1916379D01*
X1308404Y-1914143D01*
X1306220Y-1910740D01*
X1305509Y-1906778D01*
X1306372Y-1902866D01*
X1308709Y-1899615D01*
X1314551Y-1894128D01*
X1322832Y-1884019D01*
X1329588Y-1872843D01*
X1330807Y-1870100D01*
X1285900Y-1870100D01*
X1285900Y-1907032D01*
X1285087Y-1910943D01*
X1282903Y-1914194D01*
X1279601Y-1916430D01*
X1275740Y-1917192D01*
X1213510Y-1917192D01*
X1209598Y-1916430D01*
X1206296Y-1914194D01*
X1204112Y-1910943D01*
X1203350Y-1907032D01*
X1203350Y-1870100D01*
X1158392Y-1870100D01*
X1159611Y-1872843D01*
X1166368Y-1884019D01*
X1174648Y-1894128D01*
X1180490Y-1899615D01*
X1182827Y-1902866D01*
X1183690Y-1906778D01*
X1182979Y-1910740D01*
X1180795Y-1914143D01*
X1177493Y-1916379D01*
X1173530Y-1917192D01*
X1134262Y-1917192D01*
X1126236Y-1918004D01*
X1119022Y-1920189D01*
X1112367Y-1923745D01*
X1106119Y-1928875D01*
X737819Y-2297125D01*
X734568Y-2299360D01*
X730656Y-2300122D01*
X726795Y-2299360D01*
X723493Y-2297125D01*
X721258Y-2293823D01*
X720496Y-2289962D01*
X720496Y-2277821D01*
X719785Y-2271522D01*
X717854Y-2266035D01*
X714806Y-2261158D01*
X710692Y-2257044D01*
X705815Y-2253945D01*
X700328Y-2252065D01*
X694029Y-2251354D01*
X525170Y-2251354D01*
X518820Y-2252065D01*
X513384Y-2253945D01*
X508457Y-2257044D01*
X504393Y-2261158D01*
X501294Y-2266035D01*
X499414Y-2271522D01*
X498703Y-2277821D01*
X498703Y-2446680D01*
X499414Y-2452979D01*
X501294Y-2458466D01*
X504393Y-2463342D01*
X511301Y-2469997D01*
X512927Y-2473248D01*
X513334Y-2476855D01*
X512470Y-2480360D01*
X510387Y-2483307D01*
X446532Y-2547213D01*
X441401Y-2553462D01*
X437845Y-2560116D01*
X435660Y-2567330D01*
X434848Y-2575356D01*
X434848Y-2987598D01*
X435660Y-2995625D01*
X437845Y-3002838D01*
X441401Y-3009544D01*
X446532Y-3015742D01*
X504139Y-3073349D01*
X506323Y-3076651D01*
X507085Y-3080512D01*
X506374Y-3084372D01*
X504342Y-3089300D01*
X500735Y-3103067D01*
X498957Y-3117138D01*
X498957Y-3131362D01*
X500735Y-3145434D01*
X504342Y-3159201D01*
X509676Y-3172358D01*
X516635Y-3184753D01*
X525170Y-3196132D01*
X535076Y-3206394D01*
X538175Y-3208934D01*
X540766Y-3212236D01*
X541832Y-3216300D01*
X541172Y-3220415D01*
X538886Y-3223971D01*
X461365Y-3301492D01*
X456234Y-3307689D01*
X452678Y-3314395D01*
X450494Y-3321608D01*
X449732Y-3329635D01*
X449732Y-4257395D01*
X450494Y-4265422D01*
X452678Y-4272635D01*
X456234Y-4279341D01*
X461365Y-4285538D01*
X527202Y-4351426D01*
X529437Y-4354728D01*
X530199Y-4358589D01*
X530199Y-4552391D01*
X529285Y-4556658D01*
X526643Y-4560112D01*
X522782Y-4562195D01*
X518464Y-4562449D01*
X514400Y-4560874D01*
X509524Y-4557572D01*
X497230Y-4551527D01*
X484276Y-4547158D01*
X470865Y-4544466D01*
X457200Y-4543552D01*
X443534Y-4544466D01*
X430123Y-4547158D01*
X417169Y-4551527D01*
X404876Y-4557572D01*
X397306Y-4562652D01*
G37*

%LPC*%
G36*
X854202Y-1912874D02*
G01*
X872998Y-1912874D01*
X891743Y-1910943D01*
X910183Y-1907184D01*
X928166Y-1901545D01*
X945489Y-1894078D01*
X961948Y-1884934D01*
X977392Y-1874215D01*
X991666Y-1861921D01*
X1004671Y-1848307D01*
X1016152Y-1833372D01*
X1026160Y-1817420D01*
X1034440Y-1800504D01*
X1040993Y-1782825D01*
X1045667Y-1764639D01*
X1048562Y-1745996D01*
X1049477Y-1727200D01*
X1048562Y-1708404D01*
X1045667Y-1689760D01*
X1040993Y-1671574D01*
X1034440Y-1653895D01*
X1026160Y-1636979D01*
X1016152Y-1621028D01*
X1004671Y-1606092D01*
X991666Y-1592478D01*
X977392Y-1580184D01*
X961948Y-1569466D01*
X945489Y-1560322D01*
X928166Y-1552854D01*
X910183Y-1547215D01*
X891743Y-1543456D01*
X872998Y-1541526D01*
X854202Y-1541526D01*
X835456Y-1543456D01*
X817016Y-1547215D01*
X799033Y-1552854D01*
X781710Y-1560322D01*
X765251Y-1569466D01*
X749808Y-1580184D01*
X735533Y-1592478D01*
X722528Y-1606092D01*
X711047Y-1621028D01*
X701040Y-1636979D01*
X692759Y-1653895D01*
X686206Y-1671574D01*
X681532Y-1689760D01*
X678637Y-1708404D01*
X677722Y-1727200D01*
X678637Y-1745996D01*
X681532Y-1764639D01*
X686206Y-1782825D01*
X692759Y-1800504D01*
X701040Y-1817420D01*
X711047Y-1833372D01*
X722528Y-1848307D01*
X735533Y-1861921D01*
X749808Y-1874215D01*
X765251Y-1884934D01*
X781710Y-1894078D01*
X799033Y-1901545D01*
X817016Y-1907184D01*
X835456Y-1910943D01*
G37*
G36*
X5019700Y-1787550D02*
G01*
X5064607Y-1787550D01*
X5063388Y-1784756D01*
X5056632Y-1773580D01*
X5048351Y-1763471D01*
X5038801Y-1754530D01*
X5028133Y-1747012D01*
X5019700Y-1742592D01*
G37*
G36*
X2403500Y-1787550D02*
G01*
X2448407Y-1787550D01*
X2447188Y-1784756D01*
X2440432Y-1773580D01*
X2432151Y-1763471D01*
X2422601Y-1754530D01*
X2411933Y-1747012D01*
X2403500Y-1742592D01*
G37*
G36*
X3749700Y-1787550D02*
G01*
X3794607Y-1787550D01*
X3793388Y-1784756D01*
X3786632Y-1773580D01*
X3778351Y-1763471D01*
X3768801Y-1754530D01*
X3758133Y-1747012D01*
X3749700Y-1742592D01*
G37*
G36*
X1285900Y-1787550D02*
G01*
X1330807Y-1787550D01*
X1329588Y-1784756D01*
X1322832Y-1773580D01*
X1314551Y-1763471D01*
X1305001Y-1754530D01*
X1294333Y-1747012D01*
X1285900Y-1742592D01*
G37*
G36*
X1158392Y-1787550D02*
G01*
X1203350Y-1787550D01*
X1203350Y-1742592D01*
X1194866Y-1747012D01*
X1184198Y-1754530D01*
X1174648Y-1763471D01*
X1166368Y-1773580D01*
X1159611Y-1784756D01*
G37*
G36*
X2275992Y-1787550D02*
G01*
X2320950Y-1787550D01*
X2320950Y-1742592D01*
X2312466Y-1747012D01*
X2301798Y-1754530D01*
X2292248Y-1763471D01*
X2283968Y-1773580D01*
X2277211Y-1784756D01*
G37*
G36*
X3622192Y-1787550D02*
G01*
X3667150Y-1787550D01*
X3667150Y-1742592D01*
X3658666Y-1747012D01*
X3647998Y-1754530D01*
X3638448Y-1763471D01*
X3630168Y-1773580D01*
X3623411Y-1784756D01*
G37*
G36*
X4892192Y-1787550D02*
G01*
X4937150Y-1787550D01*
X4937150Y-1742592D01*
X4928666Y-1747012D01*
X4917998Y-1754530D01*
X4908448Y-1763471D01*
X4900168Y-1773580D01*
X4893411Y-1784756D01*
G37*
G36*
X5749950Y-1178407D02*
G01*
X5749950Y-1133500D01*
X5704992Y-1133500D01*
X5706211Y-1136243D01*
X5712968Y-1147419D01*
X5721248Y-1157528D01*
X5730798Y-1166469D01*
X5741466Y-1173988D01*
G37*
G36*
X5832500Y-1050950D02*
G01*
X5877407Y-1050950D01*
X5876188Y-1048156D01*
X5869432Y-1036980D01*
X5861151Y-1026871D01*
X5851601Y-1017930D01*
X5840933Y-1010412D01*
X5832500Y-1005992D01*
G37*
G36*
X5704992Y-1050950D02*
G01*
X5749950Y-1050950D01*
X5749950Y-1005992D01*
X5741466Y-1010412D01*
X5730798Y-1017930D01*
X5721248Y-1026871D01*
X5712968Y-1036980D01*
X5706211Y-1048156D01*
G37*
G36*
X5791200Y-933958D02*
G01*
X5804255Y-933043D01*
X5817006Y-930402D01*
X5829350Y-926033D01*
X5840933Y-919987D01*
X5851601Y-912469D01*
X5861151Y-903528D01*
X5869432Y-893419D01*
X5876188Y-882243D01*
X5881420Y-870254D01*
X5884926Y-857656D01*
X5886704Y-844753D01*
X5886704Y-831646D01*
X5884926Y-818743D01*
X5881420Y-806145D01*
X5876188Y-794156D01*
X5869432Y-782980D01*
X5861151Y-772871D01*
X5851601Y-763930D01*
X5840933Y-756412D01*
X5829350Y-750366D01*
X5817006Y-745998D01*
X5804255Y-743356D01*
X5791200Y-742442D01*
X5778144Y-743356D01*
X5765393Y-745998D01*
X5753049Y-750366D01*
X5741466Y-756412D01*
X5730798Y-763930D01*
X5721248Y-772871D01*
X5712968Y-782980D01*
X5706211Y-794156D01*
X5700979Y-806145D01*
X5697474Y-818743D01*
X5695696Y-831646D01*
X5695696Y-844753D01*
X5697474Y-857656D01*
X5700979Y-870254D01*
X5706211Y-882243D01*
X5712968Y-893419D01*
X5721248Y-903528D01*
X5730798Y-912469D01*
X5741466Y-919987D01*
X5753049Y-926033D01*
X5765393Y-930402D01*
X5778144Y-933043D01*
G37*

%LPD*%
G36*
X4345584Y-4996027D02*
G01*
X4341571Y-4995164D01*
X4338218Y-4992878D01*
X4336084Y-4989423D01*
X4335424Y-4985410D01*
X4336440Y-4981448D01*
X4338878Y-4978196D01*
X4341164Y-4976164D01*
X4350207Y-4965903D01*
X4357827Y-4954524D01*
X4363872Y-4942230D01*
X4368241Y-4929276D01*
X4370933Y-4915865D01*
X4371848Y-4902200D01*
X4370933Y-4888534D01*
X4368241Y-4875123D01*
X4365396Y-4866640D01*
X4364837Y-4862931D01*
X4365701Y-4859274D01*
X4367834Y-4856175D01*
X4391914Y-4832096D01*
X4395216Y-4829911D01*
X4399076Y-4829149D01*
X4425442Y-4829149D01*
X4429709Y-4830064D01*
X4433163Y-4832705D01*
X4435246Y-4836515D01*
X4435500Y-4840884D01*
X4433925Y-4844948D01*
X4430572Y-4849876D01*
X4427321Y-4856480D01*
X4475480Y-4856480D01*
X4475480Y-4839309D01*
X4476242Y-4835398D01*
X4478477Y-4832096D01*
X4481728Y-4829911D01*
X4485640Y-4829149D01*
X4556760Y-4829149D01*
X4560671Y-4829911D01*
X4563922Y-4832096D01*
X4566158Y-4835398D01*
X4566920Y-4839309D01*
X4566920Y-4856480D01*
X4615078Y-4856480D01*
X4611827Y-4849876D01*
X4608474Y-4844948D01*
X4606899Y-4840884D01*
X4607153Y-4836515D01*
X4609236Y-4832705D01*
X4612690Y-4830064D01*
X4616958Y-4829149D01*
X4679442Y-4829149D01*
X4683709Y-4830064D01*
X4687163Y-4832705D01*
X4689246Y-4836515D01*
X4689500Y-4840884D01*
X4687925Y-4844948D01*
X4684572Y-4849876D01*
X4678527Y-4862169D01*
X4674158Y-4875123D01*
X4671466Y-4888534D01*
X4670552Y-4902200D01*
X4671466Y-4915865D01*
X4674158Y-4929276D01*
X4678527Y-4942230D01*
X4684572Y-4954524D01*
X4692192Y-4965903D01*
X4701235Y-4976164D01*
X4703521Y-4978196D01*
X4706010Y-4981448D01*
X4706975Y-4985410D01*
X4706315Y-4989423D01*
X4704181Y-4992878D01*
X4700828Y-4995164D01*
X4696815Y-4996027D01*
X4599584Y-4996027D01*
X4595571Y-4995164D01*
X4592218Y-4992878D01*
X4590084Y-4989423D01*
X4589424Y-4985410D01*
X4590440Y-4981448D01*
X4592878Y-4978196D01*
X4595164Y-4976164D01*
X4604207Y-4965903D01*
X4611827Y-4954524D01*
X4615078Y-4947920D01*
X4566920Y-4947920D01*
X4566920Y-4985867D01*
X4566158Y-4989728D01*
X4563922Y-4993030D01*
X4560671Y-4995214D01*
X4556760Y-4996027D01*
X4485640Y-4996027D01*
X4481728Y-4995214D01*
X4478477Y-4993030D01*
X4476242Y-4989728D01*
X4475480Y-4985867D01*
X4475480Y-4947920D01*
X4427321Y-4947920D01*
X4430572Y-4954524D01*
X4438192Y-4965903D01*
X4447235Y-4976164D01*
X4449521Y-4978196D01*
X4452010Y-4981448D01*
X4452975Y-4985410D01*
X4452315Y-4989423D01*
X4450181Y-4992878D01*
X4446828Y-4995164D01*
X4442815Y-4996027D01*
G37*

%LPD*%
G36*
X4091584Y-4996027D02*
G01*
X4087571Y-4995164D01*
X4084218Y-4992878D01*
X4082084Y-4989423D01*
X4081424Y-4985410D01*
X4082440Y-4981448D01*
X4084878Y-4978196D01*
X4087164Y-4976164D01*
X4096207Y-4965903D01*
X4103827Y-4954524D01*
X4109872Y-4942230D01*
X4114241Y-4929276D01*
X4116933Y-4915865D01*
X4117848Y-4902200D01*
X4116933Y-4888534D01*
X4114241Y-4875123D01*
X4111396Y-4866640D01*
X4110837Y-4862931D01*
X4111701Y-4859274D01*
X4113834Y-4856175D01*
X4167174Y-4802784D01*
X4172305Y-4796586D01*
X4175861Y-4789881D01*
X4178046Y-4782667D01*
X4178858Y-4774641D01*
X4178858Y-4732020D01*
X4179570Y-4728210D01*
X4181703Y-4725009D01*
X4184802Y-4722774D01*
X4188561Y-4721860D01*
X4192371Y-4722418D01*
X4195724Y-4724349D01*
X4203496Y-4731207D01*
X4214876Y-4738827D01*
X4227169Y-4744872D01*
X4240123Y-4749241D01*
X4253534Y-4751933D01*
X4267200Y-4752848D01*
X4280865Y-4751933D01*
X4294276Y-4749241D01*
X4307230Y-4744872D01*
X4319524Y-4738827D01*
X4330903Y-4731207D01*
X4341164Y-4722164D01*
X4350207Y-4711903D01*
X4357827Y-4700524D01*
X4363872Y-4688230D01*
X4368241Y-4675276D01*
X4370933Y-4661865D01*
X4371848Y-4648200D01*
X4370933Y-4634534D01*
X4368241Y-4621123D01*
X4363872Y-4608169D01*
X4357827Y-4595876D01*
X4354474Y-4590897D01*
X4352899Y-4586833D01*
X4353153Y-4582515D01*
X4355185Y-4578654D01*
X4358690Y-4576013D01*
X4362907Y-4575098D01*
X4425492Y-4575098D01*
X4429709Y-4576013D01*
X4433214Y-4578654D01*
X4435246Y-4582515D01*
X4435500Y-4586833D01*
X4433925Y-4590897D01*
X4430572Y-4595876D01*
X4427321Y-4602480D01*
X4475480Y-4602480D01*
X4475480Y-4585258D01*
X4476242Y-4581347D01*
X4478477Y-4578096D01*
X4481728Y-4575860D01*
X4485640Y-4575098D01*
X4556760Y-4575098D01*
X4560671Y-4575860D01*
X4563922Y-4578096D01*
X4566158Y-4581347D01*
X4566920Y-4585258D01*
X4566920Y-4602480D01*
X4615078Y-4602480D01*
X4611827Y-4595876D01*
X4608474Y-4590897D01*
X4606899Y-4586833D01*
X4607153Y-4582515D01*
X4609185Y-4578654D01*
X4612690Y-4576013D01*
X4616907Y-4575098D01*
X4679492Y-4575098D01*
X4683709Y-4576013D01*
X4687214Y-4578654D01*
X4689246Y-4582515D01*
X4689500Y-4586833D01*
X4687925Y-4590897D01*
X4684572Y-4595876D01*
X4678527Y-4608169D01*
X4674158Y-4621123D01*
X4671466Y-4634534D01*
X4670552Y-4648200D01*
X4671466Y-4661865D01*
X4674158Y-4675276D01*
X4678527Y-4688230D01*
X4684572Y-4700524D01*
X4692192Y-4711903D01*
X4701235Y-4722164D01*
X4711496Y-4731207D01*
X4714646Y-4733290D01*
X4717643Y-4736388D01*
X4719066Y-4740402D01*
X4718710Y-4744720D01*
X4716627Y-4748428D01*
X4713173Y-4751019D01*
X4709007Y-4751933D01*
X4587392Y-4751933D01*
X4583226Y-4751019D01*
X4579772Y-4748428D01*
X4577689Y-4744720D01*
X4577334Y-4740402D01*
X4578756Y-4736388D01*
X4581753Y-4733290D01*
X4584903Y-4731207D01*
X4595164Y-4722164D01*
X4604207Y-4711903D01*
X4611827Y-4700524D01*
X4615078Y-4693920D01*
X4566920Y-4693920D01*
X4566920Y-4741773D01*
X4566158Y-4745634D01*
X4563922Y-4748936D01*
X4560671Y-4751120D01*
X4556760Y-4751933D01*
X4485640Y-4751933D01*
X4481728Y-4751120D01*
X4478477Y-4748936D01*
X4476242Y-4745634D01*
X4475480Y-4741773D01*
X4475480Y-4693920D01*
X4427321Y-4693920D01*
X4430572Y-4700524D01*
X4438192Y-4711903D01*
X4447235Y-4722164D01*
X4457496Y-4731207D01*
X4460646Y-4733290D01*
X4463643Y-4736388D01*
X4465066Y-4740402D01*
X4464710Y-4744720D01*
X4462627Y-4748428D01*
X4459173Y-4751019D01*
X4455007Y-4751933D01*
X4379366Y-4751933D01*
X4371340Y-4752695D01*
X4364126Y-4754880D01*
X4357471Y-4758436D01*
X4351223Y-4763566D01*
X4313224Y-4801565D01*
X4310126Y-4803698D01*
X4306468Y-4804562D01*
X4302760Y-4804003D01*
X4294276Y-4801158D01*
X4280865Y-4798466D01*
X4267200Y-4797552D01*
X4253534Y-4798466D01*
X4240123Y-4801158D01*
X4227169Y-4805527D01*
X4214876Y-4811572D01*
X4203496Y-4819192D01*
X4193235Y-4828235D01*
X4184192Y-4838496D01*
X4176572Y-4849876D01*
X4170527Y-4862169D01*
X4166158Y-4875123D01*
X4163466Y-4888534D01*
X4162551Y-4902200D01*
X4163466Y-4915865D01*
X4166158Y-4929276D01*
X4170527Y-4942230D01*
X4176572Y-4954524D01*
X4184192Y-4965903D01*
X4193235Y-4976164D01*
X4195521Y-4978196D01*
X4198010Y-4981448D01*
X4198975Y-4985410D01*
X4198315Y-4989423D01*
X4196181Y-4992878D01*
X4192828Y-4995164D01*
X4188815Y-4996027D01*
G37*

%LPD*%
G36*
X8579662Y-5239512D02*
G01*
X8575649Y-5238648D01*
X8572246Y-5236260D01*
X8570112Y-5232755D01*
X8569553Y-5228640D01*
X8570620Y-5224678D01*
X8573211Y-5221478D01*
X8577021Y-5218328D01*
X8662314Y-5133086D01*
X8665210Y-5131054D01*
X8668613Y-5130139D01*
X8675014Y-5129580D01*
X8684260Y-5127091D01*
X8692997Y-5123027D01*
X8700820Y-5117541D01*
X8707628Y-5110734D01*
X8713114Y-5102910D01*
X8717178Y-5094173D01*
X8719667Y-5084927D01*
X8720531Y-5075377D01*
X8719667Y-5065776D01*
X8717178Y-5056530D01*
X8713114Y-5047792D01*
X8707628Y-5039969D01*
X8700820Y-5033162D01*
X8695232Y-5029250D01*
X8692286Y-5025999D01*
X8690965Y-5021834D01*
X8691524Y-5017465D01*
X8693912Y-5013756D01*
X8741765Y-4965852D01*
X8745220Y-4963617D01*
X8749284Y-4962906D01*
X8753297Y-4963871D01*
X8756599Y-4966360D01*
X8765235Y-4976164D01*
X8775496Y-4985207D01*
X8786876Y-4992827D01*
X8799169Y-4998872D01*
X8812123Y-5003241D01*
X8825534Y-5005933D01*
X8839200Y-5006848D01*
X8852865Y-5005933D01*
X8866276Y-5003241D01*
X8879230Y-4998872D01*
X8891524Y-4992827D01*
X8902903Y-4985207D01*
X8913164Y-4976164D01*
X8922207Y-4965903D01*
X8929827Y-4954524D01*
X8935872Y-4942230D01*
X8940241Y-4929276D01*
X8942933Y-4915865D01*
X8943848Y-4902200D01*
X8942933Y-4888534D01*
X8940241Y-4875123D01*
X8935872Y-4862169D01*
X8929827Y-4849876D01*
X8922207Y-4838496D01*
X8913164Y-4828235D01*
X8902903Y-4819192D01*
X8898534Y-4816297D01*
X8895638Y-4813350D01*
X8894165Y-4809490D01*
X8894318Y-4805375D01*
X8896146Y-4801666D01*
X8899245Y-4798974D01*
X8911539Y-4795418D01*
X8918194Y-4791862D01*
X8924442Y-4786731D01*
X8993124Y-4718050D01*
X8996375Y-4714087D01*
X8999829Y-4711395D01*
X9004096Y-4710379D01*
X9008364Y-4711242D01*
X9011869Y-4713833D01*
X9019235Y-4722164D01*
X9029496Y-4731207D01*
X9040876Y-4738827D01*
X9053169Y-4744872D01*
X9066123Y-4749241D01*
X9079534Y-4751933D01*
X9093200Y-4752848D01*
X9106865Y-4751933D01*
X9120276Y-4749241D01*
X9133230Y-4744872D01*
X9145524Y-4738827D01*
X9156903Y-4731207D01*
X9167164Y-4722164D01*
X9176207Y-4711903D01*
X9183827Y-4700524D01*
X9189872Y-4688230D01*
X9194241Y-4675276D01*
X9196933Y-4661865D01*
X9197848Y-4648200D01*
X9196933Y-4634534D01*
X9194241Y-4621123D01*
X9189872Y-4608169D01*
X9183827Y-4595876D01*
X9176207Y-4584496D01*
X9167164Y-4574235D01*
X9156903Y-4565192D01*
X9145524Y-4557572D01*
X9133230Y-4551527D01*
X9120276Y-4547158D01*
X9107170Y-4544517D01*
X9103207Y-4542790D01*
X9100312Y-4539538D01*
X9099042Y-4535373D01*
X9099651Y-4531055D01*
X9101988Y-4527397D01*
X9339986Y-4289399D01*
X9343288Y-4287164D01*
X9347200Y-4286402D01*
X9493605Y-4286402D01*
X9501632Y-4285589D01*
X9508845Y-4283405D01*
X9515551Y-4279849D01*
X9521748Y-4274718D01*
X9617303Y-4179163D01*
X9620808Y-4176928D01*
X9624923Y-4176217D01*
X9628987Y-4177284D01*
X9638842Y-4182110D01*
X9651492Y-4186428D01*
X9664598Y-4189018D01*
X9677908Y-4189882D01*
X9691217Y-4189018D01*
X9704324Y-4186428D01*
X9716973Y-4182110D01*
X9728962Y-4176217D01*
X9740036Y-4168800D01*
X9750094Y-4159961D01*
X9758883Y-4149953D01*
X9766300Y-4138828D01*
X9772243Y-4126890D01*
X9776510Y-4114241D01*
X9779101Y-4101134D01*
X9780016Y-4087469D01*
X9780016Y-4040530D01*
X9779101Y-4026865D01*
X9776510Y-4013758D01*
X9772243Y-4001109D01*
X9766300Y-3989171D01*
X9758883Y-3978046D01*
X9750094Y-3968038D01*
X9740036Y-3959199D01*
X9728962Y-3951782D01*
X9716973Y-3945890D01*
X9704324Y-3941572D01*
X9691217Y-3938981D01*
X9677908Y-3938117D01*
X9664598Y-3938981D01*
X9651492Y-3941572D01*
X9638842Y-3945890D01*
X9628987Y-3950715D01*
X9624923Y-3951782D01*
X9620808Y-3951071D01*
X9617303Y-3948836D01*
X8888730Y-3220262D01*
X8882532Y-3215132D01*
X8875826Y-3211576D01*
X8868613Y-3209391D01*
X8860586Y-3208578D01*
X5293106Y-3208578D01*
X5289346Y-3207867D01*
X5286095Y-3205784D01*
X5283860Y-3202686D01*
X5282946Y-3198977D01*
X5283454Y-3195167D01*
X5294223Y-3178606D01*
X5296916Y-3173069D01*
X5246471Y-3173069D01*
X5246471Y-3198418D01*
X5245709Y-3202330D01*
X5243474Y-3205581D01*
X5240172Y-3207816D01*
X5236311Y-3208578D01*
X5158943Y-3208578D01*
X5155031Y-3207816D01*
X5151729Y-3205581D01*
X5149545Y-3202330D01*
X5148783Y-3198418D01*
X5148783Y-3173069D01*
X5098135Y-3173069D01*
X5104688Y-3184702D01*
X5110378Y-3192322D01*
X5112207Y-3196437D01*
X5112105Y-3200857D01*
X5110124Y-3204870D01*
X5106568Y-3207613D01*
X5102250Y-3208578D01*
X4789119Y-3208578D01*
X4781092Y-3209391D01*
X4773879Y-3211576D01*
X4767173Y-3215132D01*
X4760976Y-3220262D01*
X4454448Y-3526739D01*
X4451299Y-3528872D01*
X4447540Y-3529685D01*
X4443780Y-3529076D01*
X4435144Y-3525875D01*
X4421276Y-3522726D01*
X4407103Y-3521354D01*
X4392930Y-3521811D01*
X4378909Y-3524097D01*
X4365294Y-3528161D01*
X4352290Y-3533901D01*
X4340148Y-3541268D01*
X4329023Y-3550107D01*
X4319117Y-3560318D01*
X4310634Y-3571697D01*
X4303674Y-3584092D01*
X4298340Y-3597249D01*
X4294733Y-3611016D01*
X4292904Y-3625087D01*
X4292904Y-3639312D01*
X4294733Y-3653383D01*
X4298340Y-3667150D01*
X4303674Y-3680307D01*
X4310634Y-3692702D01*
X4319270Y-3704234D01*
X4321098Y-3708349D01*
X4320997Y-3712768D01*
X4318965Y-3716782D01*
X4315460Y-3719525D01*
X4311142Y-3720490D01*
X4106011Y-3720490D01*
X4102100Y-3719728D01*
X4098798Y-3717493D01*
X4076547Y-3695242D01*
X4074261Y-3691737D01*
X4073550Y-3687622D01*
X4074617Y-3683558D01*
X4079646Y-3673348D01*
X4083862Y-3660851D01*
X4086453Y-3647897D01*
X4087317Y-3634740D01*
X4086453Y-3621582D01*
X4083862Y-3608628D01*
X4079646Y-3596132D01*
X4073804Y-3584295D01*
X4066489Y-3573322D01*
X4057751Y-3563416D01*
X4047845Y-3554679D01*
X4038955Y-3548735D01*
X4035958Y-3545687D01*
X4034536Y-3541623D01*
X4034891Y-3537356D01*
X4036974Y-3533597D01*
X4040378Y-3531057D01*
X4044594Y-3530142D01*
X4289755Y-3530142D01*
X4297781Y-3529329D01*
X4304995Y-3527145D01*
X4311700Y-3523589D01*
X4317898Y-3518458D01*
X4352645Y-3483762D01*
X4355998Y-3481527D01*
X4359960Y-3480815D01*
X4378909Y-3486302D01*
X4392930Y-3488588D01*
X4407103Y-3489045D01*
X4421276Y-3487674D01*
X4435144Y-3484524D01*
X4448454Y-3479596D01*
X4461052Y-3473043D01*
X4472686Y-3464915D01*
X4483201Y-3455365D01*
X4492447Y-3444544D01*
X4500168Y-3432606D01*
X4506366Y-3419805D01*
X4510836Y-3406343D01*
X4513529Y-3392373D01*
X4514443Y-3378200D01*
X4513529Y-3364026D01*
X4510836Y-3350056D01*
X4506366Y-3336594D01*
X4500168Y-3323793D01*
X4492447Y-3311855D01*
X4483201Y-3301085D01*
X4472686Y-3291484D01*
X4461052Y-3283356D01*
X4448454Y-3276803D01*
X4435144Y-3271875D01*
X4421276Y-3268726D01*
X4407103Y-3267354D01*
X4392930Y-3267811D01*
X4378909Y-3270097D01*
X4365294Y-3274161D01*
X4352290Y-3279901D01*
X4340148Y-3287268D01*
X4329023Y-3296107D01*
X4319117Y-3306318D01*
X4310634Y-3317697D01*
X4303674Y-3330092D01*
X4298340Y-3343249D01*
X4294733Y-3357016D01*
X4292904Y-3371087D01*
X4292904Y-3385312D01*
X4294733Y-3399383D01*
X4298340Y-3413150D01*
X4300321Y-3418078D01*
X4301083Y-3421938D01*
X4300321Y-3425799D01*
X4298086Y-3429101D01*
X4277258Y-3449929D01*
X4273956Y-3452164D01*
X4270044Y-3452926D01*
X4078274Y-3452926D01*
X4074058Y-3452012D01*
X4070553Y-3449370D01*
X4068521Y-3445510D01*
X4068267Y-3441192D01*
X4069842Y-3437128D01*
X4073804Y-3431184D01*
X4079646Y-3419348D01*
X4083862Y-3406851D01*
X4086453Y-3393897D01*
X4087317Y-3380740D01*
X4086453Y-3367582D01*
X4083862Y-3354628D01*
X4079646Y-3342132D01*
X4073804Y-3330295D01*
X4066489Y-3319322D01*
X4057751Y-3309416D01*
X4047845Y-3300729D01*
X4036009Y-3292856D01*
X4033012Y-3289757D01*
X4031538Y-3285744D01*
X4031894Y-3281426D01*
X4033977Y-3277666D01*
X4037431Y-3275126D01*
X4041597Y-3274212D01*
X4113631Y-3274212D01*
X4117492Y-3274974D01*
X4129278Y-3283305D01*
X4137964Y-3287369D01*
X4147261Y-3289858D01*
X4156811Y-3290671D01*
X4166362Y-3289858D01*
X4175658Y-3287369D01*
X4184345Y-3283305D01*
X4192219Y-3277768D01*
X4198975Y-3271012D01*
X4204512Y-3263138D01*
X4208576Y-3254451D01*
X4211066Y-3245154D01*
X4211878Y-3235604D01*
X4211066Y-3226054D01*
X4208576Y-3216757D01*
X4204512Y-3208070D01*
X4198975Y-3200196D01*
X4192219Y-3193440D01*
X4184345Y-3187903D01*
X4177487Y-3184702D01*
X4174337Y-3182416D01*
X4172305Y-3179114D01*
X4171645Y-3175254D01*
X4172458Y-3171444D01*
X4174693Y-3168243D01*
X4177944Y-3166110D01*
X4181805Y-3165348D01*
X4187596Y-3165348D01*
X4195622Y-3164535D01*
X4202836Y-3162350D01*
X4209542Y-3158794D01*
X4215739Y-3153664D01*
X4278274Y-3091180D01*
X4281932Y-3088843D01*
X4286300Y-3088233D01*
X4290517Y-3089554D01*
X4293717Y-3092500D01*
X4295444Y-3096564D01*
X4295241Y-3100933D01*
X4294733Y-3103016D01*
X4292904Y-3117088D01*
X4292904Y-3131312D01*
X4294733Y-3145383D01*
X4298340Y-3159150D01*
X4303674Y-3172307D01*
X4310634Y-3184702D01*
X4319117Y-3196082D01*
X4329023Y-3206292D01*
X4340148Y-3215132D01*
X4352290Y-3222498D01*
X4365294Y-3228289D01*
X4378909Y-3232302D01*
X4392930Y-3234588D01*
X4407103Y-3235045D01*
X4421276Y-3233674D01*
X4435144Y-3230524D01*
X4448454Y-3225596D01*
X4461052Y-3219043D01*
X4472686Y-3210915D01*
X4483201Y-3201365D01*
X4492447Y-3190544D01*
X4500168Y-3178606D01*
X4506366Y-3165805D01*
X4510836Y-3152343D01*
X4513529Y-3138373D01*
X4514443Y-3124200D01*
X4513529Y-3110026D01*
X4510836Y-3096056D01*
X4506366Y-3082594D01*
X4500168Y-3069793D01*
X4492447Y-3057855D01*
X4487926Y-3052572D01*
X4485995Y-3049219D01*
X4485487Y-3045409D01*
X4486402Y-3041700D01*
X4488637Y-3038602D01*
X4491888Y-3036519D01*
X4495647Y-3035808D01*
X5105247Y-3035808D01*
X5109565Y-3036773D01*
X5113121Y-3039516D01*
X5115102Y-3043529D01*
X5115204Y-3047949D01*
X5113375Y-3052064D01*
X5104688Y-3063697D01*
X5098135Y-3075330D01*
X5148783Y-3075330D01*
X5148783Y-3045968D01*
X5149545Y-3042056D01*
X5151729Y-3038805D01*
X5155031Y-3036570D01*
X5158943Y-3035808D01*
X5236311Y-3035808D01*
X5240172Y-3036570D01*
X5243474Y-3038805D01*
X5245709Y-3042056D01*
X5246471Y-3045968D01*
X5246471Y-3075330D01*
X5296916Y-3075330D01*
X5294223Y-3069793D01*
X5286451Y-3057855D01*
X5281930Y-3052572D01*
X5280050Y-3049219D01*
X5279542Y-3045409D01*
X5280456Y-3041700D01*
X5282692Y-3038602D01*
X5285892Y-3036519D01*
X5289702Y-3035808D01*
X5590540Y-3035808D01*
X5598566Y-3034995D01*
X5605780Y-3032810D01*
X5612485Y-3029254D01*
X5618683Y-3024124D01*
X5657494Y-2985363D01*
X5660796Y-2983128D01*
X5664708Y-2982366D01*
X5701233Y-2982366D01*
X5705449Y-2983280D01*
X5708853Y-2985820D01*
X5710986Y-2989529D01*
X5711342Y-2993796D01*
X5709920Y-2997809D01*
X5706211Y-3003956D01*
X5704992Y-3006750D01*
X5749950Y-3006750D01*
X5749950Y-2992526D01*
X5750712Y-2988614D01*
X5752896Y-2985363D01*
X5756198Y-2983128D01*
X5760110Y-2982366D01*
X5822340Y-2982366D01*
X5826201Y-2983128D01*
X5829503Y-2985363D01*
X5831687Y-2988614D01*
X5832500Y-2992526D01*
X5832500Y-3006750D01*
X5868517Y-3006750D01*
X5872835Y-3007664D01*
X5876290Y-3010357D01*
X5882538Y-3023412D01*
X5888024Y-3031286D01*
X5894832Y-3038043D01*
X5902655Y-3043580D01*
X5911392Y-3047644D01*
X5920638Y-3050133D01*
X5930239Y-3050946D01*
X5939790Y-3050133D01*
X5949035Y-3047644D01*
X5957773Y-3043580D01*
X5969508Y-3035249D01*
X5973419Y-3034487D01*
X7189520Y-3034487D01*
X7197547Y-3033674D01*
X7204760Y-3031490D01*
X7211466Y-3027934D01*
X7217664Y-3022803D01*
X7585303Y-2655163D01*
X7588808Y-2652928D01*
X7592923Y-2652217D01*
X7596987Y-2653284D01*
X7606842Y-2658110D01*
X7619492Y-2662428D01*
X7632598Y-2665018D01*
X7645908Y-2665882D01*
X7659217Y-2665018D01*
X7672324Y-2662428D01*
X7684973Y-2658110D01*
X7696962Y-2652217D01*
X7708036Y-2644800D01*
X7718094Y-2635961D01*
X7726883Y-2625953D01*
X7734300Y-2614828D01*
X7740243Y-2602890D01*
X7744510Y-2590241D01*
X7747101Y-2577134D01*
X7748016Y-2563469D01*
X7748016Y-2516530D01*
X7747101Y-2502865D01*
X7744510Y-2489758D01*
X7740243Y-2477109D01*
X7734300Y-2465171D01*
X7726730Y-2453792D01*
X7725156Y-2449728D01*
X7725409Y-2445410D01*
X7727442Y-2441549D01*
X7730896Y-2438908D01*
X7735163Y-2437993D01*
X7810652Y-2437993D01*
X7814919Y-2438908D01*
X7818374Y-2441549D01*
X7820406Y-2445410D01*
X7820659Y-2449728D01*
X7819085Y-2453792D01*
X7811516Y-2465171D01*
X7805572Y-2477109D01*
X7801305Y-2489758D01*
X7798714Y-2502865D01*
X7797800Y-2516530D01*
X7797800Y-2563469D01*
X7798714Y-2577134D01*
X7801305Y-2590241D01*
X7805572Y-2602890D01*
X7811516Y-2614828D01*
X7818932Y-2625953D01*
X7827721Y-2635961D01*
X7837779Y-2644800D01*
X7848853Y-2652217D01*
X7860842Y-2658110D01*
X7873492Y-2662428D01*
X7886598Y-2665018D01*
X7899908Y-2665882D01*
X7913217Y-2665018D01*
X7926324Y-2662428D01*
X7938973Y-2658110D01*
X7950962Y-2652217D01*
X7962036Y-2644800D01*
X7972094Y-2635961D01*
X7980883Y-2625953D01*
X7988300Y-2614828D01*
X7994243Y-2602890D01*
X7998510Y-2590241D01*
X8001101Y-2577134D01*
X8002016Y-2563469D01*
X8002016Y-2516530D01*
X8001101Y-2502865D01*
X7998510Y-2489758D01*
X7994243Y-2477109D01*
X7988300Y-2465171D01*
X7980730Y-2453792D01*
X7979156Y-2449728D01*
X7979409Y-2445410D01*
X7981442Y-2441549D01*
X7984896Y-2438908D01*
X7989163Y-2437993D01*
X8064652Y-2437993D01*
X8068919Y-2438908D01*
X8072374Y-2441549D01*
X8074406Y-2445410D01*
X8074659Y-2449728D01*
X8073085Y-2453792D01*
X8065516Y-2465171D01*
X8059572Y-2477109D01*
X8055305Y-2489758D01*
X8052714Y-2502865D01*
X8051800Y-2516530D01*
X8051800Y-2563469D01*
X8052714Y-2577134D01*
X8055305Y-2590241D01*
X8059572Y-2602890D01*
X8065516Y-2614828D01*
X8072932Y-2625953D01*
X8081721Y-2635961D01*
X8091779Y-2644800D01*
X8102853Y-2652217D01*
X8114842Y-2658110D01*
X8127492Y-2662428D01*
X8140598Y-2665018D01*
X8153908Y-2665882D01*
X8167217Y-2665018D01*
X8180324Y-2662428D01*
X8192973Y-2658110D01*
X8204962Y-2652217D01*
X8216036Y-2644800D01*
X8226094Y-2635961D01*
X8234883Y-2625953D01*
X8242300Y-2614828D01*
X8248243Y-2602890D01*
X8252510Y-2590241D01*
X8255101Y-2577134D01*
X8256016Y-2563469D01*
X8256016Y-2516530D01*
X8255101Y-2502865D01*
X8252510Y-2489758D01*
X8248243Y-2477109D01*
X8242300Y-2465171D01*
X8234730Y-2453792D01*
X8233156Y-2449728D01*
X8233409Y-2445410D01*
X8235442Y-2441549D01*
X8238896Y-2438908D01*
X8243163Y-2437993D01*
X8318652Y-2437993D01*
X8322919Y-2438908D01*
X8326374Y-2441549D01*
X8328406Y-2445410D01*
X8328659Y-2449728D01*
X8327085Y-2453792D01*
X8319516Y-2465171D01*
X8313572Y-2477109D01*
X8309305Y-2489758D01*
X8306714Y-2502865D01*
X8305800Y-2516530D01*
X8305800Y-2563469D01*
X8306714Y-2577134D01*
X8309305Y-2590241D01*
X8313572Y-2602890D01*
X8319516Y-2614828D01*
X8326932Y-2625953D01*
X8335721Y-2635961D01*
X8345779Y-2644800D01*
X8356853Y-2652217D01*
X8368842Y-2658110D01*
X8381492Y-2662428D01*
X8394598Y-2665018D01*
X8407908Y-2665882D01*
X8421217Y-2665018D01*
X8434324Y-2662428D01*
X8446973Y-2658110D01*
X8458962Y-2652217D01*
X8470036Y-2644800D01*
X8480094Y-2635961D01*
X8488883Y-2625953D01*
X8496300Y-2614828D01*
X8502243Y-2602890D01*
X8506510Y-2590241D01*
X8509101Y-2577134D01*
X8510016Y-2563469D01*
X8510016Y-2516530D01*
X8509101Y-2502865D01*
X8506510Y-2489758D01*
X8502243Y-2477109D01*
X8496300Y-2465171D01*
X8488730Y-2453792D01*
X8487156Y-2449728D01*
X8487410Y-2445410D01*
X8489442Y-2441549D01*
X8492896Y-2438908D01*
X8497163Y-2437993D01*
X8572652Y-2437993D01*
X8576919Y-2438908D01*
X8580374Y-2441549D01*
X8582406Y-2445410D01*
X8582660Y-2449728D01*
X8581085Y-2453792D01*
X8573516Y-2465171D01*
X8567572Y-2477109D01*
X8563305Y-2489758D01*
X8560714Y-2502865D01*
X8559800Y-2516530D01*
X8559800Y-2563469D01*
X8560714Y-2577134D01*
X8563305Y-2590241D01*
X8567572Y-2602890D01*
X8573516Y-2614828D01*
X8580932Y-2625953D01*
X8589721Y-2635961D01*
X8599779Y-2644800D01*
X8610854Y-2652217D01*
X8622842Y-2658110D01*
X8635492Y-2662428D01*
X8648598Y-2665018D01*
X8661908Y-2665882D01*
X8675217Y-2665018D01*
X8688324Y-2662428D01*
X8700973Y-2658110D01*
X8712962Y-2652217D01*
X8724036Y-2644800D01*
X8734094Y-2635961D01*
X8742883Y-2625953D01*
X8750300Y-2614828D01*
X8756243Y-2602890D01*
X8760510Y-2590241D01*
X8763101Y-2577134D01*
X8764016Y-2563469D01*
X8764016Y-2516530D01*
X8763101Y-2502865D01*
X8760510Y-2489758D01*
X8756243Y-2477109D01*
X8750300Y-2465171D01*
X8742730Y-2453792D01*
X8741156Y-2449728D01*
X8741410Y-2445410D01*
X8743442Y-2441549D01*
X8746896Y-2438908D01*
X8751163Y-2437993D01*
X8755075Y-2437993D01*
X8758986Y-2438755D01*
X8762288Y-2440990D01*
X8812428Y-2491130D01*
X8814358Y-2493822D01*
X8815324Y-2496972D01*
X8815222Y-2500274D01*
X8814714Y-2502865D01*
X8813800Y-2516530D01*
X8813800Y-2563469D01*
X8814714Y-2577134D01*
X8817305Y-2590241D01*
X8821572Y-2602890D01*
X8827516Y-2614828D01*
X8834932Y-2625953D01*
X8843721Y-2635961D01*
X8853779Y-2644800D01*
X8864854Y-2652217D01*
X8876842Y-2658110D01*
X8889492Y-2662428D01*
X8902598Y-2665018D01*
X8915908Y-2665882D01*
X8929217Y-2665018D01*
X8942324Y-2662428D01*
X8954973Y-2658110D01*
X8966962Y-2652217D01*
X8978036Y-2644800D01*
X8988094Y-2635961D01*
X8996883Y-2625953D01*
X9004300Y-2614828D01*
X9010243Y-2602890D01*
X9014510Y-2590241D01*
X9017101Y-2577134D01*
X9018016Y-2563469D01*
X9018016Y-2516530D01*
X9017101Y-2502865D01*
X9014510Y-2489758D01*
X9010243Y-2477109D01*
X9004300Y-2465171D01*
X8996883Y-2454046D01*
X8988094Y-2444038D01*
X8978036Y-2435199D01*
X8966962Y-2427782D01*
X8954973Y-2421890D01*
X8942324Y-2417572D01*
X8929217Y-2414981D01*
X8915908Y-2414117D01*
X8902598Y-2414981D01*
X8889492Y-2417572D01*
X8876842Y-2421890D01*
X8866987Y-2426716D01*
X8862923Y-2427782D01*
X8858808Y-2427071D01*
X8855303Y-2424836D01*
X8802928Y-2372461D01*
X8796731Y-2367330D01*
X8790025Y-2363774D01*
X8782812Y-2361590D01*
X8774785Y-2360777D01*
X6735927Y-2360777D01*
X6732320Y-2360117D01*
X6729171Y-2358186D01*
X6726885Y-2355240D01*
X6725869Y-2351684D01*
X6727291Y-2337358D01*
X6726428Y-2327757D01*
X6723938Y-2318512D01*
X6719874Y-2309774D01*
X6714388Y-2301951D01*
X6707581Y-2295144D01*
X6699758Y-2289657D01*
X6691020Y-2285593D01*
X6681774Y-2283104D01*
X6672224Y-2282240D01*
X6662623Y-2283104D01*
X6653377Y-2285593D01*
X6644640Y-2289657D01*
X6632905Y-2297938D01*
X6628993Y-2298750D01*
X6518046Y-2298750D01*
X6514134Y-2297938D01*
X6510832Y-2295753D01*
X6508648Y-2292451D01*
X6507886Y-2288590D01*
X6508648Y-2284679D01*
X6510832Y-2281377D01*
X6568897Y-2223312D01*
X6572402Y-2221026D01*
X6576568Y-2220315D01*
X6580581Y-2221382D01*
X6590792Y-2226411D01*
X6603288Y-2230628D01*
X6616242Y-2233218D01*
X6629400Y-2234082D01*
X6642557Y-2233218D01*
X6655511Y-2230628D01*
X6668008Y-2226411D01*
X6679844Y-2220569D01*
X6690817Y-2213254D01*
X6700723Y-2204516D01*
X6709460Y-2194610D01*
X6716775Y-2183638D01*
X6722618Y-2171801D01*
X6726834Y-2159304D01*
X6729425Y-2146350D01*
X6730288Y-2132888D01*
X6730288Y-2083511D01*
X6729425Y-2070049D01*
X6726834Y-2057095D01*
X6722618Y-2044598D01*
X6716775Y-2032762D01*
X6713626Y-2028037D01*
X6712000Y-2023973D01*
X6712254Y-2019604D01*
X6714337Y-2015794D01*
X6717792Y-2013153D01*
X6722059Y-2012238D01*
X6790740Y-2012238D01*
X6795008Y-2013153D01*
X6798462Y-2015794D01*
X6800545Y-2019604D01*
X6800799Y-2023973D01*
X6799173Y-2028037D01*
X6796024Y-2032762D01*
X6790181Y-2044598D01*
X6785965Y-2057095D01*
X6783374Y-2070049D01*
X6782511Y-2083511D01*
X6782511Y-2132888D01*
X6783374Y-2146350D01*
X6785965Y-2159304D01*
X6790181Y-2171801D01*
X6796024Y-2183638D01*
X6803339Y-2194610D01*
X6812076Y-2204516D01*
X6821982Y-2213254D01*
X6832955Y-2220569D01*
X6844792Y-2226411D01*
X6857288Y-2230628D01*
X6870242Y-2233218D01*
X6883400Y-2234082D01*
X6896557Y-2233218D01*
X6909511Y-2230628D01*
X6922008Y-2226411D01*
X6932218Y-2221382D01*
X6936282Y-2220315D01*
X6940397Y-2221026D01*
X6943902Y-2223312D01*
X6988606Y-2267966D01*
X6994855Y-2273096D01*
X7001509Y-2276652D01*
X7008723Y-2278837D01*
X7016750Y-2279650D01*
X9037777Y-2279650D01*
X9041688Y-2280412D01*
X9044990Y-2282647D01*
X9160459Y-2398115D01*
X9162796Y-2401773D01*
X9163405Y-2406091D01*
X9162135Y-2410256D01*
X9159240Y-2413508D01*
X9155277Y-2415235D01*
X9143492Y-2417572D01*
X9130842Y-2421890D01*
X9118854Y-2427782D01*
X9107779Y-2435199D01*
X9097721Y-2444038D01*
X9088932Y-2454046D01*
X9081516Y-2465171D01*
X9075572Y-2477109D01*
X9071305Y-2489758D01*
X9068714Y-2502865D01*
X9067800Y-2516530D01*
X9067800Y-2563469D01*
X9068714Y-2577134D01*
X9069222Y-2579725D01*
X9069324Y-2583027D01*
X9068358Y-2586177D01*
X9066428Y-2588869D01*
X8949029Y-2706268D01*
X8945727Y-2708452D01*
X8941866Y-2709265D01*
X8814358Y-2709265D01*
X8810447Y-2708452D01*
X8798712Y-2700172D01*
X8789974Y-2696108D01*
X8780729Y-2693619D01*
X8771178Y-2692755D01*
X8761577Y-2693619D01*
X8752332Y-2696108D01*
X8743594Y-2700172D01*
X8735771Y-2705658D01*
X8728964Y-2712466D01*
X8723477Y-2720289D01*
X8719413Y-2729026D01*
X8716924Y-2738272D01*
X8716060Y-2747873D01*
X8716924Y-2757424D01*
X8719413Y-2766669D01*
X8723477Y-2775356D01*
X8729573Y-2784043D01*
X8731250Y-2788107D01*
X8731097Y-2792526D01*
X8729065Y-2796438D01*
X8725560Y-2799130D01*
X8721242Y-2800096D01*
X7752283Y-2800096D01*
X7748371Y-2799283D01*
X7736636Y-2791002D01*
X7727899Y-2786938D01*
X7718653Y-2784449D01*
X7709103Y-2783586D01*
X7699502Y-2784449D01*
X7690256Y-2786938D01*
X7681518Y-2791002D01*
X7673695Y-2796489D01*
X7666888Y-2803296D01*
X7661402Y-2811119D01*
X7657338Y-2819857D01*
X7654848Y-2829102D01*
X7653985Y-2838704D01*
X7654848Y-2848254D01*
X7657338Y-2857500D01*
X7661402Y-2866237D01*
X7666888Y-2874060D01*
X7673695Y-2880868D01*
X7681518Y-2886354D01*
X7690256Y-2890418D01*
X7699502Y-2892907D01*
X7709103Y-2893771D01*
X7718653Y-2892907D01*
X7727899Y-2890418D01*
X7736636Y-2886354D01*
X7748371Y-2878074D01*
X7752283Y-2877312D01*
X7948015Y-2877312D01*
X7951825Y-2878023D01*
X7955076Y-2880156D01*
X7957312Y-2883408D01*
X7958175Y-2887218D01*
X7957515Y-2891028D01*
X7955432Y-2894380D01*
X7952282Y-2896666D01*
X7943799Y-2900629D01*
X7935925Y-2906115D01*
X7929168Y-2912922D01*
X7923631Y-2920746D01*
X7919567Y-2929483D01*
X7917078Y-2938729D01*
X7916265Y-2948330D01*
X7917078Y-2957880D01*
X7919567Y-2967126D01*
X7923631Y-2975864D01*
X7929168Y-2983687D01*
X7935925Y-2990494D01*
X7943799Y-2995980D01*
X7952486Y-3000044D01*
X7961782Y-3002534D01*
X7971332Y-3003397D01*
X7980883Y-3002534D01*
X7990179Y-3000044D01*
X7998866Y-2995980D01*
X8010652Y-2987700D01*
X8014512Y-2986938D01*
X9523120Y-2986938D01*
X9531146Y-2986125D01*
X9538360Y-2983941D01*
X9545015Y-2980385D01*
X9551263Y-2975254D01*
X9871303Y-2655163D01*
X9874808Y-2652928D01*
X9878923Y-2652217D01*
X9882987Y-2653284D01*
X9892842Y-2658110D01*
X9905492Y-2662428D01*
X9918598Y-2665018D01*
X9931908Y-2665882D01*
X9945217Y-2665018D01*
X9958324Y-2662428D01*
X9970973Y-2658110D01*
X9982962Y-2652217D01*
X9994036Y-2644800D01*
X10004094Y-2635961D01*
X10012883Y-2625953D01*
X10020300Y-2614828D01*
X10026243Y-2602890D01*
X10030510Y-2590241D01*
X10033101Y-2577134D01*
X10034016Y-2563469D01*
X10034016Y-2541727D01*
X10034828Y-2537764D01*
X10037114Y-2534412D01*
X10040518Y-2532227D01*
X10044531Y-2531567D01*
X10048494Y-2532532D01*
X10056723Y-2536393D01*
X10066020Y-2538882D01*
X10075570Y-2539695D01*
X10085120Y-2538882D01*
X10094417Y-2536393D01*
X10103104Y-2532329D01*
X10110978Y-2526792D01*
X10117734Y-2520035D01*
X10123271Y-2512161D01*
X10127335Y-2503474D01*
X10129824Y-2494178D01*
X10130637Y-2484628D01*
X10129824Y-2475077D01*
X10127335Y-2465781D01*
X10123271Y-2457094D01*
X10117734Y-2449220D01*
X10110978Y-2442464D01*
X10103104Y-2436926D01*
X10094417Y-2432862D01*
X10085120Y-2430373D01*
X10078720Y-2429814D01*
X10075316Y-2428900D01*
X10072420Y-2426919D01*
X10013848Y-2368296D01*
X10007600Y-2363165D01*
X10000945Y-2359609D01*
X9993731Y-2357424D01*
X9985705Y-2356662D01*
X9569145Y-2356662D01*
X9561118Y-2357424D01*
X9553905Y-2359609D01*
X9547250Y-2363165D01*
X9541002Y-2368296D01*
X9484512Y-2424836D01*
X9481007Y-2427071D01*
X9476892Y-2427782D01*
X9472828Y-2426716D01*
X9462973Y-2421890D01*
X9450324Y-2417572D01*
X9437217Y-2414981D01*
X9423908Y-2414117D01*
X9410598Y-2414981D01*
X9397492Y-2417572D01*
X9384842Y-2421890D01*
X9372854Y-2427782D01*
X9361779Y-2435199D01*
X9351721Y-2444038D01*
X9342577Y-2454554D01*
X9339935Y-2457246D01*
X9336481Y-2458821D01*
X9332722Y-2458974D01*
X9329166Y-2457805D01*
X9326270Y-2455367D01*
X9323324Y-2451811D01*
X9109811Y-2238248D01*
X9107576Y-2234844D01*
X9106814Y-2230882D01*
X9107728Y-2226919D01*
X9110065Y-2223617D01*
X9113520Y-2221484D01*
X9117533Y-2220925D01*
X9121495Y-2221941D01*
X9130334Y-2226310D01*
X9142984Y-2230628D01*
X9156090Y-2233218D01*
X9169400Y-2234082D01*
X9182709Y-2233218D01*
X9195816Y-2230628D01*
X9208465Y-2226310D01*
X9220454Y-2220417D01*
X9231528Y-2213000D01*
X9241586Y-2204161D01*
X9250375Y-2194153D01*
X9257792Y-2183028D01*
X9263735Y-2171090D01*
X9268002Y-2158441D01*
X9270593Y-2145334D01*
X9271508Y-2131669D01*
X9271508Y-2084730D01*
X9270593Y-2071065D01*
X9268002Y-2057958D01*
X9263735Y-2045309D01*
X9257792Y-2033371D01*
X9250375Y-2022246D01*
X9241586Y-2012238D01*
X9231528Y-2003399D01*
X9220454Y-1995982D01*
X9208465Y-1990089D01*
X9195816Y-1985772D01*
X9182709Y-1983181D01*
X9169400Y-1982317D01*
X9156090Y-1983181D01*
X9142984Y-1985772D01*
X9130334Y-1990089D01*
X9118346Y-1995982D01*
X9107271Y-2003399D01*
X9097213Y-2012238D01*
X9088424Y-2022246D01*
X9081008Y-2033371D01*
X9075064Y-2045309D01*
X9070797Y-2057958D01*
X9068206Y-2071065D01*
X9067292Y-2084730D01*
X9067292Y-2131669D01*
X9068206Y-2145334D01*
X9070797Y-2158441D01*
X9075064Y-2171090D01*
X9081008Y-2183028D01*
X9086291Y-2190953D01*
X9087916Y-2195118D01*
X9087561Y-2199589D01*
X9085376Y-2203450D01*
X9081719Y-2205990D01*
X9077350Y-2206752D01*
X9065514Y-2203246D01*
X9057487Y-2202434D01*
X9009837Y-2202434D01*
X9005620Y-2201519D01*
X9002115Y-2198878D01*
X9000083Y-2195017D01*
X8999829Y-2190699D01*
X9001404Y-2186635D01*
X9003792Y-2183028D01*
X9009735Y-2171090D01*
X9014002Y-2158441D01*
X9016593Y-2145334D01*
X9017508Y-2131669D01*
X9017508Y-2084730D01*
X9016593Y-2071065D01*
X9014002Y-2057958D01*
X9009735Y-2045309D01*
X9003792Y-2033371D01*
X8996375Y-2022246D01*
X8987586Y-2012238D01*
X8977528Y-2003399D01*
X8966454Y-1995982D01*
X8954465Y-1990089D01*
X8941816Y-1985772D01*
X8928709Y-1983181D01*
X8915400Y-1982317D01*
X8902090Y-1983181D01*
X8888984Y-1985772D01*
X8876334Y-1990089D01*
X8864346Y-1995982D01*
X8853271Y-2003399D01*
X8843213Y-2012238D01*
X8834424Y-2022246D01*
X8827008Y-2033371D01*
X8821064Y-2045309D01*
X8816797Y-2057958D01*
X8814206Y-2071065D01*
X8813292Y-2084730D01*
X8813292Y-2131669D01*
X8814206Y-2145334D01*
X8816797Y-2158441D01*
X8821064Y-2171090D01*
X8827008Y-2183028D01*
X8829395Y-2186635D01*
X8830970Y-2190699D01*
X8830716Y-2195017D01*
X8828684Y-2198878D01*
X8825179Y-2201519D01*
X8820962Y-2202434D01*
X8755227Y-2202434D01*
X8750960Y-2201519D01*
X8747506Y-2198878D01*
X8745423Y-2195017D01*
X8745169Y-2190699D01*
X8746794Y-2186635D01*
X8748776Y-2183638D01*
X8754618Y-2171801D01*
X8758834Y-2159304D01*
X8761425Y-2146350D01*
X8762288Y-2132888D01*
X8762288Y-2083511D01*
X8761425Y-2070049D01*
X8758834Y-2057095D01*
X8754618Y-2044598D01*
X8748776Y-2032762D01*
X8741460Y-2021789D01*
X8732723Y-2011883D01*
X8722817Y-2003145D01*
X8711844Y-1995830D01*
X8700008Y-1989988D01*
X8687511Y-1985772D01*
X8674557Y-1983181D01*
X8661400Y-1982317D01*
X8648242Y-1983181D01*
X8635288Y-1985772D01*
X8622792Y-1989988D01*
X8610955Y-1995830D01*
X8599982Y-2003145D01*
X8590076Y-2011883D01*
X8581339Y-2021789D01*
X8574024Y-2032762D01*
X8568182Y-2044598D01*
X8563965Y-2057095D01*
X8561374Y-2070049D01*
X8560511Y-2083511D01*
X8560511Y-2132888D01*
X8561374Y-2146350D01*
X8563965Y-2159304D01*
X8568182Y-2171801D01*
X8574024Y-2183638D01*
X8576005Y-2186635D01*
X8577630Y-2190699D01*
X8577376Y-2195017D01*
X8575294Y-2198878D01*
X8571839Y-2201519D01*
X8567572Y-2202434D01*
X8501837Y-2202434D01*
X8497620Y-2201519D01*
X8494115Y-2198878D01*
X8492083Y-2195017D01*
X8491829Y-2190699D01*
X8493404Y-2186635D01*
X8495792Y-2183028D01*
X8501735Y-2171090D01*
X8506002Y-2158441D01*
X8508593Y-2145334D01*
X8509508Y-2131669D01*
X8509508Y-2084730D01*
X8508593Y-2071065D01*
X8508085Y-2068525D01*
X8507984Y-2065223D01*
X8508949Y-2062022D01*
X8510879Y-2059330D01*
X8736076Y-1834184D01*
X8739378Y-1831949D01*
X8743238Y-1831187D01*
X8856675Y-1831187D01*
X8860586Y-1831949D01*
X8872321Y-1840280D01*
X8881059Y-1844344D01*
X8890304Y-1846834D01*
X8899906Y-1847646D01*
X8909456Y-1846834D01*
X8918702Y-1844344D01*
X8927439Y-1840280D01*
X8935262Y-1834743D01*
X8942070Y-1827987D01*
X8947556Y-1820113D01*
X8951620Y-1811426D01*
X8954109Y-1802130D01*
X8954973Y-1792579D01*
X8954109Y-1783029D01*
X8951620Y-1773732D01*
X8947556Y-1765046D01*
X8942070Y-1757172D01*
X8935262Y-1750415D01*
X8927439Y-1744878D01*
X8918702Y-1740814D01*
X8909456Y-1738325D01*
X8899906Y-1737512D01*
X8890304Y-1738325D01*
X8881059Y-1740814D01*
X8872321Y-1744878D01*
X8860586Y-1753209D01*
X8856675Y-1753971D01*
X8723528Y-1753971D01*
X8715502Y-1754784D01*
X8708288Y-1756968D01*
X8701633Y-1760524D01*
X8695385Y-1765655D01*
X8468004Y-1993036D01*
X8464499Y-1995322D01*
X8460384Y-1995982D01*
X8456320Y-1994966D01*
X8446465Y-1990089D01*
X8433816Y-1985772D01*
X8420709Y-1983181D01*
X8407400Y-1982317D01*
X8394090Y-1983181D01*
X8380984Y-1985772D01*
X8368334Y-1990089D01*
X8356346Y-1995982D01*
X8345271Y-2003399D01*
X8335213Y-2012238D01*
X8326424Y-2022246D01*
X8319008Y-2033371D01*
X8313064Y-2045309D01*
X8308797Y-2057958D01*
X8306206Y-2071065D01*
X8305292Y-2084730D01*
X8305292Y-2131669D01*
X8306206Y-2145334D01*
X8308797Y-2158441D01*
X8313064Y-2171090D01*
X8319008Y-2183028D01*
X8321395Y-2186635D01*
X8322970Y-2190699D01*
X8322716Y-2195017D01*
X8320684Y-2198878D01*
X8317179Y-2201519D01*
X8312962Y-2202434D01*
X8247227Y-2202434D01*
X8242960Y-2201519D01*
X8239506Y-2198878D01*
X8237423Y-2195017D01*
X8237169Y-2190699D01*
X8238794Y-2186635D01*
X8240775Y-2183638D01*
X8246618Y-2171801D01*
X8250834Y-2159304D01*
X8253425Y-2146350D01*
X8254288Y-2132888D01*
X8254288Y-2083511D01*
X8253425Y-2070049D01*
X8250834Y-2057095D01*
X8246618Y-2044598D01*
X8240775Y-2032762D01*
X8233460Y-2021789D01*
X8224723Y-2011883D01*
X8214817Y-2003145D01*
X8203844Y-1995830D01*
X8192008Y-1989988D01*
X8179511Y-1985772D01*
X8166557Y-1983181D01*
X8153400Y-1982317D01*
X8140242Y-1983181D01*
X8127288Y-1985772D01*
X8114792Y-1989988D01*
X8102955Y-1995830D01*
X8091982Y-2003145D01*
X8082076Y-2011883D01*
X8073339Y-2021789D01*
X8066024Y-2032762D01*
X8060181Y-2044598D01*
X8055965Y-2057095D01*
X8053374Y-2070049D01*
X8052511Y-2083511D01*
X8052511Y-2132888D01*
X8053374Y-2146350D01*
X8055965Y-2159304D01*
X8060181Y-2171801D01*
X8066024Y-2183638D01*
X8068005Y-2186635D01*
X8069630Y-2190699D01*
X8069376Y-2195017D01*
X8067294Y-2198878D01*
X8063839Y-2201519D01*
X8059572Y-2202434D01*
X7993227Y-2202434D01*
X7988960Y-2201519D01*
X7985506Y-2198878D01*
X7983423Y-2195017D01*
X7983169Y-2190699D01*
X7984794Y-2186635D01*
X7986775Y-2183638D01*
X7992618Y-2171801D01*
X7996834Y-2159304D01*
X7999425Y-2146350D01*
X8000288Y-2132888D01*
X8000288Y-2083511D01*
X7999425Y-2070049D01*
X7996834Y-2057095D01*
X7992618Y-2044598D01*
X7986775Y-2032762D01*
X7979460Y-2021789D01*
X7970723Y-2011883D01*
X7960817Y-2003145D01*
X7949844Y-1995830D01*
X7938008Y-1989988D01*
X7925511Y-1985772D01*
X7912557Y-1983181D01*
X7899400Y-1982317D01*
X7886242Y-1983181D01*
X7873288Y-1985772D01*
X7860792Y-1989988D01*
X7848955Y-1995830D01*
X7837982Y-2003145D01*
X7828076Y-2011883D01*
X7819339Y-2021789D01*
X7812024Y-2032762D01*
X7806181Y-2044598D01*
X7801965Y-2057095D01*
X7799374Y-2070049D01*
X7798511Y-2083511D01*
X7798511Y-2132888D01*
X7799374Y-2146350D01*
X7801965Y-2159304D01*
X7806181Y-2171801D01*
X7812024Y-2183638D01*
X7814005Y-2186635D01*
X7815630Y-2190699D01*
X7815376Y-2195017D01*
X7813294Y-2198878D01*
X7809839Y-2201519D01*
X7805572Y-2202434D01*
X7739227Y-2202434D01*
X7734960Y-2201519D01*
X7731506Y-2198878D01*
X7729423Y-2195017D01*
X7729169Y-2190699D01*
X7730794Y-2186635D01*
X7732775Y-2183638D01*
X7738618Y-2171801D01*
X7742834Y-2159304D01*
X7745425Y-2146350D01*
X7746288Y-2132888D01*
X7746288Y-2083511D01*
X7745425Y-2070049D01*
X7742834Y-2057095D01*
X7738618Y-2044598D01*
X7732775Y-2032762D01*
X7725460Y-2021789D01*
X7716723Y-2011883D01*
X7706817Y-2003145D01*
X7695844Y-1995830D01*
X7684008Y-1989988D01*
X7671511Y-1985772D01*
X7658557Y-1983181D01*
X7645400Y-1982317D01*
X7632242Y-1983181D01*
X7619288Y-1985772D01*
X7606792Y-1989988D01*
X7596581Y-1995017D01*
X7592568Y-1996084D01*
X7588402Y-1995373D01*
X7584897Y-1993087D01*
X7538466Y-1946656D01*
X7532268Y-1941525D01*
X7525562Y-1937969D01*
X7518349Y-1935784D01*
X7510322Y-1935022D01*
X5966002Y-1935022D01*
X5957976Y-1935784D01*
X5950762Y-1937969D01*
X5944108Y-1941525D01*
X5937859Y-1946656D01*
X5730900Y-2153615D01*
X5727192Y-2155952D01*
X5722823Y-2156561D01*
X5718657Y-2155240D01*
X5715406Y-2152243D01*
X5711494Y-2146655D01*
X5704687Y-2139899D01*
X5696864Y-2134362D01*
X5688126Y-2130298D01*
X5678881Y-2127808D01*
X5669330Y-2126996D01*
X5659729Y-2127808D01*
X5650484Y-2130298D01*
X5641746Y-2134362D01*
X5633923Y-2139899D01*
X5629859Y-2143912D01*
X5626557Y-2146147D01*
X5622645Y-2146909D01*
X5069281Y-2146909D01*
X5065115Y-2145995D01*
X5061661Y-2143455D01*
X5059578Y-2139746D01*
X5059172Y-2135479D01*
X5060594Y-2131466D01*
X5063388Y-2126843D01*
X5068620Y-2114854D01*
X5072126Y-2102256D01*
X5073904Y-2089353D01*
X5073904Y-2076246D01*
X5072126Y-2063343D01*
X5068620Y-2050745D01*
X5063388Y-2038756D01*
X5056632Y-2027580D01*
X5048351Y-2017471D01*
X5042509Y-2011984D01*
X5040172Y-2008733D01*
X5039309Y-2004822D01*
X5040020Y-2000859D01*
X5042204Y-1997456D01*
X5045506Y-1995220D01*
X5049469Y-1994407D01*
X5077155Y-1994407D01*
X5085181Y-1993595D01*
X5092395Y-1991410D01*
X5099050Y-1987854D01*
X5105298Y-1982724D01*
X6078575Y-1009446D01*
X6080709Y-1006856D01*
X6084214Y-1004112D01*
X6088532Y-1003147D01*
X6092850Y-1004112D01*
X6094882Y-1005027D01*
X6104128Y-1007516D01*
X6113729Y-1008380D01*
X6123279Y-1007516D01*
X6132525Y-1005027D01*
X6141262Y-1000963D01*
X6152997Y-992682D01*
X6156909Y-991920D01*
X6513830Y-991920D01*
X6521856Y-991108D01*
X6529070Y-988923D01*
X6535775Y-985367D01*
X6541973Y-980236D01*
X6822846Y-699414D01*
X6826351Y-697128D01*
X6830466Y-696417D01*
X6834530Y-697484D01*
X6844334Y-702310D01*
X6856984Y-706628D01*
X6870090Y-709218D01*
X6883400Y-710082D01*
X6896709Y-709218D01*
X6909816Y-706628D01*
X6922465Y-702310D01*
X6934453Y-696417D01*
X6945528Y-689000D01*
X6955586Y-680161D01*
X6964375Y-670153D01*
X6971792Y-659028D01*
X6977735Y-647090D01*
X6982002Y-634441D01*
X6984593Y-621334D01*
X6985508Y-607669D01*
X6985508Y-560730D01*
X6984593Y-547065D01*
X6982002Y-533958D01*
X6977735Y-521309D01*
X6971792Y-509371D01*
X6968947Y-505053D01*
X6967372Y-500989D01*
X6967626Y-496671D01*
X6969658Y-492810D01*
X6973112Y-490169D01*
X6977380Y-489254D01*
X6983679Y-489254D01*
X6987540Y-490016D01*
X6990842Y-492251D01*
X7033920Y-535279D01*
X7035850Y-537972D01*
X7036816Y-541172D01*
X7036714Y-544474D01*
X7036206Y-547065D01*
X7035292Y-560730D01*
X7035292Y-607669D01*
X7036206Y-621334D01*
X7038797Y-634441D01*
X7043064Y-647090D01*
X7049008Y-659028D01*
X7056424Y-670153D01*
X7065213Y-680161D01*
X7075271Y-689000D01*
X7086346Y-696417D01*
X7098334Y-702310D01*
X7110984Y-706628D01*
X7124090Y-709218D01*
X7137400Y-710082D01*
X7150709Y-709218D01*
X7163816Y-706628D01*
X7176465Y-702310D01*
X7188453Y-696417D01*
X7199528Y-689000D01*
X7209586Y-680161D01*
X7218375Y-670153D01*
X7225792Y-659028D01*
X7231735Y-647090D01*
X7236002Y-634441D01*
X7238593Y-621334D01*
X7239508Y-607669D01*
X7239508Y-560730D01*
X7238593Y-547065D01*
X7236002Y-533958D01*
X7231735Y-521309D01*
X7225792Y-509371D01*
X7218375Y-498246D01*
X7209586Y-488238D01*
X7199528Y-479399D01*
X7188453Y-471982D01*
X7176465Y-466090D01*
X7163816Y-461772D01*
X7150709Y-459181D01*
X7137400Y-458317D01*
X7124090Y-459181D01*
X7110984Y-461772D01*
X7098334Y-466090D01*
X7088530Y-470916D01*
X7084466Y-471982D01*
X7080351Y-471271D01*
X7076846Y-468985D01*
X7031532Y-423722D01*
X7025284Y-418592D01*
X7023557Y-417626D01*
X7020153Y-414731D01*
X7018375Y-410667D01*
X7018477Y-406196D01*
X7020458Y-402234D01*
X7023963Y-399491D01*
X7028332Y-398526D01*
X8416950Y-398526D01*
X8420811Y-399288D01*
X8424113Y-401523D01*
X8557920Y-535279D01*
X8559850Y-537972D01*
X8560816Y-541172D01*
X8560714Y-544474D01*
X8560206Y-547065D01*
X8559292Y-560730D01*
X8559292Y-607669D01*
X8560206Y-621334D01*
X8562797Y-634441D01*
X8567064Y-647090D01*
X8573008Y-659028D01*
X8580424Y-670153D01*
X8589213Y-680161D01*
X8599271Y-689000D01*
X8610346Y-696417D01*
X8622334Y-702310D01*
X8634984Y-706628D01*
X8648090Y-709218D01*
X8661400Y-710082D01*
X8674709Y-709218D01*
X8687816Y-706628D01*
X8700465Y-702310D01*
X8712454Y-696417D01*
X8723528Y-689000D01*
X8733586Y-680161D01*
X8742375Y-670153D01*
X8749792Y-659028D01*
X8755735Y-647090D01*
X8760002Y-634441D01*
X8762593Y-621334D01*
X8763508Y-607669D01*
X8763508Y-560730D01*
X8762593Y-547065D01*
X8760002Y-533958D01*
X8755735Y-521309D01*
X8749792Y-509371D01*
X8742375Y-498246D01*
X8733586Y-488238D01*
X8723528Y-479399D01*
X8712454Y-471982D01*
X8700465Y-466090D01*
X8687816Y-461772D01*
X8674709Y-459181D01*
X8661400Y-458317D01*
X8648090Y-459181D01*
X8634984Y-461772D01*
X8622334Y-466090D01*
X8612530Y-470916D01*
X8608466Y-471982D01*
X8604351Y-471271D01*
X8600846Y-468985D01*
X8464804Y-332994D01*
X8458555Y-327863D01*
X8452104Y-324408D01*
X8448751Y-321513D01*
X8446922Y-317449D01*
X8447024Y-312978D01*
X8449056Y-309016D01*
X8452561Y-306273D01*
X8456879Y-305308D01*
X9948011Y-305308D01*
X9978339Y-306222D01*
X10007955Y-308965D01*
X10037318Y-313436D01*
X10066375Y-319684D01*
X10095026Y-327710D01*
X10123119Y-337413D01*
X10150551Y-348792D01*
X10177272Y-361848D01*
X10203180Y-376478D01*
X10228122Y-392633D01*
X10252049Y-410260D01*
X10274858Y-429259D01*
X10296499Y-449681D01*
X10316870Y-471322D01*
X10335869Y-494182D01*
X10353497Y-518109D01*
X10369600Y-543102D01*
X10384180Y-569010D01*
X10397185Y-595731D01*
X10408564Y-623214D01*
X10418216Y-651306D01*
X10426192Y-679958D01*
X10432389Y-709015D01*
X10436860Y-738378D01*
X10439552Y-767994D01*
X10440111Y-786688D01*
X10439095Y-792784D01*
X10438892Y-796188D01*
X10438892Y-4554220D01*
X10437977Y-4558436D01*
X10435336Y-4561941D01*
X10431475Y-4563973D01*
X10427157Y-4564227D01*
X10423093Y-4562652D01*
X10415524Y-4557572D01*
X10403230Y-4551527D01*
X10390276Y-4547158D01*
X10376865Y-4544466D01*
X10363200Y-4543552D01*
X10349534Y-4544466D01*
X10336123Y-4547158D01*
X10323169Y-4551527D01*
X10310876Y-4557572D01*
X10299496Y-4565192D01*
X10289235Y-4574235D01*
X10280192Y-4584496D01*
X10272572Y-4595876D01*
X10266527Y-4608169D01*
X10262158Y-4621123D01*
X10259466Y-4634534D01*
X10258552Y-4648200D01*
X10259466Y-4661865D01*
X10262158Y-4675276D01*
X10266527Y-4688230D01*
X10272572Y-4700524D01*
X10280192Y-4711903D01*
X10289235Y-4722164D01*
X10299496Y-4731207D01*
X10310876Y-4738827D01*
X10323169Y-4744872D01*
X10336123Y-4749241D01*
X10349534Y-4751933D01*
X10363200Y-4752848D01*
X10376865Y-4751933D01*
X10390276Y-4749241D01*
X10403230Y-4744872D01*
X10415524Y-4738827D01*
X10423093Y-4733747D01*
X10427157Y-4732172D01*
X10431475Y-4732426D01*
X10435336Y-4734458D01*
X10437977Y-4737963D01*
X10438892Y-4742180D01*
X10438892Y-4808220D01*
X10437977Y-4812436D01*
X10435336Y-4815941D01*
X10431475Y-4817973D01*
X10427157Y-4818227D01*
X10423093Y-4816652D01*
X10415524Y-4811572D01*
X10403230Y-4805527D01*
X10390276Y-4801158D01*
X10376865Y-4798466D01*
X10363200Y-4797552D01*
X10349534Y-4798466D01*
X10336123Y-4801158D01*
X10323169Y-4805527D01*
X10310876Y-4811572D01*
X10299496Y-4819192D01*
X10289235Y-4828235D01*
X10280192Y-4838496D01*
X10272572Y-4849876D01*
X10266527Y-4862169D01*
X10262158Y-4875123D01*
X10259466Y-4888534D01*
X10258552Y-4902200D01*
X10259466Y-4915865D01*
X10262158Y-4929276D01*
X10266527Y-4942230D01*
X10272572Y-4954524D01*
X10280192Y-4965903D01*
X10289235Y-4976164D01*
X10299496Y-4985207D01*
X10310876Y-4992827D01*
X10323169Y-4998872D01*
X10336123Y-5003241D01*
X10349534Y-5005933D01*
X10363200Y-5006848D01*
X10376865Y-5005933D01*
X10390276Y-5003241D01*
X10403230Y-4998872D01*
X10415524Y-4992827D01*
X10423093Y-4987747D01*
X10427157Y-4986172D01*
X10431475Y-4986426D01*
X10435336Y-4988458D01*
X10437977Y-4991963D01*
X10438892Y-4996180D01*
X10438892Y-5229352D01*
X10438130Y-5233212D01*
X10435894Y-5236514D01*
X10432643Y-5238699D01*
X10428732Y-5239512D01*
G37*

%LPC*%
G36*
X9347200Y-5006848D02*
G01*
X9360865Y-5005933D01*
X9374276Y-5003241D01*
X9387230Y-4998872D01*
X9399524Y-4992827D01*
X9410903Y-4985207D01*
X9421164Y-4976164D01*
X9430207Y-4965903D01*
X9437827Y-4954524D01*
X9443872Y-4942230D01*
X9448241Y-4929276D01*
X9450933Y-4915865D01*
X9451848Y-4902200D01*
X9450933Y-4888534D01*
X9448241Y-4875123D01*
X9443872Y-4862169D01*
X9437827Y-4849876D01*
X9430207Y-4838496D01*
X9421164Y-4828235D01*
X9410903Y-4819192D01*
X9399524Y-4811572D01*
X9387230Y-4805527D01*
X9374276Y-4801158D01*
X9360865Y-4798466D01*
X9347200Y-4797552D01*
X9333534Y-4798466D01*
X9320123Y-4801158D01*
X9307169Y-4805527D01*
X9294876Y-4811572D01*
X9283496Y-4819192D01*
X9273235Y-4828235D01*
X9264192Y-4838496D01*
X9256572Y-4849876D01*
X9250527Y-4862169D01*
X9246158Y-4875123D01*
X9243466Y-4888534D01*
X9242552Y-4902200D01*
X9243466Y-4915865D01*
X9246158Y-4929276D01*
X9250527Y-4942230D01*
X9256572Y-4954524D01*
X9264192Y-4965903D01*
X9273235Y-4976164D01*
X9283496Y-4985207D01*
X9294876Y-4992827D01*
X9307169Y-4998872D01*
X9320123Y-5003241D01*
X9333534Y-5005933D01*
G37*
G36*
X9855200Y-5006848D02*
G01*
X9868865Y-5005933D01*
X9882276Y-5003241D01*
X9895230Y-4998872D01*
X9907524Y-4992827D01*
X9918903Y-4985207D01*
X9929164Y-4976164D01*
X9938207Y-4965903D01*
X9945827Y-4954524D01*
X9951872Y-4942230D01*
X9956241Y-4929276D01*
X9958933Y-4915865D01*
X9959848Y-4902200D01*
X9958933Y-4888534D01*
X9956241Y-4875123D01*
X9951872Y-4862169D01*
X9945827Y-4849876D01*
X9938207Y-4838496D01*
X9929164Y-4828235D01*
X9918903Y-4819192D01*
X9907524Y-4811572D01*
X9895230Y-4805527D01*
X9882276Y-4801158D01*
X9868865Y-4798466D01*
X9855200Y-4797552D01*
X9841534Y-4798466D01*
X9828123Y-4801158D01*
X9815169Y-4805527D01*
X9802876Y-4811572D01*
X9791496Y-4819192D01*
X9781235Y-4828235D01*
X9772192Y-4838496D01*
X9764572Y-4849876D01*
X9758527Y-4862169D01*
X9754158Y-4875123D01*
X9751466Y-4888534D01*
X9750552Y-4902200D01*
X9751466Y-4915865D01*
X9754158Y-4929276D01*
X9758527Y-4942230D01*
X9764572Y-4954524D01*
X9772192Y-4965903D01*
X9781235Y-4976164D01*
X9791496Y-4985207D01*
X9802876Y-4992827D01*
X9815169Y-4998872D01*
X9828123Y-5003241D01*
X9841534Y-5005933D01*
G37*
G36*
X9601200Y-5006848D02*
G01*
X9614865Y-5005933D01*
X9628276Y-5003241D01*
X9641230Y-4998872D01*
X9653524Y-4992827D01*
X9664903Y-4985207D01*
X9675164Y-4976164D01*
X9684207Y-4965903D01*
X9691827Y-4954524D01*
X9697872Y-4942230D01*
X9702241Y-4929276D01*
X9704933Y-4915865D01*
X9705848Y-4902200D01*
X9704933Y-4888534D01*
X9702241Y-4875123D01*
X9697872Y-4862169D01*
X9691827Y-4849876D01*
X9684207Y-4838496D01*
X9675164Y-4828235D01*
X9664903Y-4819192D01*
X9653524Y-4811572D01*
X9641230Y-4805527D01*
X9628276Y-4801158D01*
X9614865Y-4798466D01*
X9601200Y-4797552D01*
X9587534Y-4798466D01*
X9574123Y-4801158D01*
X9561169Y-4805527D01*
X9548876Y-4811572D01*
X9537496Y-4819192D01*
X9527235Y-4828235D01*
X9518192Y-4838496D01*
X9510572Y-4849876D01*
X9504527Y-4862169D01*
X9500158Y-4875123D01*
X9497466Y-4888534D01*
X9496552Y-4902200D01*
X9497466Y-4915865D01*
X9500158Y-4929276D01*
X9504527Y-4942230D01*
X9510572Y-4954524D01*
X9518192Y-4965903D01*
X9527235Y-4976164D01*
X9537496Y-4985207D01*
X9548876Y-4992827D01*
X9561169Y-4998872D01*
X9574123Y-5003241D01*
X9587534Y-5005933D01*
G37*
G36*
X10109200Y-5006848D02*
G01*
X10122865Y-5005933D01*
X10136276Y-5003241D01*
X10149230Y-4998872D01*
X10161524Y-4992827D01*
X10172903Y-4985207D01*
X10183164Y-4976164D01*
X10192207Y-4965903D01*
X10199827Y-4954524D01*
X10205872Y-4942230D01*
X10210241Y-4929276D01*
X10212933Y-4915865D01*
X10213848Y-4902200D01*
X10212933Y-4888534D01*
X10210241Y-4875123D01*
X10205872Y-4862169D01*
X10199827Y-4849876D01*
X10192207Y-4838496D01*
X10183164Y-4828235D01*
X10172903Y-4819192D01*
X10161524Y-4811572D01*
X10149230Y-4805527D01*
X10136276Y-4801158D01*
X10122865Y-4798466D01*
X10109200Y-4797552D01*
X10095534Y-4798466D01*
X10082123Y-4801158D01*
X10069169Y-4805527D01*
X10056876Y-4811572D01*
X10045496Y-4819192D01*
X10035235Y-4828235D01*
X10026192Y-4838496D01*
X10018572Y-4849876D01*
X10012527Y-4862169D01*
X10008158Y-4875123D01*
X10005466Y-4888534D01*
X10004552Y-4902200D01*
X10005466Y-4915865D01*
X10008158Y-4929276D01*
X10012527Y-4942230D01*
X10018572Y-4954524D01*
X10026192Y-4965903D01*
X10035235Y-4976164D01*
X10045496Y-4985207D01*
X10056876Y-4992827D01*
X10069169Y-4998872D01*
X10082123Y-5003241D01*
X10095534Y-5005933D01*
G37*
G36*
X9093200Y-5006848D02*
G01*
X9106865Y-5005933D01*
X9120276Y-5003241D01*
X9133230Y-4998872D01*
X9145524Y-4992827D01*
X9156903Y-4985207D01*
X9167164Y-4976164D01*
X9176207Y-4965903D01*
X9183827Y-4954524D01*
X9189872Y-4942230D01*
X9194241Y-4929276D01*
X9196933Y-4915865D01*
X9197848Y-4902200D01*
X9196933Y-4888534D01*
X9194241Y-4875123D01*
X9189872Y-4862169D01*
X9183827Y-4849876D01*
X9176207Y-4838496D01*
X9167164Y-4828235D01*
X9156903Y-4819192D01*
X9145524Y-4811572D01*
X9133230Y-4805527D01*
X9120276Y-4801158D01*
X9106865Y-4798466D01*
X9093200Y-4797552D01*
X9079534Y-4798466D01*
X9066123Y-4801158D01*
X9053169Y-4805527D01*
X9040876Y-4811572D01*
X9029496Y-4819192D01*
X9019235Y-4828235D01*
X9010192Y-4838496D01*
X9002572Y-4849876D01*
X8996527Y-4862169D01*
X8992158Y-4875123D01*
X8989466Y-4888534D01*
X8988552Y-4902200D01*
X8989466Y-4915865D01*
X8992158Y-4929276D01*
X8996527Y-4942230D01*
X9002572Y-4954524D01*
X9010192Y-4965903D01*
X9019235Y-4976164D01*
X9029496Y-4985207D01*
X9040876Y-4992827D01*
X9053169Y-4998872D01*
X9066123Y-5003241D01*
X9079534Y-5005933D01*
G37*
G36*
X9855200Y-4752848D02*
G01*
X9868865Y-4751933D01*
X9882276Y-4749241D01*
X9895230Y-4744872D01*
X9907524Y-4738827D01*
X9918903Y-4731207D01*
X9929164Y-4722164D01*
X9938207Y-4711903D01*
X9945827Y-4700524D01*
X9951872Y-4688230D01*
X9956241Y-4675276D01*
X9958933Y-4661865D01*
X9959848Y-4648200D01*
X9958933Y-4634534D01*
X9956241Y-4621123D01*
X9951872Y-4608169D01*
X9945827Y-4595876D01*
X9938207Y-4584496D01*
X9929164Y-4574235D01*
X9918903Y-4565192D01*
X9907524Y-4557572D01*
X9895230Y-4551527D01*
X9882276Y-4547158D01*
X9868865Y-4544466D01*
X9855200Y-4543552D01*
X9841534Y-4544466D01*
X9828123Y-4547158D01*
X9815169Y-4551527D01*
X9802876Y-4557572D01*
X9791496Y-4565192D01*
X9781235Y-4574235D01*
X9772192Y-4584496D01*
X9764572Y-4595876D01*
X9758527Y-4608169D01*
X9754158Y-4621123D01*
X9751466Y-4634534D01*
X9750552Y-4648200D01*
X9751466Y-4661865D01*
X9754158Y-4675276D01*
X9758527Y-4688230D01*
X9764572Y-4700524D01*
X9772192Y-4711903D01*
X9781235Y-4722164D01*
X9791496Y-4731207D01*
X9802876Y-4738827D01*
X9815169Y-4744872D01*
X9828123Y-4749241D01*
X9841534Y-4751933D01*
G37*
G36*
X9601200Y-4752848D02*
G01*
X9614865Y-4751933D01*
X9628276Y-4749241D01*
X9641230Y-4744872D01*
X9653524Y-4738827D01*
X9664903Y-4731207D01*
X9675164Y-4722164D01*
X9684207Y-4711903D01*
X9691827Y-4700524D01*
X9697872Y-4688230D01*
X9702241Y-4675276D01*
X9704933Y-4661865D01*
X9705848Y-4648200D01*
X9704933Y-4634534D01*
X9702241Y-4621123D01*
X9697872Y-4608169D01*
X9691827Y-4595876D01*
X9684207Y-4584496D01*
X9675164Y-4574235D01*
X9664903Y-4565192D01*
X9653524Y-4557572D01*
X9641230Y-4551527D01*
X9628276Y-4547158D01*
X9614865Y-4544466D01*
X9601200Y-4543552D01*
X9587534Y-4544466D01*
X9574123Y-4547158D01*
X9561169Y-4551527D01*
X9548876Y-4557572D01*
X9537496Y-4565192D01*
X9527235Y-4574235D01*
X9518192Y-4584496D01*
X9510572Y-4595876D01*
X9504527Y-4608169D01*
X9500158Y-4621123D01*
X9497466Y-4634534D01*
X9496552Y-4648200D01*
X9497466Y-4661865D01*
X9500158Y-4675276D01*
X9504527Y-4688230D01*
X9510572Y-4700524D01*
X9518192Y-4711903D01*
X9527235Y-4722164D01*
X9537496Y-4731207D01*
X9548876Y-4738827D01*
X9561169Y-4744872D01*
X9574123Y-4749241D01*
X9587534Y-4751933D01*
G37*
G36*
X9347200Y-4752848D02*
G01*
X9360865Y-4751933D01*
X9374276Y-4749241D01*
X9387230Y-4744872D01*
X9399524Y-4738827D01*
X9410903Y-4731207D01*
X9421164Y-4722164D01*
X9430207Y-4711903D01*
X9437827Y-4700524D01*
X9443872Y-4688230D01*
X9448241Y-4675276D01*
X9450933Y-4661865D01*
X9451848Y-4648200D01*
X9450933Y-4634534D01*
X9448241Y-4621123D01*
X9443872Y-4608169D01*
X9437827Y-4595876D01*
X9430207Y-4584496D01*
X9421164Y-4574235D01*
X9410903Y-4565192D01*
X9399524Y-4557572D01*
X9387230Y-4551527D01*
X9374276Y-4547158D01*
X9360865Y-4544466D01*
X9347200Y-4543552D01*
X9333534Y-4544466D01*
X9320123Y-4547158D01*
X9307169Y-4551527D01*
X9294876Y-4557572D01*
X9283496Y-4565192D01*
X9273235Y-4574235D01*
X9264192Y-4584496D01*
X9256572Y-4595876D01*
X9250527Y-4608169D01*
X9246158Y-4621123D01*
X9243466Y-4634534D01*
X9242552Y-4648200D01*
X9243466Y-4661865D01*
X9246158Y-4675276D01*
X9250527Y-4688230D01*
X9256572Y-4700524D01*
X9264192Y-4711903D01*
X9273235Y-4722164D01*
X9283496Y-4731207D01*
X9294876Y-4738827D01*
X9307169Y-4744872D01*
X9320123Y-4749241D01*
X9333534Y-4751933D01*
G37*
G36*
X10109200Y-4752848D02*
G01*
X10122865Y-4751933D01*
X10136276Y-4749241D01*
X10149230Y-4744872D01*
X10161524Y-4738827D01*
X10172903Y-4731207D01*
X10183164Y-4722164D01*
X10192207Y-4711903D01*
X10199827Y-4700524D01*
X10205872Y-4688230D01*
X10210241Y-4675276D01*
X10212933Y-4661865D01*
X10213848Y-4648200D01*
X10212933Y-4634534D01*
X10210241Y-4621123D01*
X10205872Y-4608169D01*
X10199827Y-4595876D01*
X10192207Y-4584496D01*
X10183164Y-4574235D01*
X10172903Y-4565192D01*
X10161524Y-4557572D01*
X10149230Y-4551527D01*
X10136276Y-4547158D01*
X10122865Y-4544466D01*
X10109200Y-4543552D01*
X10095534Y-4544466D01*
X10082123Y-4547158D01*
X10069169Y-4551527D01*
X10056876Y-4557572D01*
X10045496Y-4565192D01*
X10035235Y-4574235D01*
X10026192Y-4584496D01*
X10018572Y-4595876D01*
X10012527Y-4608169D01*
X10008158Y-4621123D01*
X10005466Y-4634534D01*
X10004552Y-4648200D01*
X10005466Y-4661865D01*
X10008158Y-4675276D01*
X10012527Y-4688230D01*
X10018572Y-4700524D01*
X10026192Y-4711903D01*
X10035235Y-4722164D01*
X10045496Y-4731207D01*
X10056876Y-4738827D01*
X10069169Y-4744872D01*
X10082123Y-4749241D01*
X10095534Y-4751933D01*
G37*
G36*
X9887458Y-4179468D02*
G01*
X9887458Y-4120337D01*
X9835388Y-4120337D01*
X9837572Y-4126890D01*
X9843516Y-4138828D01*
X9850932Y-4149953D01*
X9859721Y-4159961D01*
X9869779Y-4168800D01*
X9880854Y-4176217D01*
G37*
G36*
X9976358Y-4179468D02*
G01*
X9982962Y-4176217D01*
X9994036Y-4168800D01*
X10004094Y-4159961D01*
X10012883Y-4149953D01*
X10020300Y-4138828D01*
X10026243Y-4126890D01*
X10028428Y-4120337D01*
X9976358Y-4120337D01*
G37*
G36*
X9835388Y-4007662D02*
G01*
X9887458Y-4007662D01*
X9887458Y-3948531D01*
X9880854Y-3951782D01*
X9869779Y-3959199D01*
X9859721Y-3968038D01*
X9850932Y-3978046D01*
X9843516Y-3989171D01*
X9837572Y-4001109D01*
G37*
G36*
X9976358Y-4007662D02*
G01*
X10028428Y-4007662D01*
X10026243Y-4001109D01*
X10020300Y-3989171D01*
X10012883Y-3978046D01*
X10004094Y-3968038D01*
X9994036Y-3959199D01*
X9982962Y-3951782D01*
X9976358Y-3948531D01*
G37*
G36*
X5749950Y-3134207D02*
G01*
X5749950Y-3089300D01*
X5704992Y-3089300D01*
X5706211Y-3092043D01*
X5712968Y-3103219D01*
X5721248Y-3113328D01*
X5730798Y-3122269D01*
X5741466Y-3129788D01*
G37*
G36*
X5832500Y-3134207D02*
G01*
X5840933Y-3129788D01*
X5851601Y-3122269D01*
X5861151Y-3113328D01*
X5869432Y-3103219D01*
X5876188Y-3092043D01*
X5877407Y-3089300D01*
X5832500Y-3089300D01*
G37*
G36*
X9423400Y-2234082D02*
G01*
X9436709Y-2233218D01*
X9449816Y-2230628D01*
X9462465Y-2226310D01*
X9474454Y-2220417D01*
X9485528Y-2213000D01*
X9495586Y-2204161D01*
X9504375Y-2194153D01*
X9511792Y-2183028D01*
X9517735Y-2171090D01*
X9522002Y-2158441D01*
X9524593Y-2145334D01*
X9525508Y-2131669D01*
X9525508Y-2084730D01*
X9524593Y-2071065D01*
X9522002Y-2057958D01*
X9517735Y-2045309D01*
X9511792Y-2033371D01*
X9504375Y-2022246D01*
X9495586Y-2012238D01*
X9485528Y-2003399D01*
X9474454Y-1995982D01*
X9462465Y-1990089D01*
X9449816Y-1985772D01*
X9436709Y-1983181D01*
X9423400Y-1982317D01*
X9410090Y-1983181D01*
X9396984Y-1985772D01*
X9384334Y-1990089D01*
X9372346Y-1995982D01*
X9361271Y-2003399D01*
X9351213Y-2012238D01*
X9342424Y-2022246D01*
X9335008Y-2033371D01*
X9329064Y-2045309D01*
X9324797Y-2057958D01*
X9322206Y-2071065D01*
X9321292Y-2084730D01*
X9321292Y-2131669D01*
X9322206Y-2145334D01*
X9324797Y-2158441D01*
X9329064Y-2171090D01*
X9335008Y-2183028D01*
X9342424Y-2194153D01*
X9351213Y-2204161D01*
X9361271Y-2213000D01*
X9372346Y-2220417D01*
X9384334Y-2226310D01*
X9396984Y-2230628D01*
X9410090Y-2233218D01*
G37*
G36*
X9677400Y-2234082D02*
G01*
X9690709Y-2233218D01*
X9703816Y-2230628D01*
X9716465Y-2226310D01*
X9728454Y-2220417D01*
X9739528Y-2213000D01*
X9749586Y-2204161D01*
X9758375Y-2194153D01*
X9765792Y-2183028D01*
X9771735Y-2171090D01*
X9776002Y-2158441D01*
X9778593Y-2145334D01*
X9779508Y-2131669D01*
X9779508Y-2084730D01*
X9778593Y-2071065D01*
X9776002Y-2057958D01*
X9771735Y-2045309D01*
X9765792Y-2033371D01*
X9758375Y-2022246D01*
X9749586Y-2012238D01*
X9739528Y-2003399D01*
X9728454Y-1995982D01*
X9716465Y-1990089D01*
X9703816Y-1985772D01*
X9690709Y-1983181D01*
X9677400Y-1982317D01*
X9664090Y-1983181D01*
X9650984Y-1985772D01*
X9638334Y-1990089D01*
X9626346Y-1995982D01*
X9615271Y-2003399D01*
X9605213Y-2012238D01*
X9596424Y-2022246D01*
X9589008Y-2033371D01*
X9583064Y-2045309D01*
X9578797Y-2057958D01*
X9576206Y-2071065D01*
X9575292Y-2084730D01*
X9575292Y-2131669D01*
X9576206Y-2145334D01*
X9578797Y-2158441D01*
X9583064Y-2171090D01*
X9589008Y-2183028D01*
X9596424Y-2194153D01*
X9605213Y-2204161D01*
X9615271Y-2213000D01*
X9626346Y-2220417D01*
X9638334Y-2226310D01*
X9650984Y-2230628D01*
X9664090Y-2233218D01*
G37*
G36*
X9975850Y-2223668D02*
G01*
X9982454Y-2220417D01*
X9993528Y-2213000D01*
X10003586Y-2204161D01*
X10012375Y-2194153D01*
X10019792Y-2183028D01*
X10025735Y-2171090D01*
X10027920Y-2164537D01*
X9975850Y-2164537D01*
G37*
G36*
X9886950Y-2223668D02*
G01*
X9886950Y-2164537D01*
X9834880Y-2164537D01*
X9837064Y-2171090D01*
X9843008Y-2183028D01*
X9850424Y-2194153D01*
X9859213Y-2204161D01*
X9869271Y-2213000D01*
X9880346Y-2220417D01*
G37*
G36*
X9975850Y-2051862D02*
G01*
X10027920Y-2051862D01*
X10025735Y-2045309D01*
X10019792Y-2033371D01*
X10012375Y-2022246D01*
X10003586Y-2012238D01*
X9993528Y-2003399D01*
X9982454Y-1995982D01*
X9975850Y-1992731D01*
G37*
G36*
X9834880Y-2051862D02*
G01*
X9886950Y-2051862D01*
X9886950Y-1992731D01*
X9880346Y-1995982D01*
X9869271Y-2003399D01*
X9859213Y-2012238D01*
X9850424Y-2022246D01*
X9843008Y-2033371D01*
X9837064Y-2045309D01*
G37*
G36*
X9931400Y-710082D02*
G01*
X9944709Y-709218D01*
X9957816Y-706628D01*
X9970465Y-702310D01*
X9982454Y-696417D01*
X9993528Y-689000D01*
X10003586Y-680161D01*
X10012375Y-670153D01*
X10019792Y-659028D01*
X10025735Y-647090D01*
X10030002Y-634441D01*
X10032593Y-621334D01*
X10033508Y-607669D01*
X10033508Y-560730D01*
X10032593Y-547065D01*
X10030002Y-533958D01*
X10025735Y-521309D01*
X10019792Y-509371D01*
X10012375Y-498246D01*
X10003586Y-488238D01*
X9993528Y-479399D01*
X9982454Y-471982D01*
X9970465Y-466090D01*
X9957816Y-461772D01*
X9944709Y-459181D01*
X9931400Y-458317D01*
X9918090Y-459181D01*
X9904984Y-461772D01*
X9892334Y-466090D01*
X9880346Y-471982D01*
X9869271Y-479399D01*
X9859213Y-488238D01*
X9850424Y-498246D01*
X9843008Y-509371D01*
X9837064Y-521309D01*
X9832797Y-533958D01*
X9830206Y-547065D01*
X9829292Y-560730D01*
X9829292Y-607669D01*
X9830206Y-621334D01*
X9832797Y-634441D01*
X9837064Y-647090D01*
X9843008Y-659028D01*
X9850424Y-670153D01*
X9859213Y-680161D01*
X9869271Y-689000D01*
X9880346Y-696417D01*
X9892334Y-702310D01*
X9904984Y-706628D01*
X9918090Y-709218D01*
G37*
G36*
X9423400Y-710082D02*
G01*
X9436709Y-709218D01*
X9449816Y-706628D01*
X9462465Y-702310D01*
X9474454Y-696417D01*
X9485528Y-689000D01*
X9495586Y-680161D01*
X9504375Y-670153D01*
X9511792Y-659028D01*
X9517735Y-647090D01*
X9522002Y-634441D01*
X9524593Y-621334D01*
X9525508Y-607669D01*
X9525508Y-560730D01*
X9524593Y-547065D01*
X9522002Y-533958D01*
X9517735Y-521309D01*
X9511792Y-509371D01*
X9504375Y-498246D01*
X9495586Y-488238D01*
X9485528Y-479399D01*
X9474454Y-471982D01*
X9462465Y-466090D01*
X9449816Y-461772D01*
X9436709Y-459181D01*
X9423400Y-458317D01*
X9410090Y-459181D01*
X9396984Y-461772D01*
X9384334Y-466090D01*
X9372346Y-471982D01*
X9361271Y-479399D01*
X9351213Y-488238D01*
X9342424Y-498246D01*
X9335008Y-509371D01*
X9329064Y-521309D01*
X9324797Y-533958D01*
X9322206Y-547065D01*
X9321292Y-560730D01*
X9321292Y-607669D01*
X9322206Y-621334D01*
X9324797Y-634441D01*
X9329064Y-647090D01*
X9335008Y-659028D01*
X9342424Y-670153D01*
X9351213Y-680161D01*
X9361271Y-689000D01*
X9372346Y-696417D01*
X9384334Y-702310D01*
X9396984Y-706628D01*
X9410090Y-709218D01*
G37*
G36*
X8915400Y-710082D02*
G01*
X8928709Y-709218D01*
X8941816Y-706628D01*
X8954465Y-702310D01*
X8966454Y-696417D01*
X8977528Y-689000D01*
X8987586Y-680161D01*
X8996375Y-670153D01*
X9003792Y-659028D01*
X9009735Y-647090D01*
X9014002Y-634441D01*
X9016593Y-621334D01*
X9017508Y-607669D01*
X9017508Y-560730D01*
X9016593Y-547065D01*
X9014002Y-533958D01*
X9009735Y-521309D01*
X9003792Y-509371D01*
X8996375Y-498246D01*
X8987586Y-488238D01*
X8977528Y-479399D01*
X8966454Y-471982D01*
X8954465Y-466090D01*
X8941816Y-461772D01*
X8928709Y-459181D01*
X8915400Y-458317D01*
X8902090Y-459181D01*
X8888984Y-461772D01*
X8876334Y-466090D01*
X8864346Y-471982D01*
X8853271Y-479399D01*
X8843213Y-488238D01*
X8834424Y-498246D01*
X8827008Y-509371D01*
X8821064Y-521309D01*
X8816797Y-533958D01*
X8814206Y-547065D01*
X8813292Y-560730D01*
X8813292Y-607669D01*
X8814206Y-621334D01*
X8816797Y-634441D01*
X8821064Y-647090D01*
X8827008Y-659028D01*
X8834424Y-670153D01*
X8843213Y-680161D01*
X8853271Y-689000D01*
X8864346Y-696417D01*
X8876334Y-702310D01*
X8888984Y-706628D01*
X8902090Y-709218D01*
G37*
G36*
X9169400Y-710082D02*
G01*
X9182709Y-709218D01*
X9195816Y-706628D01*
X9208465Y-702310D01*
X9220454Y-696417D01*
X9231528Y-689000D01*
X9241586Y-680161D01*
X9250375Y-670153D01*
X9257792Y-659028D01*
X9263735Y-647090D01*
X9268002Y-634441D01*
X9270593Y-621334D01*
X9271508Y-607669D01*
X9271508Y-560730D01*
X9270593Y-547065D01*
X9268002Y-533958D01*
X9263735Y-521309D01*
X9257792Y-509371D01*
X9250375Y-498246D01*
X9241586Y-488238D01*
X9231528Y-479399D01*
X9220454Y-471982D01*
X9208465Y-466090D01*
X9195816Y-461772D01*
X9182709Y-459181D01*
X9169400Y-458317D01*
X9156090Y-459181D01*
X9142984Y-461772D01*
X9130334Y-466090D01*
X9118346Y-471982D01*
X9107271Y-479399D01*
X9097213Y-488238D01*
X9088424Y-498246D01*
X9081008Y-509371D01*
X9075064Y-521309D01*
X9070797Y-533958D01*
X9068206Y-547065D01*
X9067292Y-560730D01*
X9067292Y-607669D01*
X9068206Y-621334D01*
X9070797Y-634441D01*
X9075064Y-647090D01*
X9081008Y-659028D01*
X9088424Y-670153D01*
X9097213Y-680161D01*
X9107271Y-689000D01*
X9118346Y-696417D01*
X9130334Y-702310D01*
X9142984Y-706628D01*
X9156090Y-709218D01*
G37*
G36*
X9677400Y-710082D02*
G01*
X9690709Y-709218D01*
X9703816Y-706628D01*
X9716465Y-702310D01*
X9728454Y-696417D01*
X9739528Y-689000D01*
X9749586Y-680161D01*
X9758375Y-670153D01*
X9765792Y-659028D01*
X9771735Y-647090D01*
X9776002Y-634441D01*
X9778593Y-621334D01*
X9779508Y-607669D01*
X9779508Y-560730D01*
X9778593Y-547065D01*
X9776002Y-533958D01*
X9771735Y-521309D01*
X9765792Y-509371D01*
X9758375Y-498246D01*
X9749586Y-488238D01*
X9739528Y-479399D01*
X9728454Y-471982D01*
X9716465Y-466090D01*
X9703816Y-461772D01*
X9690709Y-459181D01*
X9677400Y-458317D01*
X9664090Y-459181D01*
X9650984Y-461772D01*
X9638334Y-466090D01*
X9626346Y-471982D01*
X9615271Y-479399D01*
X9605213Y-488238D01*
X9596424Y-498246D01*
X9589008Y-509371D01*
X9583064Y-521309D01*
X9578797Y-533958D01*
X9576206Y-547065D01*
X9575292Y-560730D01*
X9575292Y-607669D01*
X9576206Y-621334D01*
X9578797Y-634441D01*
X9583064Y-647090D01*
X9589008Y-659028D01*
X9596424Y-670153D01*
X9605213Y-680161D01*
X9615271Y-689000D01*
X9626346Y-696417D01*
X9638334Y-702310D01*
X9650984Y-706628D01*
X9664090Y-709218D01*
G37*
G36*
X8153400Y-710082D02*
G01*
X8166709Y-709218D01*
X8179816Y-706628D01*
X8192465Y-702310D01*
X8204453Y-696417D01*
X8215528Y-689000D01*
X8225586Y-680161D01*
X8234375Y-670153D01*
X8241792Y-659028D01*
X8247735Y-647090D01*
X8252002Y-634441D01*
X8254593Y-621334D01*
X8255508Y-607669D01*
X8255508Y-560730D01*
X8254593Y-547065D01*
X8252002Y-533958D01*
X8247735Y-521309D01*
X8241792Y-509371D01*
X8234375Y-498246D01*
X8225586Y-488238D01*
X8215528Y-479399D01*
X8204453Y-471982D01*
X8192465Y-466090D01*
X8179816Y-461772D01*
X8166709Y-459181D01*
X8153400Y-458317D01*
X8140090Y-459181D01*
X8126984Y-461772D01*
X8114334Y-466090D01*
X8102346Y-471982D01*
X8091271Y-479399D01*
X8081213Y-488238D01*
X8072424Y-498246D01*
X8065008Y-509371D01*
X8059064Y-521309D01*
X8054797Y-533958D01*
X8052206Y-547065D01*
X8051292Y-560730D01*
X8051292Y-607669D01*
X8052206Y-621334D01*
X8054797Y-634441D01*
X8059064Y-647090D01*
X8065008Y-659028D01*
X8072424Y-670153D01*
X8081213Y-680161D01*
X8091271Y-689000D01*
X8102346Y-696417D01*
X8114334Y-702310D01*
X8126984Y-706628D01*
X8140090Y-709218D01*
G37*
G36*
X7645400Y-710082D02*
G01*
X7658709Y-709218D01*
X7671816Y-706628D01*
X7684465Y-702310D01*
X7696453Y-696417D01*
X7707528Y-689000D01*
X7717586Y-680161D01*
X7726375Y-670153D01*
X7733792Y-659028D01*
X7739735Y-647090D01*
X7744002Y-634441D01*
X7746593Y-621334D01*
X7747508Y-607669D01*
X7747508Y-560730D01*
X7746593Y-547065D01*
X7744002Y-533958D01*
X7739735Y-521309D01*
X7733792Y-509371D01*
X7726375Y-498246D01*
X7717586Y-488238D01*
X7707528Y-479399D01*
X7696453Y-471982D01*
X7684465Y-466090D01*
X7671816Y-461772D01*
X7658709Y-459181D01*
X7645400Y-458317D01*
X7632090Y-459181D01*
X7618984Y-461772D01*
X7606334Y-466090D01*
X7594346Y-471982D01*
X7583271Y-479399D01*
X7573213Y-488238D01*
X7564424Y-498246D01*
X7557008Y-509371D01*
X7551064Y-521309D01*
X7546797Y-533958D01*
X7544206Y-547065D01*
X7543292Y-560730D01*
X7543292Y-607669D01*
X7544206Y-621334D01*
X7546797Y-634441D01*
X7551064Y-647090D01*
X7557008Y-659028D01*
X7564424Y-670153D01*
X7573213Y-680161D01*
X7583271Y-689000D01*
X7594346Y-696417D01*
X7606334Y-702310D01*
X7618984Y-706628D01*
X7632090Y-709218D01*
G37*
G36*
X7899400Y-710082D02*
G01*
X7912709Y-709218D01*
X7925816Y-706628D01*
X7938465Y-702310D01*
X7950453Y-696417D01*
X7961528Y-689000D01*
X7971586Y-680161D01*
X7980375Y-670153D01*
X7987792Y-659028D01*
X7993735Y-647090D01*
X7998002Y-634441D01*
X8000593Y-621334D01*
X8001508Y-607669D01*
X8001508Y-560730D01*
X8000593Y-547065D01*
X7998002Y-533958D01*
X7993735Y-521309D01*
X7987792Y-509371D01*
X7980375Y-498246D01*
X7971586Y-488238D01*
X7961528Y-479399D01*
X7950453Y-471982D01*
X7938465Y-466090D01*
X7925816Y-461772D01*
X7912709Y-459181D01*
X7899400Y-458317D01*
X7886090Y-459181D01*
X7872984Y-461772D01*
X7860334Y-466090D01*
X7848346Y-471982D01*
X7837271Y-479399D01*
X7827213Y-488238D01*
X7818424Y-498246D01*
X7811008Y-509371D01*
X7805064Y-521309D01*
X7800797Y-533958D01*
X7798206Y-547065D01*
X7797292Y-560730D01*
X7797292Y-607669D01*
X7798206Y-621334D01*
X7800797Y-634441D01*
X7805064Y-647090D01*
X7811008Y-659028D01*
X7818424Y-670153D01*
X7827213Y-680161D01*
X7837271Y-689000D01*
X7848346Y-696417D01*
X7860334Y-702310D01*
X7872984Y-706628D01*
X7886090Y-709218D01*
G37*
G36*
X8407400Y-710082D02*
G01*
X8420709Y-709218D01*
X8433816Y-706628D01*
X8446465Y-702310D01*
X8458454Y-696417D01*
X8469528Y-689000D01*
X8479586Y-680161D01*
X8488375Y-670153D01*
X8495792Y-659028D01*
X8501735Y-647090D01*
X8506002Y-634441D01*
X8508593Y-621334D01*
X8509508Y-607669D01*
X8509508Y-560730D01*
X8508593Y-547065D01*
X8506002Y-533958D01*
X8501735Y-521309D01*
X8495792Y-509371D01*
X8488375Y-498246D01*
X8479586Y-488238D01*
X8469528Y-479399D01*
X8458454Y-471982D01*
X8446465Y-466090D01*
X8433816Y-461772D01*
X8420709Y-459181D01*
X8407400Y-458317D01*
X8394090Y-459181D01*
X8380984Y-461772D01*
X8368334Y-466090D01*
X8356346Y-471982D01*
X8345271Y-479399D01*
X8335213Y-488238D01*
X8326424Y-498246D01*
X8319008Y-509371D01*
X8313064Y-521309D01*
X8308797Y-533958D01*
X8306206Y-547065D01*
X8305292Y-560730D01*
X8305292Y-607669D01*
X8306206Y-621334D01*
X8308797Y-634441D01*
X8313064Y-647090D01*
X8319008Y-659028D01*
X8326424Y-670153D01*
X8335213Y-680161D01*
X8345271Y-689000D01*
X8356346Y-696417D01*
X8368334Y-702310D01*
X8380984Y-706628D01*
X8394090Y-709218D01*
G37*
G36*
X7391400Y-710082D02*
G01*
X7404709Y-709218D01*
X7417816Y-706628D01*
X7430465Y-702310D01*
X7442453Y-696417D01*
X7453528Y-689000D01*
X7463586Y-680161D01*
X7472375Y-670153D01*
X7479792Y-659028D01*
X7485735Y-647090D01*
X7490002Y-634441D01*
X7492593Y-621334D01*
X7493508Y-607669D01*
X7493508Y-560730D01*
X7492593Y-547065D01*
X7490002Y-533958D01*
X7485735Y-521309D01*
X7479792Y-509371D01*
X7472375Y-498246D01*
X7463586Y-488238D01*
X7453528Y-479399D01*
X7442453Y-471982D01*
X7430465Y-466090D01*
X7417816Y-461772D01*
X7404709Y-459181D01*
X7391400Y-458317D01*
X7378090Y-459181D01*
X7364984Y-461772D01*
X7352334Y-466090D01*
X7340346Y-471982D01*
X7329271Y-479399D01*
X7319213Y-488238D01*
X7310424Y-498246D01*
X7303008Y-509371D01*
X7297064Y-521309D01*
X7292797Y-533958D01*
X7290206Y-547065D01*
X7289292Y-560730D01*
X7289292Y-607669D01*
X7290206Y-621334D01*
X7292797Y-634441D01*
X7297064Y-647090D01*
X7303008Y-659028D01*
X7310424Y-670153D01*
X7319213Y-680161D01*
X7329271Y-689000D01*
X7340346Y-696417D01*
X7352334Y-702310D01*
X7364984Y-706628D01*
X7378090Y-709218D01*
G37*

%LPD*%
G36*
X391668Y-5239512D02*
G01*
X387756Y-5238699D01*
X384454Y-5236514D01*
X382270Y-5233212D01*
X381508Y-5229352D01*
X381508Y-5017008D01*
X382270Y-5013096D01*
X384454Y-5009845D01*
X387756Y-5007610D01*
X391668Y-5006848D01*
X535381Y-5006848D01*
X541680Y-5006136D01*
X547166Y-5004206D01*
X552043Y-5001158D01*
X556158Y-4997043D01*
X559206Y-4992166D01*
X561136Y-4986680D01*
X561848Y-4980381D01*
X561848Y-4824018D01*
X561136Y-4817719D01*
X559206Y-4812233D01*
X556158Y-4807356D01*
X552043Y-4803241D01*
X547522Y-4800396D01*
X544880Y-4797958D01*
X543204Y-4794758D01*
X542798Y-4791151D01*
X543712Y-4787595D01*
X545744Y-4784648D01*
X595731Y-4734610D01*
X600862Y-4728413D01*
X604418Y-4721707D01*
X606602Y-4714494D01*
X606856Y-4712360D01*
X608076Y-4708398D01*
X610768Y-4705299D01*
X614476Y-4703470D01*
X618591Y-4703318D01*
X622452Y-4704791D01*
X625398Y-4707686D01*
X628192Y-4711903D01*
X637235Y-4722164D01*
X647496Y-4731207D01*
X658876Y-4738827D01*
X671169Y-4744872D01*
X684123Y-4749241D01*
X697534Y-4751933D01*
X711200Y-4752848D01*
X724865Y-4751933D01*
X738276Y-4749241D01*
X751230Y-4744872D01*
X763524Y-4738827D01*
X774903Y-4731207D01*
X785164Y-4722164D01*
X794207Y-4711903D01*
X801827Y-4700524D01*
X807872Y-4688230D01*
X812241Y-4675276D01*
X814933Y-4661865D01*
X815848Y-4648200D01*
X814933Y-4634534D01*
X812241Y-4621123D01*
X807872Y-4608169D01*
X801827Y-4595876D01*
X794207Y-4584496D01*
X785164Y-4574235D01*
X774903Y-4565192D01*
X763524Y-4557572D01*
X751230Y-4551527D01*
X738276Y-4547158D01*
X724865Y-4544466D01*
X711200Y-4543552D01*
X697534Y-4544466D01*
X684123Y-4547158D01*
X671169Y-4551527D01*
X658876Y-4557572D01*
X647496Y-4565192D01*
X637235Y-4574235D01*
X628192Y-4584496D01*
X626008Y-4587748D01*
X622960Y-4590745D01*
X618896Y-4592167D01*
X614629Y-4591812D01*
X610870Y-4589729D01*
X608330Y-4586325D01*
X607415Y-4582109D01*
X607415Y-4338878D01*
X606602Y-4330852D01*
X604418Y-4323638D01*
X600862Y-4316984D01*
X595731Y-4310735D01*
X529894Y-4244898D01*
X527710Y-4241596D01*
X526948Y-4236974D01*
X527608Y-4233265D01*
X529640Y-4230065D01*
X532688Y-4227830D01*
X536346Y-4226814D01*
X540054Y-4227271D01*
X543407Y-4228998D01*
X546150Y-4231182D01*
X558292Y-4238548D01*
X560730Y-4239666D01*
X560730Y-4189120D01*
X537108Y-4189120D01*
X533196Y-4188307D01*
X529894Y-4186123D01*
X527710Y-4182821D01*
X526948Y-4178960D01*
X526948Y-4101541D01*
X527710Y-4097680D01*
X529894Y-4094378D01*
X533196Y-4092194D01*
X537108Y-4091381D01*
X560730Y-4091381D01*
X560730Y-4040835D01*
X558292Y-4041952D01*
X546150Y-4049318D01*
X543407Y-4051503D01*
X540054Y-4053230D01*
X536346Y-4053687D01*
X532688Y-4052671D01*
X529640Y-4050436D01*
X527608Y-4047236D01*
X526948Y-4043527D01*
X526948Y-3982974D01*
X527608Y-3979265D01*
X529640Y-3976065D01*
X532688Y-3973829D01*
X536346Y-3972814D01*
X540054Y-3973271D01*
X543407Y-3974998D01*
X546150Y-3977182D01*
X558292Y-3984548D01*
X571296Y-3990340D01*
X584911Y-3994353D01*
X598932Y-3996639D01*
X613156Y-3997096D01*
X627278Y-3995724D01*
X641146Y-3992575D01*
X654456Y-3987647D01*
X667054Y-3981094D01*
X678738Y-3972966D01*
X689254Y-3963415D01*
X698449Y-3952595D01*
X706221Y-3940657D01*
X712368Y-3927856D01*
X716838Y-3914394D01*
X719582Y-3900424D01*
X720496Y-3886250D01*
X719582Y-3872077D01*
X716838Y-3858107D01*
X712368Y-3844645D01*
X706221Y-3831844D01*
X698449Y-3819906D01*
X689254Y-3809085D01*
X678738Y-3799535D01*
X667054Y-3791407D01*
X654456Y-3784854D01*
X641146Y-3779926D01*
X627278Y-3776776D01*
X613156Y-3775405D01*
X598932Y-3775862D01*
X584911Y-3778148D01*
X571296Y-3782212D01*
X558292Y-3787952D01*
X546150Y-3795318D01*
X543407Y-3797503D01*
X540054Y-3799230D01*
X536346Y-3799687D01*
X532688Y-3798671D01*
X529640Y-3796436D01*
X527608Y-3793236D01*
X526948Y-3789527D01*
X526948Y-3728974D01*
X527608Y-3725265D01*
X529640Y-3722065D01*
X532688Y-3719829D01*
X536346Y-3718814D01*
X540054Y-3719271D01*
X543407Y-3720998D01*
X546150Y-3723182D01*
X558292Y-3730548D01*
X571296Y-3736340D01*
X584911Y-3740353D01*
X598932Y-3742639D01*
X613156Y-3743096D01*
X627278Y-3741724D01*
X641146Y-3738575D01*
X654456Y-3733647D01*
X667054Y-3727094D01*
X678738Y-3718966D01*
X689254Y-3709415D01*
X698449Y-3698595D01*
X706221Y-3686657D01*
X711047Y-3676599D01*
X713282Y-3673551D01*
X716483Y-3671570D01*
X720191Y-3670858D01*
X881887Y-3670858D01*
X885748Y-3671620D01*
X889050Y-3673856D01*
X980998Y-3765753D01*
X983030Y-3768648D01*
X983945Y-3772052D01*
X984503Y-3778453D01*
X986993Y-3787749D01*
X991057Y-3796436D01*
X996543Y-3804310D01*
X1003350Y-3811066D01*
X1011174Y-3816604D01*
X1019911Y-3820668D01*
X1029157Y-3823157D01*
X1038758Y-3823970D01*
X1048308Y-3823157D01*
X1057554Y-3820668D01*
X1066292Y-3816604D01*
X1074115Y-3811066D01*
X1080922Y-3804310D01*
X1086408Y-3796436D01*
X1090472Y-3787749D01*
X1092962Y-3778453D01*
X1093825Y-3768902D01*
X1092962Y-3759352D01*
X1090472Y-3750056D01*
X1086408Y-3741369D01*
X1080922Y-3733495D01*
X1074115Y-3726738D01*
X1066292Y-3721201D01*
X1057554Y-3717137D01*
X1048308Y-3714648D01*
X1041908Y-3714089D01*
X1038504Y-3713175D01*
X1035608Y-3711194D01*
X929741Y-3605326D01*
X923493Y-3600196D01*
X916838Y-3596640D01*
X909624Y-3594455D01*
X901598Y-3593642D01*
X720191Y-3593642D01*
X716483Y-3592931D01*
X713282Y-3590950D01*
X711047Y-3587902D01*
X706221Y-3577844D01*
X698449Y-3565906D01*
X689254Y-3555085D01*
X678738Y-3545535D01*
X667054Y-3537407D01*
X654456Y-3530854D01*
X641146Y-3525926D01*
X627278Y-3522776D01*
X613156Y-3521405D01*
X598932Y-3521862D01*
X584911Y-3524148D01*
X571296Y-3528212D01*
X558292Y-3533952D01*
X546150Y-3541318D01*
X543407Y-3543503D01*
X540054Y-3545230D01*
X536346Y-3545687D01*
X532688Y-3544671D01*
X529640Y-3542436D01*
X527608Y-3539236D01*
X526948Y-3535527D01*
X526948Y-3474974D01*
X527608Y-3471265D01*
X529640Y-3468065D01*
X532688Y-3465829D01*
X536346Y-3464814D01*
X540054Y-3465271D01*
X543407Y-3466998D01*
X546150Y-3469182D01*
X558292Y-3476548D01*
X571296Y-3482340D01*
X584911Y-3486353D01*
X598932Y-3488639D01*
X613156Y-3489096D01*
X627278Y-3487724D01*
X641146Y-3484575D01*
X654456Y-3479647D01*
X667054Y-3473094D01*
X678738Y-3464966D01*
X689254Y-3455415D01*
X698449Y-3444595D01*
X706221Y-3432657D01*
X712368Y-3419856D01*
X716838Y-3406394D01*
X719582Y-3392424D01*
X720496Y-3378250D01*
X719582Y-3364077D01*
X716838Y-3350107D01*
X712368Y-3336645D01*
X706221Y-3323844D01*
X698449Y-3311906D01*
X693928Y-3306622D01*
X692048Y-3303270D01*
X691540Y-3299460D01*
X692454Y-3295751D01*
X694690Y-3292652D01*
X697890Y-3290570D01*
X701649Y-3289858D01*
X1279245Y-3289858D01*
X1283563Y-3290824D01*
X1287119Y-3293567D01*
X1289100Y-3297580D01*
X1289202Y-3302000D01*
X1287373Y-3306114D01*
X1278686Y-3317748D01*
X1271727Y-3330143D01*
X1266393Y-3343300D01*
X1262786Y-3357067D01*
X1260957Y-3371138D01*
X1260957Y-3385362D01*
X1262786Y-3399434D01*
X1266393Y-3413201D01*
X1271727Y-3426358D01*
X1278686Y-3438753D01*
X1287170Y-3450132D01*
X1297076Y-3460343D01*
X1308150Y-3469182D01*
X1320342Y-3476548D01*
X1333296Y-3482340D01*
X1346911Y-3486353D01*
X1360982Y-3488639D01*
X1375156Y-3489096D01*
X1389329Y-3487724D01*
X1403146Y-3484575D01*
X1416507Y-3479647D01*
X1429105Y-3473094D01*
X1440738Y-3464966D01*
X1451254Y-3455415D01*
X1460449Y-3444595D01*
X1468221Y-3432657D01*
X1474368Y-3419856D01*
X1478889Y-3406394D01*
X1481582Y-3392424D01*
X1482496Y-3378250D01*
X1481582Y-3364077D01*
X1478889Y-3350107D01*
X1474368Y-3336645D01*
X1468221Y-3323844D01*
X1460449Y-3311906D01*
X1455928Y-3306622D01*
X1454048Y-3303270D01*
X1453540Y-3299460D01*
X1454454Y-3295751D01*
X1456690Y-3292652D01*
X1459941Y-3290570D01*
X1463700Y-3289858D01*
X1775002Y-3289858D01*
X1779371Y-3290824D01*
X1782876Y-3293567D01*
X1784857Y-3297580D01*
X1784959Y-3302000D01*
X1783130Y-3306114D01*
X1774443Y-3317748D01*
X1767484Y-3330143D01*
X1762150Y-3343300D01*
X1758543Y-3357067D01*
X1756714Y-3371138D01*
X1756714Y-3385362D01*
X1758543Y-3399434D01*
X1762150Y-3413201D01*
X1767484Y-3426358D01*
X1774443Y-3438753D01*
X1782927Y-3450132D01*
X1792833Y-3460343D01*
X1803958Y-3469182D01*
X1816100Y-3476548D01*
X1829104Y-3482340D01*
X1842719Y-3486353D01*
X1856739Y-3488639D01*
X1870913Y-3489096D01*
X1885086Y-3487724D01*
X1898904Y-3484575D01*
X1912264Y-3479647D01*
X1924862Y-3473094D01*
X1936496Y-3464966D01*
X1947011Y-3455415D01*
X1956257Y-3444595D01*
X1963978Y-3432657D01*
X1970176Y-3419856D01*
X1974646Y-3406394D01*
X1977339Y-3392424D01*
X1978253Y-3378250D01*
X1977339Y-3364077D01*
X1974646Y-3350107D01*
X1970176Y-3336645D01*
X1963978Y-3323844D01*
X1956257Y-3311906D01*
X1951736Y-3306622D01*
X1949805Y-3303270D01*
X1949297Y-3299460D01*
X1950212Y-3295751D01*
X1952447Y-3292652D01*
X1955698Y-3290570D01*
X1959457Y-3289858D01*
X2247900Y-3289858D01*
X2255926Y-3289046D01*
X2263140Y-3286861D01*
X2269794Y-3283305D01*
X2276043Y-3278174D01*
X2578404Y-2975813D01*
X2581808Y-2973578D01*
X2585770Y-2972816D01*
X2604719Y-2978353D01*
X2618740Y-2980639D01*
X2632964Y-2981096D01*
X2647086Y-2979724D01*
X2660954Y-2976575D01*
X2674264Y-2971647D01*
X2686862Y-2965094D01*
X2698546Y-2956966D01*
X2709062Y-2947416D01*
X2718257Y-2936595D01*
X2726029Y-2924657D01*
X2732176Y-2911856D01*
X2736646Y-2898394D01*
X2739390Y-2884424D01*
X2740304Y-2870250D01*
X2739390Y-2856077D01*
X2736646Y-2842107D01*
X2732176Y-2828645D01*
X2726029Y-2815844D01*
X2718257Y-2803906D01*
X2709062Y-2793085D01*
X2698546Y-2783535D01*
X2686862Y-2775407D01*
X2674264Y-2768854D01*
X2660954Y-2763926D01*
X2647086Y-2760776D01*
X2632964Y-2759405D01*
X2618740Y-2759862D01*
X2604719Y-2762148D01*
X2591104Y-2766212D01*
X2578100Y-2771952D01*
X2565958Y-2779318D01*
X2554833Y-2788158D01*
X2544978Y-2798368D01*
X2536444Y-2809748D01*
X2529484Y-2822143D01*
X2524150Y-2835300D01*
X2520543Y-2849067D01*
X2518714Y-2863138D01*
X2518714Y-2877362D01*
X2520543Y-2891434D01*
X2524150Y-2905201D01*
X2526131Y-2910128D01*
X2526893Y-2913989D01*
X2526131Y-2917850D01*
X2523896Y-2921101D01*
X2235352Y-3209645D01*
X2232050Y-3211880D01*
X2228189Y-3212642D01*
X1959457Y-3212642D01*
X1955698Y-3211931D01*
X1952447Y-3209848D01*
X1950212Y-3206750D01*
X1949297Y-3203041D01*
X1949805Y-3199231D01*
X1951736Y-3195878D01*
X1956257Y-3190595D01*
X1963978Y-3178657D01*
X1970176Y-3165856D01*
X1974646Y-3152394D01*
X1977339Y-3138424D01*
X1978253Y-3124250D01*
X1977339Y-3110077D01*
X1974646Y-3096107D01*
X1970176Y-3082645D01*
X1963978Y-3069844D01*
X1956257Y-3057906D01*
X1947011Y-3047085D01*
X1936496Y-3037535D01*
X1924862Y-3029407D01*
X1912264Y-3022854D01*
X1898904Y-3017926D01*
X1885086Y-3014776D01*
X1870913Y-3013405D01*
X1856739Y-3013862D01*
X1842719Y-3016148D01*
X1829104Y-3020212D01*
X1816100Y-3025952D01*
X1803958Y-3033318D01*
X1792833Y-3042158D01*
X1782927Y-3052368D01*
X1774443Y-3063748D01*
X1767484Y-3076143D01*
X1762150Y-3089300D01*
X1758543Y-3103067D01*
X1756714Y-3117138D01*
X1756714Y-3131362D01*
X1758543Y-3145434D01*
X1762150Y-3159201D01*
X1767484Y-3172358D01*
X1774443Y-3184753D01*
X1783130Y-3196386D01*
X1784959Y-3200501D01*
X1784857Y-3204921D01*
X1782876Y-3208934D01*
X1779371Y-3211677D01*
X1775002Y-3212642D01*
X1463700Y-3212642D01*
X1459941Y-3211931D01*
X1456690Y-3209848D01*
X1454454Y-3206750D01*
X1453540Y-3203041D01*
X1454048Y-3199231D01*
X1455928Y-3195878D01*
X1460449Y-3190595D01*
X1468221Y-3178657D01*
X1474368Y-3165856D01*
X1478889Y-3152394D01*
X1481582Y-3138424D01*
X1482496Y-3124250D01*
X1481582Y-3110077D01*
X1478889Y-3096107D01*
X1474368Y-3082645D01*
X1468221Y-3069844D01*
X1460449Y-3057906D01*
X1451254Y-3047085D01*
X1440738Y-3037535D01*
X1429105Y-3029407D01*
X1416507Y-3022854D01*
X1403146Y-3017926D01*
X1389329Y-3014776D01*
X1375156Y-3013405D01*
X1360982Y-3013862D01*
X1346911Y-3016148D01*
X1333296Y-3020212D01*
X1320342Y-3025952D01*
X1308150Y-3033318D01*
X1297076Y-3042158D01*
X1287170Y-3052368D01*
X1278686Y-3063748D01*
X1271727Y-3076143D01*
X1266393Y-3089300D01*
X1262786Y-3103067D01*
X1260957Y-3117138D01*
X1260957Y-3131362D01*
X1262786Y-3145434D01*
X1266393Y-3159201D01*
X1271727Y-3172358D01*
X1278686Y-3184753D01*
X1287373Y-3196386D01*
X1289202Y-3200501D01*
X1289100Y-3204921D01*
X1287119Y-3208934D01*
X1283563Y-3211677D01*
X1279245Y-3212642D01*
X701649Y-3212642D01*
X697890Y-3211931D01*
X694690Y-3209848D01*
X692454Y-3206750D01*
X691540Y-3203041D01*
X692048Y-3199231D01*
X693928Y-3195878D01*
X698449Y-3190595D01*
X706221Y-3178657D01*
X712368Y-3165856D01*
X716838Y-3152394D01*
X719582Y-3138424D01*
X720496Y-3124250D01*
X719582Y-3110077D01*
X716838Y-3096107D01*
X712368Y-3082645D01*
X706221Y-3069844D01*
X698449Y-3057906D01*
X689254Y-3047085D01*
X678738Y-3037535D01*
X667054Y-3029407D01*
X654456Y-3022854D01*
X641146Y-3017926D01*
X627278Y-3014776D01*
X613156Y-3013405D01*
X598932Y-3013862D01*
X584911Y-3016148D01*
X565962Y-3021634D01*
X562000Y-3020923D01*
X558647Y-3018688D01*
X515061Y-2975102D01*
X512826Y-2971800D01*
X512064Y-2967888D01*
X512064Y-2953715D01*
X512826Y-2949803D01*
X515061Y-2946501D01*
X518414Y-2944266D01*
X522325Y-2943555D01*
X526237Y-2944368D01*
X529539Y-2946654D01*
X535025Y-2952343D01*
X546150Y-2961182D01*
X558292Y-2968548D01*
X571296Y-2974340D01*
X584911Y-2978353D01*
X598932Y-2980639D01*
X613156Y-2981096D01*
X627278Y-2979724D01*
X641146Y-2976575D01*
X654456Y-2971647D01*
X667054Y-2965094D01*
X678738Y-2956966D01*
X689254Y-2947416D01*
X698449Y-2936595D01*
X706221Y-2924657D01*
X712368Y-2911856D01*
X716838Y-2898394D01*
X719582Y-2884424D01*
X720496Y-2870250D01*
X719582Y-2856077D01*
X716838Y-2842107D01*
X712724Y-2829661D01*
X712216Y-2825953D01*
X713079Y-2822346D01*
X715162Y-2819298D01*
X1248511Y-2285949D01*
X1251813Y-2283714D01*
X1255725Y-2282952D01*
X1272438Y-2282952D01*
X1276807Y-2283917D01*
X1280312Y-2286660D01*
X1282293Y-2290673D01*
X1282395Y-2295093D01*
X1280617Y-2299208D01*
X1278686Y-2301748D01*
X1271727Y-2314143D01*
X1266393Y-2327300D01*
X1262786Y-2341067D01*
X1260957Y-2355138D01*
X1260957Y-2369362D01*
X1262786Y-2383434D01*
X1266393Y-2397201D01*
X1271727Y-2410358D01*
X1278686Y-2422753D01*
X1287170Y-2434132D01*
X1297076Y-2444343D01*
X1308150Y-2453182D01*
X1320342Y-2460548D01*
X1333296Y-2466340D01*
X1346911Y-2470353D01*
X1360982Y-2472639D01*
X1375156Y-2473096D01*
X1389329Y-2471724D01*
X1403146Y-2468575D01*
X1416507Y-2463647D01*
X1429105Y-2457094D01*
X1440738Y-2448966D01*
X1451254Y-2439416D01*
X1460449Y-2428595D01*
X1468221Y-2416657D01*
X1474368Y-2403856D01*
X1478889Y-2390394D01*
X1481582Y-2376424D01*
X1482496Y-2362250D01*
X1481582Y-2348077D01*
X1478889Y-2334107D01*
X1474368Y-2320645D01*
X1468221Y-2307844D01*
X1462227Y-2298649D01*
X1460703Y-2294585D01*
X1461008Y-2290267D01*
X1463090Y-2286457D01*
X1466545Y-2283866D01*
X1470761Y-2282952D01*
X1746300Y-2282952D01*
X1750212Y-2283714D01*
X1753514Y-2285949D01*
X1755698Y-2289200D01*
X1756460Y-2293112D01*
X1756460Y-2313381D01*
X1818538Y-2313381D01*
X1818538Y-2293112D01*
X1819300Y-2289200D01*
X1821484Y-2285949D01*
X1824786Y-2283714D01*
X1828698Y-2282952D01*
X1906066Y-2282952D01*
X1909978Y-2283714D01*
X1913229Y-2285949D01*
X1915464Y-2289200D01*
X1916226Y-2293112D01*
X1916226Y-2313381D01*
X1978304Y-2313381D01*
X1978304Y-2293112D01*
X1979066Y-2289200D01*
X1981250Y-2285949D01*
X1984552Y-2283714D01*
X1988464Y-2282952D01*
X2530246Y-2282952D01*
X2534564Y-2283917D01*
X2538120Y-2286660D01*
X2540101Y-2290673D01*
X2540203Y-2295093D01*
X2538374Y-2299208D01*
X2536444Y-2301748D01*
X2529484Y-2314143D01*
X2524150Y-2327300D01*
X2520543Y-2341067D01*
X2518714Y-2355138D01*
X2518714Y-2369362D01*
X2520543Y-2383434D01*
X2524150Y-2397201D01*
X2529484Y-2410358D01*
X2536444Y-2422753D01*
X2545181Y-2434386D01*
X2546959Y-2438501D01*
X2546858Y-2442921D01*
X2544876Y-2446934D01*
X2541371Y-2449677D01*
X2537002Y-2450642D01*
X1994865Y-2450642D01*
X1989429Y-2451201D01*
X1985264Y-2450693D01*
X1981606Y-2448610D01*
X1979168Y-2445207D01*
X1978304Y-2441092D01*
X1978304Y-2411120D01*
X1916226Y-2411120D01*
X1916226Y-2473147D01*
X1931365Y-2473147D01*
X1935225Y-2473909D01*
X1938528Y-2476144D01*
X1940712Y-2479446D01*
X1941525Y-2483307D01*
X1940712Y-2487218D01*
X1938528Y-2490520D01*
X1918258Y-2510790D01*
X1915109Y-2512923D01*
X1911350Y-2513736D01*
X1907539Y-2513126D01*
X1898904Y-2509926D01*
X1885086Y-2506776D01*
X1870913Y-2505405D01*
X1856739Y-2505862D01*
X1842719Y-2508148D01*
X1829104Y-2512212D01*
X1816100Y-2517952D01*
X1803958Y-2525318D01*
X1792833Y-2534158D01*
X1782927Y-2544368D01*
X1774443Y-2555748D01*
X1767484Y-2568143D01*
X1762150Y-2581300D01*
X1758543Y-2595067D01*
X1756714Y-2609138D01*
X1756714Y-2623362D01*
X1758543Y-2637434D01*
X1762150Y-2651201D01*
X1767484Y-2664358D01*
X1774443Y-2676753D01*
X1782927Y-2688132D01*
X1792833Y-2698343D01*
X1803958Y-2707182D01*
X1816100Y-2714548D01*
X1829104Y-2720340D01*
X1842719Y-2724353D01*
X1856739Y-2726639D01*
X1870913Y-2727096D01*
X1885086Y-2725724D01*
X1898904Y-2722575D01*
X1912264Y-2717647D01*
X1924862Y-2711094D01*
X1936496Y-2702966D01*
X1947011Y-2693416D01*
X1956257Y-2682595D01*
X1963978Y-2670657D01*
X1970176Y-2657856D01*
X1974646Y-2644394D01*
X1977339Y-2630424D01*
X1978253Y-2616250D01*
X1977339Y-2602077D01*
X1974646Y-2588107D01*
X1970481Y-2575661D01*
X1969973Y-2571953D01*
X1970836Y-2568346D01*
X1972970Y-2565298D01*
X2007412Y-2530856D01*
X2010714Y-2528620D01*
X2014575Y-2527858D01*
X2537002Y-2527858D01*
X2541371Y-2528824D01*
X2544876Y-2531567D01*
X2546858Y-2535580D01*
X2546959Y-2540000D01*
X2545181Y-2544114D01*
X2536444Y-2555748D01*
X2529890Y-2567381D01*
X2580538Y-2567381D01*
X2580538Y-2538018D01*
X2581300Y-2534107D01*
X2583535Y-2530856D01*
X2586837Y-2528620D01*
X2590698Y-2527858D01*
X2668066Y-2527858D01*
X2671978Y-2528620D01*
X2675280Y-2530856D01*
X2677464Y-2534107D01*
X2678226Y-2538018D01*
X2678226Y-2567381D01*
X2728671Y-2567381D01*
X2726029Y-2561844D01*
X2718257Y-2549906D01*
X2713736Y-2544622D01*
X2711856Y-2541270D01*
X2711297Y-2537460D01*
X2712262Y-2533751D01*
X2714498Y-2530652D01*
X2717698Y-2528570D01*
X2721457Y-2527858D01*
X3031236Y-2527858D01*
X3035046Y-2528570D01*
X3038246Y-2530703D01*
X3040481Y-2533802D01*
X3041396Y-2537561D01*
X3040837Y-2541371D01*
X3038906Y-2544724D01*
X3030067Y-2554782D01*
X3022701Y-2565755D01*
X3016910Y-2577592D01*
X3012643Y-2590088D01*
X3010052Y-2603042D01*
X3009188Y-2616200D01*
X3010052Y-2629357D01*
X3012643Y-2642311D01*
X3016910Y-2654808D01*
X3022701Y-2666644D01*
X3030067Y-2677617D01*
X3038754Y-2687523D01*
X3048660Y-2696260D01*
X3059633Y-2703576D01*
X3071469Y-2709418D01*
X3083966Y-2713634D01*
X3096920Y-2716225D01*
X3110433Y-2717088D01*
X3159760Y-2717088D01*
X3177286Y-2715971D01*
X3180486Y-2716936D01*
X3183178Y-2718866D01*
X3220770Y-2756458D01*
X3227019Y-2761589D01*
X3233674Y-2765145D01*
X3240887Y-2767330D01*
X3248914Y-2768142D01*
X3878275Y-2768142D01*
X3882491Y-2769057D01*
X3885946Y-2771597D01*
X3888028Y-2775356D01*
X3888333Y-2779623D01*
X3886911Y-2783687D01*
X3883914Y-2786735D01*
X3875024Y-2792679D01*
X3865118Y-2801416D01*
X3856380Y-2811322D01*
X3849065Y-2822295D01*
X3843223Y-2834132D01*
X3839006Y-2846628D01*
X3836415Y-2859582D01*
X3835552Y-2872740D01*
X3836415Y-2885897D01*
X3839006Y-2898851D01*
X3843223Y-2911348D01*
X3849065Y-2923184D01*
X3853027Y-2929128D01*
X3854602Y-2933192D01*
X3854348Y-2937510D01*
X3852316Y-2941370D01*
X3848862Y-2944012D01*
X3844594Y-2944926D01*
X3268624Y-2944926D01*
X3264763Y-2944164D01*
X3261461Y-2941929D01*
X3250184Y-2930702D01*
X3247898Y-2927197D01*
X3247237Y-2923082D01*
X3248253Y-2919018D01*
X3253282Y-2908808D01*
X3257550Y-2896311D01*
X3260090Y-2883357D01*
X3260953Y-2870200D01*
X3260090Y-2857042D01*
X3257550Y-2844088D01*
X3253282Y-2831592D01*
X3247440Y-2819755D01*
X3240125Y-2808782D01*
X3231438Y-2798876D01*
X3221482Y-2790139D01*
X3210560Y-2782824D01*
X3198723Y-2776982D01*
X3186226Y-2772765D01*
X3173272Y-2770174D01*
X3159760Y-2769311D01*
X3110433Y-2769311D01*
X3096920Y-2770174D01*
X3083966Y-2772765D01*
X3071469Y-2776982D01*
X3059633Y-2782824D01*
X3048660Y-2790139D01*
X3038754Y-2798876D01*
X3030067Y-2808782D01*
X3022701Y-2819755D01*
X3016910Y-2831592D01*
X3012643Y-2844088D01*
X3010052Y-2857042D01*
X3009188Y-2870200D01*
X3010052Y-2883357D01*
X3012643Y-2896311D01*
X3016910Y-2908808D01*
X3022701Y-2920644D01*
X3030067Y-2931617D01*
X3038754Y-2941523D01*
X3048660Y-2950260D01*
X3059633Y-2957576D01*
X3071469Y-2963418D01*
X3083966Y-2967634D01*
X3096920Y-2970225D01*
X3110433Y-2971088D01*
X3159760Y-2971088D01*
X3177286Y-2969971D01*
X3180486Y-2970936D01*
X3183178Y-2972866D01*
X3220770Y-3010458D01*
X3227019Y-3015589D01*
X3233674Y-3019145D01*
X3240887Y-3021330D01*
X3248914Y-3022142D01*
X3878275Y-3022142D01*
X3882491Y-3023057D01*
X3885946Y-3025597D01*
X3888028Y-3029356D01*
X3888333Y-3033623D01*
X3886911Y-3037687D01*
X3883914Y-3040735D01*
X3875024Y-3046679D01*
X3865118Y-3055416D01*
X3856380Y-3065322D01*
X3849065Y-3076295D01*
X3843223Y-3088132D01*
X3839006Y-3100628D01*
X3836415Y-3113582D01*
X3835552Y-3126740D01*
X3836415Y-3139897D01*
X3839006Y-3152851D01*
X3843223Y-3165348D01*
X3849065Y-3177184D01*
X3851757Y-3181197D01*
X3853332Y-3185261D01*
X3853078Y-3189579D01*
X3851046Y-3193440D01*
X3847541Y-3196082D01*
X3843274Y-3196996D01*
X3251555Y-3196996D01*
X3247288Y-3196082D01*
X3243783Y-3193440D01*
X3241751Y-3189579D01*
X3241497Y-3185261D01*
X3243072Y-3181197D01*
X3247440Y-3174644D01*
X3253282Y-3162808D01*
X3257550Y-3150311D01*
X3260090Y-3137357D01*
X3260953Y-3124200D01*
X3260090Y-3111042D01*
X3257550Y-3098088D01*
X3253282Y-3085592D01*
X3247440Y-3073755D01*
X3240125Y-3062782D01*
X3231438Y-3052876D01*
X3221482Y-3044139D01*
X3210560Y-3036824D01*
X3198723Y-3030982D01*
X3186226Y-3026765D01*
X3173272Y-3024174D01*
X3159760Y-3023311D01*
X3110433Y-3023311D01*
X3096920Y-3024174D01*
X3083966Y-3026765D01*
X3071469Y-3030982D01*
X3059633Y-3036824D01*
X3048660Y-3044139D01*
X3038754Y-3052876D01*
X3030067Y-3062782D01*
X3022701Y-3073755D01*
X3016910Y-3085592D01*
X3012643Y-3098088D01*
X3010052Y-3111042D01*
X3009188Y-3124200D01*
X3010052Y-3137357D01*
X3012643Y-3150311D01*
X3016910Y-3162808D01*
X3022701Y-3174644D01*
X3030067Y-3185617D01*
X3038754Y-3195523D01*
X3048660Y-3204260D01*
X3055162Y-3208578D01*
X3058210Y-3211779D01*
X3059633Y-3215995D01*
X3059074Y-3220415D01*
X3056686Y-3224174D01*
X2975356Y-3305556D01*
X2970225Y-3311753D01*
X2966669Y-3318459D01*
X2964484Y-3325672D01*
X2963672Y-3333699D01*
X2963672Y-3431692D01*
X2964484Y-3439718D01*
X2966669Y-3446932D01*
X2970225Y-3453637D01*
X2975356Y-3459835D01*
X3051302Y-3535832D01*
X3053689Y-3539591D01*
X3054197Y-3544011D01*
X3052826Y-3548227D01*
X3038754Y-3560876D01*
X3030067Y-3570782D01*
X3022701Y-3581755D01*
X3016910Y-3593592D01*
X3012643Y-3606088D01*
X3010052Y-3619042D01*
X3009188Y-3632200D01*
X3010052Y-3645357D01*
X3012643Y-3658311D01*
X3016910Y-3670808D01*
X3022701Y-3682644D01*
X3030067Y-3693617D01*
X3038754Y-3703523D01*
X3048660Y-3712260D01*
X3059633Y-3719576D01*
X3071469Y-3725418D01*
X3083966Y-3729634D01*
X3096920Y-3732225D01*
X3110433Y-3733088D01*
X3159760Y-3733088D01*
X3173272Y-3732225D01*
X3186226Y-3729634D01*
X3198723Y-3725418D01*
X3210560Y-3719576D01*
X3221482Y-3712260D01*
X3231438Y-3703523D01*
X3240125Y-3693617D01*
X3247440Y-3682644D01*
X3253282Y-3670808D01*
X3257550Y-3658311D01*
X3258261Y-3654755D01*
X3259988Y-3650792D01*
X3263239Y-3647897D01*
X3267405Y-3646627D01*
X3271723Y-3647236D01*
X3275380Y-3649573D01*
X3541522Y-3915664D01*
X3547719Y-3920794D01*
X3554425Y-3924350D01*
X3561638Y-3926535D01*
X3569665Y-3927348D01*
X3836924Y-3927348D01*
X3840581Y-3928059D01*
X3843782Y-3930040D01*
X3846017Y-3933037D01*
X3849065Y-3939184D01*
X3856380Y-3950157D01*
X3863086Y-3957777D01*
X3865016Y-3961129D01*
X3865626Y-3964940D01*
X3864711Y-3968699D01*
X3862476Y-3971798D01*
X3859225Y-3973931D01*
X3855465Y-3974642D01*
X3238855Y-3974642D01*
X3235045Y-3973931D01*
X3231845Y-3971798D01*
X3229610Y-3968699D01*
X3228695Y-3964940D01*
X3229254Y-3961129D01*
X3231235Y-3957777D01*
X3240125Y-3947617D01*
X3247440Y-3936644D01*
X3250692Y-3930040D01*
X3191459Y-3930040D01*
X3191459Y-3953764D01*
X3190544Y-3957878D01*
X3188106Y-3961282D01*
X3184448Y-3963415D01*
X3180283Y-3963873D01*
X3175254Y-3963365D01*
X3124860Y-3963365D01*
X3116834Y-3964178D01*
X3109620Y-3966362D01*
X3102914Y-3969918D01*
X3099968Y-3972356D01*
X3096971Y-3974033D01*
X3093516Y-3974642D01*
X3088894Y-3974642D01*
X3085033Y-3973880D01*
X3081731Y-3971645D01*
X3079496Y-3968394D01*
X3078734Y-3964482D01*
X3078734Y-3930040D01*
X3019450Y-3930040D01*
X3022701Y-3936644D01*
X3030067Y-3947617D01*
X3038957Y-3957777D01*
X3040938Y-3961129D01*
X3041497Y-3964940D01*
X3040583Y-3968699D01*
X3038348Y-3971798D01*
X3035096Y-3973931D01*
X3031337Y-3974642D01*
X2721457Y-3974642D01*
X2717698Y-3973931D01*
X2714498Y-3971848D01*
X2712262Y-3968750D01*
X2711297Y-3965041D01*
X2711856Y-3961231D01*
X2713736Y-3957878D01*
X2718257Y-3952595D01*
X2726029Y-3940657D01*
X2732176Y-3927856D01*
X2736646Y-3914394D01*
X2739390Y-3900424D01*
X2740304Y-3886250D01*
X2739390Y-3872077D01*
X2736646Y-3858107D01*
X2732176Y-3844645D01*
X2726029Y-3831844D01*
X2718257Y-3819906D01*
X2709062Y-3809085D01*
X2706166Y-3806494D01*
X2703677Y-3802989D01*
X2702864Y-3798722D01*
X2703880Y-3794506D01*
X2706573Y-3791153D01*
X2712364Y-3786378D01*
X2783179Y-3715512D01*
X2788310Y-3709314D01*
X2791866Y-3702608D01*
X2794050Y-3695395D01*
X2794863Y-3687368D01*
X2794863Y-3583635D01*
X2794050Y-3575608D01*
X2791866Y-3568395D01*
X2788310Y-3561740D01*
X2783179Y-3555492D01*
X2706014Y-3478326D01*
X2703423Y-3476193D01*
X2700782Y-3472789D01*
X2699715Y-3468624D01*
X2700528Y-3464356D01*
X2703068Y-3460851D01*
X2709062Y-3455415D01*
X2718257Y-3444595D01*
X2726029Y-3432657D01*
X2732176Y-3419856D01*
X2736646Y-3406394D01*
X2739390Y-3392424D01*
X2740304Y-3378250D01*
X2739390Y-3364077D01*
X2736646Y-3350107D01*
X2732176Y-3336645D01*
X2726029Y-3323844D01*
X2718257Y-3311906D01*
X2713736Y-3306622D01*
X2711856Y-3303270D01*
X2711297Y-3299460D01*
X2712262Y-3295751D01*
X2714498Y-3292652D01*
X2717698Y-3290570D01*
X2721457Y-3289858D01*
X2734665Y-3289858D01*
X2742692Y-3289046D01*
X2749905Y-3286861D01*
X2756560Y-3283305D01*
X2762808Y-3278174D01*
X2921355Y-3119628D01*
X2924251Y-3117646D01*
X2927654Y-3116732D01*
X2934055Y-3116173D01*
X2943301Y-3113684D01*
X2952038Y-3109620D01*
X2959862Y-3104083D01*
X2966669Y-3097326D01*
X2972155Y-3089452D01*
X2976219Y-3080766D01*
X2978708Y-3071469D01*
X2979572Y-3061919D01*
X2978708Y-3052368D01*
X2976219Y-3043072D01*
X2972155Y-3034385D01*
X2966669Y-3026511D01*
X2959862Y-3019755D01*
X2952038Y-3014218D01*
X2943301Y-3010154D01*
X2934055Y-3007664D01*
X2924505Y-3006852D01*
X2914904Y-3007664D01*
X2905658Y-3010154D01*
X2896920Y-3014218D01*
X2889097Y-3019755D01*
X2882290Y-3026511D01*
X2876804Y-3034385D01*
X2872740Y-3043072D01*
X2870250Y-3052368D01*
X2869692Y-3058769D01*
X2868777Y-3062173D01*
X2866745Y-3065068D01*
X2743098Y-3188716D01*
X2739745Y-3190951D01*
X2735732Y-3191662D01*
X2731820Y-3190798D01*
X2728518Y-3188462D01*
X2726385Y-3185007D01*
X2725775Y-3181045D01*
X2726740Y-3177082D01*
X2732176Y-3165856D01*
X2736646Y-3152394D01*
X2739390Y-3138424D01*
X2740304Y-3124250D01*
X2739390Y-3110077D01*
X2736646Y-3096107D01*
X2732176Y-3082645D01*
X2726029Y-3069844D01*
X2718257Y-3057906D01*
X2709062Y-3047085D01*
X2698546Y-3037535D01*
X2686862Y-3029407D01*
X2674264Y-3022854D01*
X2660954Y-3017926D01*
X2647086Y-3014776D01*
X2632964Y-3013405D01*
X2618740Y-3013862D01*
X2604719Y-3016148D01*
X2591104Y-3020212D01*
X2578100Y-3025952D01*
X2565958Y-3033318D01*
X2554833Y-3042158D01*
X2544978Y-3052368D01*
X2536444Y-3063748D01*
X2529484Y-3076143D01*
X2524150Y-3089300D01*
X2520543Y-3103067D01*
X2518714Y-3117138D01*
X2518714Y-3131362D01*
X2520543Y-3145434D01*
X2524150Y-3159201D01*
X2529484Y-3172358D01*
X2536444Y-3184753D01*
X2545181Y-3196386D01*
X2546959Y-3200501D01*
X2546858Y-3204921D01*
X2544876Y-3208934D01*
X2541371Y-3211677D01*
X2537002Y-3212642D01*
X2433167Y-3212642D01*
X2425141Y-3213455D01*
X2417927Y-3215640D01*
X2411222Y-3219196D01*
X2405024Y-3224326D01*
X2167890Y-3461461D01*
X2164994Y-3463442D01*
X2161590Y-3464356D01*
X2155190Y-3464915D01*
X2145893Y-3467404D01*
X2137206Y-3471468D01*
X2129332Y-3477006D01*
X2122576Y-3483762D01*
X2117039Y-3491636D01*
X2112975Y-3500323D01*
X2110486Y-3509619D01*
X2109673Y-3519170D01*
X2110486Y-3528720D01*
X2112975Y-3538016D01*
X2117039Y-3546703D01*
X2122576Y-3554577D01*
X2129332Y-3561334D01*
X2137206Y-3566871D01*
X2145893Y-3570884D01*
X2156409Y-3573678D01*
X2160117Y-3575507D01*
X2162810Y-3578707D01*
X2163978Y-3582670D01*
X2163419Y-3586835D01*
X2161286Y-3590391D01*
X2157882Y-3592779D01*
X2153818Y-3593642D01*
X1977999Y-3593642D01*
X1974291Y-3592931D01*
X1971090Y-3590950D01*
X1968855Y-3587902D01*
X1963978Y-3577844D01*
X1956257Y-3565906D01*
X1947011Y-3555085D01*
X1936496Y-3545535D01*
X1924862Y-3537407D01*
X1912264Y-3530854D01*
X1898904Y-3525926D01*
X1885086Y-3522776D01*
X1870913Y-3521405D01*
X1856739Y-3521862D01*
X1842719Y-3524148D01*
X1829104Y-3528212D01*
X1816100Y-3533952D01*
X1803958Y-3541318D01*
X1792833Y-3550158D01*
X1782927Y-3560368D01*
X1774443Y-3571748D01*
X1767484Y-3584143D01*
X1762150Y-3597300D01*
X1758543Y-3611067D01*
X1756714Y-3625138D01*
X1756714Y-3639362D01*
X1758543Y-3653434D01*
X1762150Y-3667201D01*
X1767484Y-3680358D01*
X1774443Y-3692753D01*
X1783130Y-3704386D01*
X1784959Y-3708501D01*
X1784857Y-3712921D01*
X1782876Y-3716934D01*
X1779371Y-3719677D01*
X1775002Y-3720642D01*
X1688642Y-3720642D01*
X1680616Y-3721455D01*
X1673402Y-3723640D01*
X1666748Y-3727196D01*
X1660499Y-3732326D01*
X1499819Y-3892956D01*
X1496618Y-3895140D01*
X1492859Y-3895953D01*
X1489049Y-3895293D01*
X1485798Y-3893261D01*
X1483461Y-3890162D01*
X1482496Y-3886454D01*
X1481582Y-3872077D01*
X1478889Y-3858107D01*
X1474368Y-3844645D01*
X1468221Y-3831844D01*
X1460449Y-3819906D01*
X1451254Y-3809085D01*
X1440738Y-3799535D01*
X1429105Y-3791407D01*
X1416507Y-3784854D01*
X1403146Y-3779926D01*
X1389329Y-3776776D01*
X1375156Y-3775405D01*
X1360982Y-3775862D01*
X1346911Y-3778148D01*
X1333296Y-3782212D01*
X1320342Y-3787952D01*
X1308150Y-3795318D01*
X1297076Y-3804158D01*
X1287170Y-3814368D01*
X1278686Y-3825748D01*
X1271727Y-3838143D01*
X1266393Y-3851300D01*
X1262786Y-3865067D01*
X1260957Y-3879138D01*
X1260957Y-3893362D01*
X1262786Y-3907434D01*
X1266393Y-3921201D01*
X1271727Y-3934358D01*
X1278686Y-3946753D01*
X1287373Y-3958386D01*
X1289202Y-3962501D01*
X1289100Y-3966921D01*
X1287119Y-3970934D01*
X1283563Y-3973677D01*
X1279245Y-3974642D01*
X1253286Y-3974642D01*
X1245260Y-3975455D01*
X1238046Y-3977640D01*
X1231341Y-3981196D01*
X1225143Y-3986326D01*
X1118260Y-4093159D01*
X1115364Y-4095191D01*
X1111961Y-4096105D01*
X1105560Y-4096664D01*
X1096314Y-4099153D01*
X1087577Y-4103217D01*
X1079754Y-4108704D01*
X1072946Y-4115511D01*
X1067460Y-4123334D01*
X1063396Y-4132072D01*
X1060907Y-4141317D01*
X1060043Y-4150918D01*
X1060907Y-4160469D01*
X1063396Y-4169714D01*
X1067460Y-4178452D01*
X1072946Y-4186275D01*
X1079754Y-4193082D01*
X1087577Y-4198569D01*
X1096314Y-4202633D01*
X1105560Y-4205122D01*
X1115161Y-4205986D01*
X1124712Y-4205122D01*
X1133957Y-4202633D01*
X1142695Y-4198569D01*
X1150518Y-4193082D01*
X1157325Y-4186275D01*
X1162812Y-4178452D01*
X1166876Y-4169714D01*
X1169365Y-4160469D01*
X1169924Y-4154068D01*
X1170838Y-4150664D01*
X1172870Y-4147769D01*
X1265783Y-4054856D01*
X1269085Y-4052620D01*
X1272997Y-4051858D01*
X1279245Y-4051858D01*
X1283563Y-4052824D01*
X1287119Y-4055567D01*
X1289100Y-4059580D01*
X1289202Y-4064000D01*
X1287373Y-4068114D01*
X1278686Y-4079748D01*
X1271727Y-4092143D01*
X1266393Y-4105300D01*
X1262786Y-4119067D01*
X1260957Y-4133138D01*
X1260957Y-4147362D01*
X1262786Y-4161434D01*
X1266393Y-4175201D01*
X1271727Y-4188358D01*
X1278686Y-4200753D01*
X1287170Y-4212132D01*
X1297076Y-4222343D01*
X1308150Y-4231182D01*
X1320342Y-4238548D01*
X1333296Y-4244340D01*
X1346911Y-4248353D01*
X1360982Y-4250639D01*
X1375156Y-4251096D01*
X1389329Y-4249724D01*
X1403146Y-4246575D01*
X1416507Y-4241647D01*
X1429105Y-4235094D01*
X1440738Y-4226966D01*
X1451254Y-4217416D01*
X1460449Y-4206595D01*
X1468221Y-4194657D01*
X1474368Y-4181856D01*
X1478889Y-4168394D01*
X1481582Y-4154424D01*
X1482496Y-4140250D01*
X1481582Y-4126077D01*
X1478889Y-4112107D01*
X1474724Y-4099661D01*
X1474216Y-4095953D01*
X1475079Y-4092346D01*
X1477162Y-4089247D01*
X1511604Y-4054856D01*
X1514906Y-4052620D01*
X1518818Y-4051858D01*
X1775002Y-4051858D01*
X1779371Y-4052824D01*
X1782876Y-4055567D01*
X1784857Y-4059580D01*
X1784959Y-4064000D01*
X1783130Y-4068114D01*
X1774443Y-4079748D01*
X1767890Y-4091381D01*
X1818538Y-4091381D01*
X1818538Y-4062018D01*
X1819300Y-4058107D01*
X1821484Y-4054856D01*
X1824786Y-4052620D01*
X1828698Y-4051858D01*
X1906066Y-4051858D01*
X1909978Y-4052620D01*
X1913229Y-4054856D01*
X1915464Y-4058107D01*
X1916226Y-4062018D01*
X1916226Y-4091381D01*
X1966671Y-4091381D01*
X1963978Y-4085844D01*
X1956257Y-4073906D01*
X1951736Y-4068622D01*
X1949805Y-4065270D01*
X1949297Y-4061460D01*
X1950212Y-4057751D01*
X1952447Y-4054652D01*
X1955698Y-4052570D01*
X1959457Y-4051858D01*
X2537002Y-4051858D01*
X2541371Y-4052824D01*
X2544876Y-4055567D01*
X2546858Y-4059580D01*
X2546959Y-4064000D01*
X2545181Y-4068114D01*
X2536444Y-4079748D01*
X2529484Y-4092143D01*
X2524150Y-4105300D01*
X2520543Y-4119067D01*
X2518714Y-4133138D01*
X2518714Y-4147362D01*
X2520543Y-4161434D01*
X2524150Y-4175201D01*
X2529484Y-4188358D01*
X2536444Y-4200753D01*
X2544978Y-4212132D01*
X2554833Y-4222343D01*
X2565958Y-4231182D01*
X2578100Y-4238548D01*
X2591104Y-4244340D01*
X2604719Y-4248353D01*
X2618740Y-4250639D01*
X2632964Y-4251096D01*
X2647086Y-4249724D01*
X2660954Y-4246575D01*
X2674264Y-4241647D01*
X2686862Y-4235094D01*
X2698546Y-4226966D01*
X2709062Y-4217416D01*
X2718257Y-4206595D01*
X2726029Y-4194657D01*
X2732176Y-4181856D01*
X2736646Y-4168394D01*
X2739390Y-4154424D01*
X2740304Y-4140250D01*
X2739390Y-4126077D01*
X2736646Y-4112107D01*
X2732176Y-4098645D01*
X2726029Y-4085844D01*
X2718257Y-4073906D01*
X2713736Y-4068622D01*
X2711856Y-4065270D01*
X2711297Y-4061460D01*
X2712262Y-4057751D01*
X2714498Y-4054652D01*
X2717698Y-4052570D01*
X2721457Y-4051858D01*
X2958642Y-4051858D01*
X2962554Y-4052620D01*
X2965856Y-4054856D01*
X2968040Y-4058107D01*
X2968802Y-4062018D01*
X2968040Y-4065930D01*
X2960217Y-4077157D01*
X2956153Y-4085894D01*
X2953664Y-4095140D01*
X2952851Y-4104741D01*
X2953664Y-4114292D01*
X2956153Y-4123537D01*
X2960217Y-4132275D01*
X2965754Y-4140098D01*
X2972511Y-4146905D01*
X2980385Y-4152392D01*
X2989072Y-4156456D01*
X2998368Y-4158945D01*
X3007918Y-4159808D01*
X3017469Y-4158945D01*
X3026765Y-4156456D01*
X3035452Y-4152392D01*
X3043326Y-4146905D01*
X3050082Y-4140098D01*
X3055620Y-4132275D01*
X3059684Y-4123537D01*
X3062173Y-4114292D01*
X3062376Y-4111904D01*
X3063392Y-4108297D01*
X3065627Y-4105300D01*
X3068777Y-4103319D01*
X3072485Y-4102658D01*
X3106826Y-4102658D01*
X3110738Y-4103420D01*
X3122472Y-4111701D01*
X3131210Y-4115765D01*
X3140456Y-4118254D01*
X3150057Y-4119118D01*
X3159607Y-4118254D01*
X3168853Y-4115765D01*
X3177590Y-4111701D01*
X3185414Y-4106214D01*
X3192221Y-4099407D01*
X3197707Y-4091584D01*
X3201771Y-4082846D01*
X3204260Y-4073601D01*
X3205480Y-4058767D01*
X3207613Y-4055160D01*
X3211017Y-4052722D01*
X3215132Y-4051858D01*
X4311142Y-4051858D01*
X4315510Y-4052824D01*
X4319016Y-4055567D01*
X4321048Y-4059580D01*
X4321098Y-4064000D01*
X4319320Y-4068114D01*
X4310634Y-4079697D01*
X4304080Y-4091330D01*
X4354728Y-4091330D01*
X4354728Y-4062018D01*
X4355490Y-4058107D01*
X4357674Y-4054856D01*
X4360976Y-4052620D01*
X4364888Y-4051858D01*
X4442256Y-4051858D01*
X4446168Y-4052620D01*
X4449419Y-4054856D01*
X4451654Y-4058107D01*
X4452416Y-4062018D01*
X4452416Y-4091330D01*
X4502861Y-4091330D01*
X4500168Y-4085793D01*
X4492447Y-4073855D01*
X4487926Y-4068622D01*
X4486046Y-4065270D01*
X4485538Y-4061460D01*
X4486452Y-4057751D01*
X4488688Y-4054652D01*
X4491939Y-4052570D01*
X4495698Y-4051858D01*
X5050434Y-4051858D01*
X5054346Y-4052620D01*
X5057648Y-4054856D01*
X5092141Y-4089349D01*
X5094325Y-4092600D01*
X5095087Y-4096461D01*
X5094376Y-4100322D01*
X5092395Y-4105249D01*
X5088788Y-4119016D01*
X5086959Y-4133087D01*
X5086959Y-4147312D01*
X5088788Y-4161383D01*
X5092395Y-4175150D01*
X5097729Y-4188307D01*
X5104688Y-4200702D01*
X5109972Y-4207764D01*
X5111750Y-4211828D01*
X5111648Y-4216298D01*
X5109667Y-4220260D01*
X5106162Y-4223004D01*
X5101793Y-4224020D01*
X4499559Y-4224020D01*
X4495800Y-4223258D01*
X4492548Y-4221226D01*
X4490313Y-4218076D01*
X4489399Y-4214368D01*
X4489907Y-4210558D01*
X4500168Y-4194606D01*
X4502861Y-4189069D01*
X4452416Y-4189069D01*
X4452416Y-4213860D01*
X4451654Y-4217720D01*
X4449419Y-4221022D01*
X4446168Y-4223207D01*
X4442256Y-4224020D01*
X4364888Y-4224020D01*
X4360976Y-4223207D01*
X4357674Y-4221022D01*
X4355490Y-4217720D01*
X4354728Y-4213860D01*
X4354728Y-4189069D01*
X4304080Y-4189069D01*
X4310634Y-4200702D01*
X4315917Y-4207764D01*
X4317746Y-4211828D01*
X4317644Y-4216298D01*
X4315612Y-4220260D01*
X4312107Y-4223004D01*
X4307789Y-4224020D01*
X3099308Y-4224020D01*
X3091281Y-4224782D01*
X3084068Y-4226966D01*
X3077413Y-4230522D01*
X3071164Y-4235653D01*
X3004667Y-4302150D01*
X3001365Y-4304385D01*
X2997454Y-4305147D01*
X1350162Y-4305147D01*
X1342136Y-4305960D01*
X1334922Y-4308144D01*
X1328216Y-4311700D01*
X1322019Y-4316831D01*
X1065276Y-4573574D01*
X1059942Y-4579975D01*
X1056538Y-4582718D01*
X1052271Y-4583734D01*
X1048003Y-4582820D01*
X1044498Y-4580229D01*
X1039164Y-4574235D01*
X1028903Y-4565192D01*
X1017524Y-4557572D01*
X1005230Y-4551527D01*
X992276Y-4547158D01*
X978865Y-4544466D01*
X965200Y-4543552D01*
X951534Y-4544466D01*
X938123Y-4547158D01*
X925169Y-4551527D01*
X912876Y-4557572D01*
X901496Y-4565192D01*
X891235Y-4574235D01*
X882192Y-4584496D01*
X874572Y-4595876D01*
X868527Y-4608169D01*
X864158Y-4621123D01*
X861466Y-4634534D01*
X860552Y-4648200D01*
X861466Y-4661865D01*
X864158Y-4675276D01*
X868527Y-4688230D01*
X874572Y-4700524D01*
X877874Y-4705400D01*
X879449Y-4709464D01*
X879195Y-4713782D01*
X877112Y-4717643D01*
X873658Y-4720285D01*
X869391Y-4721199D01*
X854100Y-4721199D01*
X846074Y-4722012D01*
X838860Y-4724196D01*
X832154Y-4727752D01*
X825957Y-4732883D01*
X757224Y-4801565D01*
X754126Y-4803698D01*
X750468Y-4804562D01*
X746760Y-4804003D01*
X738276Y-4801158D01*
X724865Y-4798466D01*
X711200Y-4797552D01*
X697534Y-4798466D01*
X684123Y-4801158D01*
X671169Y-4805527D01*
X658876Y-4811572D01*
X647496Y-4819192D01*
X637235Y-4828235D01*
X628192Y-4838496D01*
X620572Y-4849876D01*
X614527Y-4862169D01*
X610158Y-4875123D01*
X607466Y-4888534D01*
X606552Y-4902200D01*
X607466Y-4915865D01*
X610158Y-4929276D01*
X614527Y-4942230D01*
X620572Y-4954524D01*
X628192Y-4965903D01*
X637235Y-4976164D01*
X647496Y-4985207D01*
X658876Y-4992827D01*
X671169Y-4998872D01*
X684123Y-5003241D01*
X697534Y-5005933D01*
X711200Y-5006848D01*
X724865Y-5005933D01*
X738276Y-5003241D01*
X751230Y-4998872D01*
X763524Y-4992827D01*
X774903Y-4985207D01*
X785164Y-4976164D01*
X794207Y-4965903D01*
X801827Y-4954524D01*
X807872Y-4942230D01*
X812241Y-4929276D01*
X814933Y-4915865D01*
X815848Y-4902200D01*
X814933Y-4888534D01*
X812241Y-4875123D01*
X809396Y-4866640D01*
X808837Y-4862931D01*
X809701Y-4859274D01*
X811834Y-4856175D01*
X866597Y-4801412D01*
X869899Y-4799177D01*
X873810Y-4798415D01*
X899109Y-4798415D01*
X903325Y-4799330D01*
X906729Y-4801870D01*
X908812Y-4805629D01*
X909167Y-4809896D01*
X907745Y-4813960D01*
X904748Y-4817008D01*
X901496Y-4819192D01*
X891235Y-4828235D01*
X882192Y-4838496D01*
X874572Y-4849876D01*
X868527Y-4862169D01*
X864158Y-4875123D01*
X861466Y-4888534D01*
X860552Y-4902200D01*
X861466Y-4915865D01*
X864158Y-4929276D01*
X868527Y-4942230D01*
X874572Y-4954524D01*
X882192Y-4965903D01*
X891235Y-4976164D01*
X901496Y-4985207D01*
X912876Y-4992827D01*
X925169Y-4998872D01*
X938123Y-5003241D01*
X951534Y-5005933D01*
X965200Y-5006848D01*
X978865Y-5005933D01*
X992276Y-5003241D01*
X1005230Y-4998872D01*
X1017524Y-4992827D01*
X1028903Y-4985207D01*
X1039164Y-4976164D01*
X1048207Y-4965903D01*
X1055827Y-4954524D01*
X1061872Y-4942230D01*
X1066241Y-4929276D01*
X1068933Y-4915865D01*
X1069848Y-4902200D01*
X1068933Y-4888534D01*
X1066241Y-4875123D01*
X1061872Y-4862169D01*
X1055827Y-4849876D01*
X1048207Y-4838496D01*
X1039164Y-4828235D01*
X1028903Y-4819192D01*
X1024534Y-4816297D01*
X1021638Y-4813350D01*
X1020165Y-4809490D01*
X1020318Y-4805375D01*
X1022146Y-4801666D01*
X1025245Y-4798974D01*
X1037539Y-4795418D01*
X1044194Y-4791862D01*
X1050442Y-4786731D01*
X1119124Y-4718050D01*
X1122375Y-4714087D01*
X1125829Y-4711395D01*
X1130096Y-4710379D01*
X1134364Y-4711242D01*
X1137869Y-4713833D01*
X1145235Y-4722164D01*
X1155496Y-4731207D01*
X1166876Y-4738827D01*
X1179169Y-4744872D01*
X1192123Y-4749241D01*
X1205534Y-4751933D01*
X1219200Y-4752848D01*
X1232865Y-4751933D01*
X1246276Y-4749241D01*
X1259230Y-4744872D01*
X1271524Y-4738827D01*
X1282903Y-4731207D01*
X1293164Y-4722164D01*
X1302207Y-4711903D01*
X1309827Y-4700524D01*
X1315872Y-4688230D01*
X1320241Y-4675276D01*
X1322933Y-4661865D01*
X1323848Y-4648200D01*
X1322933Y-4634534D01*
X1320241Y-4621123D01*
X1315872Y-4608169D01*
X1309827Y-4595876D01*
X1302207Y-4584496D01*
X1293164Y-4574235D01*
X1282903Y-4565192D01*
X1271524Y-4557572D01*
X1259230Y-4551527D01*
X1246276Y-4547158D01*
X1232865Y-4544466D01*
X1227734Y-4544110D01*
X1223975Y-4543145D01*
X1220876Y-4540859D01*
X1218895Y-4537557D01*
X1218234Y-4533747D01*
X1219047Y-4529988D01*
X1221181Y-4526788D01*
X1362659Y-4385360D01*
X1365961Y-4383125D01*
X1369872Y-4382363D01*
X1752396Y-4382363D01*
X1756257Y-4383125D01*
X1759559Y-4385360D01*
X1761794Y-4388612D01*
X1762556Y-4392523D01*
X1761794Y-4396435D01*
X1759559Y-4399686D01*
X1572920Y-4586376D01*
X1569110Y-4588764D01*
X1564640Y-4589322D01*
X1560372Y-4587849D01*
X1556664Y-4585004D01*
X1547164Y-4574235D01*
X1536903Y-4565192D01*
X1525524Y-4557572D01*
X1513230Y-4551527D01*
X1500276Y-4547158D01*
X1486865Y-4544466D01*
X1473200Y-4543552D01*
X1459534Y-4544466D01*
X1446123Y-4547158D01*
X1433169Y-4551527D01*
X1420876Y-4557572D01*
X1409496Y-4565192D01*
X1399235Y-4574235D01*
X1390192Y-4584496D01*
X1382572Y-4595876D01*
X1376527Y-4608169D01*
X1372158Y-4621123D01*
X1369466Y-4634534D01*
X1368552Y-4648200D01*
X1369466Y-4661865D01*
X1372158Y-4675276D01*
X1376527Y-4688230D01*
X1382572Y-4700524D01*
X1385874Y-4705400D01*
X1387449Y-4709464D01*
X1387195Y-4713782D01*
X1385112Y-4717643D01*
X1381658Y-4720285D01*
X1377391Y-4721199D01*
X1362100Y-4721199D01*
X1354074Y-4722012D01*
X1346860Y-4724196D01*
X1340154Y-4727752D01*
X1333957Y-4732883D01*
X1265224Y-4801565D01*
X1262126Y-4803698D01*
X1258468Y-4804562D01*
X1254760Y-4804003D01*
X1246276Y-4801158D01*
X1232865Y-4798466D01*
X1219200Y-4797552D01*
X1205534Y-4798466D01*
X1192123Y-4801158D01*
X1179169Y-4805527D01*
X1166876Y-4811572D01*
X1155496Y-4819192D01*
X1145235Y-4828235D01*
X1136192Y-4838496D01*
X1128572Y-4849876D01*
X1122527Y-4862169D01*
X1118158Y-4875123D01*
X1115466Y-4888534D01*
X1114552Y-4902200D01*
X1115466Y-4915865D01*
X1118158Y-4929276D01*
X1122527Y-4942230D01*
X1128572Y-4954524D01*
X1136192Y-4965903D01*
X1145235Y-4976164D01*
X1155496Y-4985207D01*
X1166876Y-4992827D01*
X1179169Y-4998872D01*
X1192123Y-5003241D01*
X1205534Y-5005933D01*
X1219200Y-5006848D01*
X1232865Y-5005933D01*
X1246276Y-5003241D01*
X1259230Y-4998872D01*
X1271524Y-4992827D01*
X1282903Y-4985207D01*
X1293164Y-4976164D01*
X1302207Y-4965903D01*
X1309827Y-4954524D01*
X1315872Y-4942230D01*
X1320241Y-4929276D01*
X1322933Y-4915865D01*
X1323848Y-4902200D01*
X1322933Y-4888534D01*
X1320241Y-4875123D01*
X1317396Y-4866640D01*
X1316837Y-4862931D01*
X1317701Y-4859274D01*
X1319834Y-4856175D01*
X1374597Y-4801412D01*
X1377899Y-4799177D01*
X1381810Y-4798415D01*
X1407109Y-4798415D01*
X1411325Y-4799330D01*
X1414729Y-4801870D01*
X1416812Y-4805629D01*
X1417167Y-4809896D01*
X1415745Y-4813960D01*
X1412748Y-4817008D01*
X1409496Y-4819192D01*
X1399235Y-4828235D01*
X1390192Y-4838496D01*
X1382572Y-4849876D01*
X1376527Y-4862169D01*
X1372158Y-4875123D01*
X1369466Y-4888534D01*
X1368552Y-4902200D01*
X1369466Y-4915865D01*
X1372158Y-4929276D01*
X1376527Y-4942230D01*
X1382572Y-4954524D01*
X1390192Y-4965903D01*
X1399235Y-4976164D01*
X1409496Y-4985207D01*
X1420876Y-4992827D01*
X1433169Y-4998872D01*
X1446123Y-5003241D01*
X1459534Y-5005933D01*
X1473200Y-5006848D01*
X1486865Y-5005933D01*
X1500276Y-5003241D01*
X1513230Y-4998872D01*
X1525524Y-4992827D01*
X1536903Y-4985207D01*
X1547164Y-4976164D01*
X1556207Y-4965903D01*
X1563827Y-4954524D01*
X1569872Y-4942230D01*
X1574241Y-4929276D01*
X1576933Y-4915865D01*
X1577848Y-4902200D01*
X1576933Y-4888534D01*
X1574241Y-4875123D01*
X1569872Y-4862169D01*
X1563827Y-4849876D01*
X1556207Y-4838496D01*
X1547164Y-4828235D01*
X1536903Y-4819192D01*
X1532534Y-4816297D01*
X1529638Y-4813350D01*
X1528165Y-4809490D01*
X1528318Y-4805375D01*
X1530146Y-4801666D01*
X1533245Y-4798974D01*
X1545539Y-4795418D01*
X1552194Y-4791862D01*
X1558442Y-4786731D01*
X1627124Y-4718050D01*
X1630375Y-4714087D01*
X1633829Y-4711395D01*
X1638096Y-4710379D01*
X1642364Y-4711242D01*
X1645869Y-4713833D01*
X1653235Y-4722164D01*
X1663496Y-4731207D01*
X1674875Y-4738827D01*
X1687169Y-4744872D01*
X1700123Y-4749241D01*
X1713534Y-4751933D01*
X1727200Y-4752848D01*
X1740865Y-4751933D01*
X1754276Y-4749241D01*
X1767230Y-4744872D01*
X1779524Y-4738827D01*
X1790903Y-4731207D01*
X1801164Y-4722164D01*
X1810207Y-4711903D01*
X1817827Y-4700524D01*
X1823872Y-4688230D01*
X1828241Y-4675276D01*
X1830933Y-4661865D01*
X1831848Y-4648200D01*
X1830933Y-4634534D01*
X1828241Y-4621123D01*
X1823872Y-4608169D01*
X1817827Y-4595876D01*
X1810207Y-4584496D01*
X1801164Y-4574235D01*
X1790903Y-4565192D01*
X1779524Y-4557572D01*
X1767230Y-4551527D01*
X1754276Y-4547158D01*
X1745437Y-4545380D01*
X1741474Y-4543653D01*
X1738579Y-4540402D01*
X1737309Y-4536236D01*
X1737918Y-4531918D01*
X1740255Y-4528210D01*
X1835505Y-4433011D01*
X1838807Y-4430776D01*
X1842668Y-4430014D01*
X2711551Y-4430014D01*
X2715412Y-4430776D01*
X2718714Y-4433011D01*
X2720949Y-4436262D01*
X2721711Y-4440174D01*
X2720949Y-4444085D01*
X2718714Y-4447336D01*
X2589225Y-4576876D01*
X2585364Y-4581601D01*
X2581910Y-4584293D01*
X2577642Y-4585309D01*
X2573375Y-4584395D01*
X2569870Y-4581855D01*
X2563164Y-4574235D01*
X2552903Y-4565192D01*
X2541524Y-4557572D01*
X2529230Y-4551527D01*
X2516276Y-4547158D01*
X2502865Y-4544466D01*
X2489200Y-4543552D01*
X2475534Y-4544466D01*
X2462123Y-4547158D01*
X2449169Y-4551527D01*
X2436876Y-4557572D01*
X2425496Y-4565192D01*
X2415235Y-4574235D01*
X2406192Y-4584496D01*
X2398572Y-4595876D01*
X2392527Y-4608169D01*
X2388158Y-4621123D01*
X2385466Y-4634534D01*
X2384552Y-4648200D01*
X2385466Y-4661865D01*
X2388158Y-4675276D01*
X2392527Y-4688230D01*
X2398572Y-4700524D01*
X2406192Y-4711903D01*
X2415235Y-4722164D01*
X2425496Y-4731207D01*
X2436876Y-4738827D01*
X2449169Y-4744872D01*
X2462123Y-4749241D01*
X2475534Y-4751933D01*
X2489200Y-4752848D01*
X2502865Y-4751933D01*
X2516276Y-4749241D01*
X2529230Y-4744872D01*
X2541524Y-4738827D01*
X2552903Y-4731207D01*
X2560675Y-4724349D01*
X2564028Y-4722418D01*
X2567838Y-4721860D01*
X2571597Y-4722774D01*
X2574696Y-4725009D01*
X2576830Y-4728210D01*
X2577541Y-4732020D01*
X2577541Y-4755032D01*
X2576779Y-4758944D01*
X2574544Y-4762246D01*
X2535224Y-4801565D01*
X2532126Y-4803698D01*
X2528468Y-4804562D01*
X2524760Y-4804003D01*
X2516276Y-4801158D01*
X2502865Y-4798466D01*
X2489200Y-4797552D01*
X2475534Y-4798466D01*
X2462123Y-4801158D01*
X2449169Y-4805527D01*
X2436876Y-4811572D01*
X2425496Y-4819192D01*
X2415235Y-4828235D01*
X2406192Y-4838496D01*
X2398572Y-4849876D01*
X2392527Y-4862169D01*
X2388158Y-4875123D01*
X2385466Y-4888534D01*
X2384552Y-4902200D01*
X2385466Y-4915865D01*
X2388158Y-4929276D01*
X2392527Y-4942230D01*
X2398572Y-4954524D01*
X2406192Y-4965903D01*
X2415235Y-4976164D01*
X2421940Y-4982057D01*
X2424379Y-4985308D01*
X2425395Y-4989271D01*
X2424734Y-4993284D01*
X2422550Y-4996738D01*
X2419197Y-4999024D01*
X2415235Y-4999888D01*
X2309164Y-4999888D01*
X2305202Y-4999024D01*
X2301849Y-4996738D01*
X2299665Y-4993284D01*
X2299004Y-4989271D01*
X2300020Y-4985308D01*
X2302459Y-4982057D01*
X2309164Y-4976164D01*
X2318207Y-4965903D01*
X2325827Y-4954524D01*
X2331872Y-4942230D01*
X2336241Y-4929276D01*
X2338933Y-4915865D01*
X2339848Y-4902200D01*
X2338933Y-4888534D01*
X2336241Y-4875123D01*
X2331872Y-4862169D01*
X2325827Y-4849876D01*
X2318207Y-4838496D01*
X2309164Y-4828235D01*
X2298903Y-4819192D01*
X2287524Y-4811572D01*
X2275230Y-4805527D01*
X2262276Y-4801158D01*
X2248865Y-4798466D01*
X2235200Y-4797552D01*
X2221534Y-4798466D01*
X2208123Y-4801158D01*
X2195169Y-4805527D01*
X2182876Y-4811572D01*
X2171496Y-4819192D01*
X2161235Y-4828235D01*
X2152192Y-4838496D01*
X2144572Y-4849876D01*
X2138527Y-4862169D01*
X2134158Y-4875123D01*
X2131466Y-4888534D01*
X2130552Y-4902200D01*
X2131466Y-4915865D01*
X2134158Y-4929276D01*
X2138527Y-4942230D01*
X2144572Y-4954524D01*
X2152192Y-4965903D01*
X2161235Y-4976164D01*
X2167940Y-4982057D01*
X2170379Y-4985308D01*
X2171395Y-4989271D01*
X2170734Y-4993284D01*
X2168550Y-4996738D01*
X2165197Y-4999024D01*
X2161235Y-4999888D01*
X2137664Y-4999888D01*
X2133803Y-4999075D01*
X2130501Y-4996891D01*
X2081834Y-4948224D01*
X2079701Y-4945126D01*
X2078837Y-4941468D01*
X2079396Y-4937760D01*
X2082241Y-4929276D01*
X2084933Y-4915865D01*
X2085848Y-4902200D01*
X2084933Y-4888534D01*
X2082241Y-4875123D01*
X2077872Y-4862169D01*
X2071827Y-4849876D01*
X2064207Y-4838496D01*
X2055164Y-4828235D01*
X2044903Y-4819192D01*
X2033524Y-4811572D01*
X2021230Y-4805527D01*
X2008276Y-4801158D01*
X1994865Y-4798466D01*
X1981200Y-4797552D01*
X1967534Y-4798466D01*
X1954123Y-4801158D01*
X1941169Y-4805527D01*
X1928875Y-4811572D01*
X1917496Y-4819192D01*
X1907235Y-4828235D01*
X1898192Y-4838496D01*
X1890572Y-4849876D01*
X1884527Y-4862169D01*
X1880158Y-4875123D01*
X1877466Y-4888534D01*
X1876552Y-4902200D01*
X1877466Y-4915865D01*
X1880158Y-4929276D01*
X1884527Y-4942230D01*
X1890572Y-4954524D01*
X1898192Y-4965903D01*
X1907235Y-4976164D01*
X1917496Y-4985207D01*
X1928875Y-4992827D01*
X1941169Y-4998872D01*
X1954123Y-5003241D01*
X1967534Y-5005933D01*
X1981200Y-5006848D01*
X1994865Y-5005933D01*
X2008276Y-5003241D01*
X2016760Y-5000396D01*
X2020468Y-4999837D01*
X2024125Y-5000701D01*
X2027224Y-5002834D01*
X2089810Y-5065420D01*
X2096058Y-5070551D01*
X2102713Y-5074107D01*
X2109927Y-5076291D01*
X2117953Y-5077104D01*
X3254603Y-5077104D01*
X3258464Y-5077866D01*
X3270250Y-5086146D01*
X3278936Y-5090210D01*
X3288233Y-5092700D01*
X3297783Y-5093563D01*
X3307334Y-5092700D01*
X3316630Y-5090210D01*
X3325317Y-5086146D01*
X3333191Y-5080660D01*
X3339947Y-5073853D01*
X3344672Y-5067147D01*
X3347923Y-5064150D01*
X3352139Y-5062829D01*
X3356457Y-5063439D01*
X3360165Y-5065776D01*
X3429863Y-5135473D01*
X3432048Y-5138724D01*
X3432810Y-5142636D01*
X3432048Y-5146548D01*
X3429863Y-5149799D01*
X3426561Y-5152034D01*
X3422650Y-5152796D01*
X2036622Y-5152796D01*
X2032711Y-5152034D01*
X2029409Y-5149799D01*
X1827834Y-4948224D01*
X1825701Y-4945126D01*
X1824837Y-4941468D01*
X1825396Y-4937760D01*
X1828241Y-4929276D01*
X1830933Y-4915865D01*
X1831848Y-4902200D01*
X1830933Y-4888534D01*
X1828241Y-4875123D01*
X1823872Y-4862169D01*
X1817827Y-4849876D01*
X1810207Y-4838496D01*
X1801164Y-4828235D01*
X1790903Y-4819192D01*
X1779524Y-4811572D01*
X1767230Y-4805527D01*
X1754276Y-4801158D01*
X1740865Y-4798466D01*
X1727200Y-4797552D01*
X1713534Y-4798466D01*
X1700123Y-4801158D01*
X1687169Y-4805527D01*
X1674875Y-4811572D01*
X1663496Y-4819192D01*
X1653235Y-4828235D01*
X1644192Y-4838496D01*
X1636572Y-4849876D01*
X1630527Y-4862169D01*
X1626158Y-4875123D01*
X1623466Y-4888534D01*
X1622552Y-4902200D01*
X1623466Y-4915865D01*
X1626158Y-4929276D01*
X1630527Y-4942230D01*
X1636572Y-4954524D01*
X1644192Y-4965903D01*
X1653235Y-4976164D01*
X1663496Y-4985207D01*
X1674875Y-4992827D01*
X1687169Y-4998872D01*
X1700123Y-5003241D01*
X1713534Y-5005933D01*
X1727200Y-5006848D01*
X1740865Y-5005933D01*
X1754276Y-5003241D01*
X1762760Y-5000396D01*
X1766468Y-4999837D01*
X1770125Y-5000701D01*
X1773224Y-5002834D01*
X1988769Y-5218328D01*
X1992579Y-5221478D01*
X1995170Y-5224678D01*
X1996236Y-5228640D01*
X1995678Y-5232755D01*
X1993544Y-5236260D01*
X1990140Y-5238648D01*
X1986127Y-5239512D01*
G37*

%LPC*%
G36*
X2235200Y-4752848D02*
G01*
X2248865Y-4751933D01*
X2262276Y-4749241D01*
X2275230Y-4744872D01*
X2287524Y-4738827D01*
X2298903Y-4731207D01*
X2309164Y-4722164D01*
X2318207Y-4711903D01*
X2325827Y-4700524D01*
X2331872Y-4688230D01*
X2336241Y-4675276D01*
X2338933Y-4661865D01*
X2339848Y-4648200D01*
X2338933Y-4634534D01*
X2336241Y-4621123D01*
X2331872Y-4608169D01*
X2325827Y-4595876D01*
X2318207Y-4584496D01*
X2309164Y-4574235D01*
X2298903Y-4565192D01*
X2287524Y-4557572D01*
X2275230Y-4551527D01*
X2262276Y-4547158D01*
X2248865Y-4544466D01*
X2235200Y-4543552D01*
X2221534Y-4544466D01*
X2208123Y-4547158D01*
X2195169Y-4551527D01*
X2182876Y-4557572D01*
X2171496Y-4565192D01*
X2161235Y-4574235D01*
X2152192Y-4584496D01*
X2144572Y-4595876D01*
X2138527Y-4608169D01*
X2134158Y-4621123D01*
X2131466Y-4634534D01*
X2130552Y-4648200D01*
X2131466Y-4661865D01*
X2134158Y-4675276D01*
X2138527Y-4688230D01*
X2144572Y-4700524D01*
X2152192Y-4711903D01*
X2161235Y-4722164D01*
X2171496Y-4731207D01*
X2182876Y-4738827D01*
X2195169Y-4744872D01*
X2208123Y-4749241D01*
X2221534Y-4751933D01*
G37*
G36*
X1981200Y-4752848D02*
G01*
X1994865Y-4751933D01*
X2008276Y-4749241D01*
X2021230Y-4744872D01*
X2033524Y-4738827D01*
X2044903Y-4731207D01*
X2055164Y-4722164D01*
X2064207Y-4711903D01*
X2071827Y-4700524D01*
X2077872Y-4688230D01*
X2082241Y-4675276D01*
X2084933Y-4661865D01*
X2085848Y-4648200D01*
X2084933Y-4634534D01*
X2082241Y-4621123D01*
X2077872Y-4608169D01*
X2071827Y-4595876D01*
X2064207Y-4584496D01*
X2055164Y-4574235D01*
X2044903Y-4565192D01*
X2033524Y-4557572D01*
X2021230Y-4551527D01*
X2008276Y-4547158D01*
X1994865Y-4544466D01*
X1981200Y-4543552D01*
X1967534Y-4544466D01*
X1954123Y-4547158D01*
X1941169Y-4551527D01*
X1928875Y-4557572D01*
X1917496Y-4565192D01*
X1907235Y-4574235D01*
X1898192Y-4584496D01*
X1890572Y-4595876D01*
X1884527Y-4608169D01*
X1880158Y-4621123D01*
X1877466Y-4634534D01*
X1876552Y-4648200D01*
X1877466Y-4661865D01*
X1880158Y-4675276D01*
X1884527Y-4688230D01*
X1890572Y-4700524D01*
X1898192Y-4711903D01*
X1907235Y-4722164D01*
X1917496Y-4731207D01*
X1928875Y-4738827D01*
X1941169Y-4744872D01*
X1954123Y-4749241D01*
X1967534Y-4751933D01*
G37*
G36*
X1818538Y-4239666D02*
G01*
X1818538Y-4189120D01*
X1767890Y-4189120D01*
X1774443Y-4200753D01*
X1782927Y-4212132D01*
X1792833Y-4222343D01*
X1803958Y-4231182D01*
X1816100Y-4238548D01*
G37*
G36*
X1916226Y-4239564D02*
G01*
X1924862Y-4235094D01*
X1936496Y-4226966D01*
X1947011Y-4217416D01*
X1956257Y-4206595D01*
X1963978Y-4194657D01*
X1966671Y-4189120D01*
X1916226Y-4189120D01*
G37*
G36*
X658418Y-4239564D02*
G01*
X667054Y-4235094D01*
X678738Y-4226966D01*
X689254Y-4217416D01*
X698449Y-4206595D01*
X706221Y-4194657D01*
X708914Y-4189120D01*
X658418Y-4189120D01*
G37*
G36*
X658418Y-4091381D02*
G01*
X708914Y-4091381D01*
X706221Y-4085844D01*
X698449Y-4073906D01*
X689254Y-4063085D01*
X678738Y-4053535D01*
X667054Y-4045407D01*
X658418Y-4040936D01*
G37*
G36*
X3191459Y-3842359D02*
G01*
X3250692Y-3842359D01*
X3247440Y-3835755D01*
X3240125Y-3824782D01*
X3231438Y-3814876D01*
X3221482Y-3806139D01*
X3210560Y-3798824D01*
X3198723Y-3792982D01*
X3191459Y-3790543D01*
G37*
G36*
X3019450Y-3842359D02*
G01*
X3078734Y-3842359D01*
X3078734Y-3790543D01*
X3071469Y-3792982D01*
X3059633Y-3798824D01*
X3048660Y-3806139D01*
X3038754Y-3814876D01*
X3030067Y-3824782D01*
X3022701Y-3835755D01*
G37*
G36*
X1375156Y-3743096D02*
G01*
X1389329Y-3741724D01*
X1403146Y-3738575D01*
X1416507Y-3733647D01*
X1429105Y-3727094D01*
X1440738Y-3718966D01*
X1451254Y-3709415D01*
X1460449Y-3698595D01*
X1468221Y-3686657D01*
X1474368Y-3673856D01*
X1478889Y-3660394D01*
X1481582Y-3646424D01*
X1482496Y-3632250D01*
X1481582Y-3618077D01*
X1478889Y-3604107D01*
X1474368Y-3590645D01*
X1468221Y-3577844D01*
X1460449Y-3565906D01*
X1451254Y-3555085D01*
X1440738Y-3545535D01*
X1429105Y-3537407D01*
X1416507Y-3530854D01*
X1403146Y-3525926D01*
X1389329Y-3522776D01*
X1375156Y-3521405D01*
X1360982Y-3521862D01*
X1346911Y-3524148D01*
X1333296Y-3528212D01*
X1320342Y-3533952D01*
X1308150Y-3541318D01*
X1297076Y-3550158D01*
X1287170Y-3560368D01*
X1278686Y-3571748D01*
X1271727Y-3584143D01*
X1266393Y-3597300D01*
X1262786Y-3611067D01*
X1260957Y-3625138D01*
X1260957Y-3639362D01*
X1262786Y-3653434D01*
X1266393Y-3667201D01*
X1271727Y-3680358D01*
X1278686Y-3692753D01*
X1287170Y-3704132D01*
X1297076Y-3714343D01*
X1308150Y-3723182D01*
X1320342Y-3730548D01*
X1333296Y-3736340D01*
X1346911Y-3740353D01*
X1360982Y-3742639D01*
G37*
G36*
X1870913Y-2981096D02*
G01*
X1885086Y-2979724D01*
X1898904Y-2976575D01*
X1912264Y-2971647D01*
X1924862Y-2965094D01*
X1936496Y-2956966D01*
X1947011Y-2947416D01*
X1956257Y-2936595D01*
X1963978Y-2924657D01*
X1970176Y-2911856D01*
X1974646Y-2898394D01*
X1977339Y-2884424D01*
X1978253Y-2870250D01*
X1977339Y-2856077D01*
X1974646Y-2842107D01*
X1970176Y-2828645D01*
X1963978Y-2815844D01*
X1956257Y-2803906D01*
X1947011Y-2793085D01*
X1936496Y-2783535D01*
X1924862Y-2775407D01*
X1912264Y-2768854D01*
X1898904Y-2763926D01*
X1885086Y-2760776D01*
X1870913Y-2759405D01*
X1856739Y-2759862D01*
X1842719Y-2762148D01*
X1829104Y-2766212D01*
X1816100Y-2771952D01*
X1803958Y-2779318D01*
X1792833Y-2788158D01*
X1782927Y-2798368D01*
X1774443Y-2809748D01*
X1767484Y-2822143D01*
X1762150Y-2835300D01*
X1758543Y-2849067D01*
X1756714Y-2863138D01*
X1756714Y-2877362D01*
X1758543Y-2891434D01*
X1762150Y-2905201D01*
X1767484Y-2918358D01*
X1774443Y-2930753D01*
X1782927Y-2942132D01*
X1792833Y-2952343D01*
X1803958Y-2961182D01*
X1816100Y-2968548D01*
X1829104Y-2974340D01*
X1842719Y-2978353D01*
X1856739Y-2980639D01*
G37*
G36*
X1375156Y-2981096D02*
G01*
X1389329Y-2979724D01*
X1403146Y-2976575D01*
X1416507Y-2971647D01*
X1429105Y-2965094D01*
X1440738Y-2956966D01*
X1451254Y-2947416D01*
X1460449Y-2936595D01*
X1468221Y-2924657D01*
X1474368Y-2911856D01*
X1478889Y-2898394D01*
X1481582Y-2884424D01*
X1482496Y-2870250D01*
X1481582Y-2856077D01*
X1478889Y-2842107D01*
X1474368Y-2828645D01*
X1468221Y-2815844D01*
X1460449Y-2803906D01*
X1451254Y-2793085D01*
X1440738Y-2783535D01*
X1429105Y-2775407D01*
X1416507Y-2768854D01*
X1403146Y-2763926D01*
X1389329Y-2760776D01*
X1375156Y-2759405D01*
X1360982Y-2759862D01*
X1346911Y-2762148D01*
X1333296Y-2766212D01*
X1320342Y-2771952D01*
X1308150Y-2779318D01*
X1297076Y-2788158D01*
X1287170Y-2798368D01*
X1278686Y-2809748D01*
X1271727Y-2822143D01*
X1266393Y-2835300D01*
X1262786Y-2849067D01*
X1260957Y-2863138D01*
X1260957Y-2877362D01*
X1262786Y-2891434D01*
X1266393Y-2905201D01*
X1271727Y-2918358D01*
X1278686Y-2930753D01*
X1287170Y-2942132D01*
X1297076Y-2952343D01*
X1308150Y-2961182D01*
X1320342Y-2968548D01*
X1333296Y-2974340D01*
X1346911Y-2978353D01*
X1360982Y-2980639D01*
G37*
G36*
X1375156Y-2727096D02*
G01*
X1389329Y-2725724D01*
X1403146Y-2722575D01*
X1416507Y-2717647D01*
X1429105Y-2711094D01*
X1440738Y-2702966D01*
X1451254Y-2693416D01*
X1460449Y-2682595D01*
X1468221Y-2670657D01*
X1474368Y-2657856D01*
X1478889Y-2644394D01*
X1481582Y-2630424D01*
X1482496Y-2616250D01*
X1481582Y-2602077D01*
X1478889Y-2588107D01*
X1474368Y-2574645D01*
X1468221Y-2561844D01*
X1460449Y-2549906D01*
X1451254Y-2539085D01*
X1440738Y-2529535D01*
X1429105Y-2521407D01*
X1416507Y-2514854D01*
X1403146Y-2509926D01*
X1389329Y-2506776D01*
X1375156Y-2505405D01*
X1360982Y-2505862D01*
X1346911Y-2508148D01*
X1333296Y-2512212D01*
X1320342Y-2517952D01*
X1308150Y-2525318D01*
X1297076Y-2534158D01*
X1287170Y-2544368D01*
X1278686Y-2555748D01*
X1271727Y-2568143D01*
X1266393Y-2581300D01*
X1262786Y-2595067D01*
X1260957Y-2609138D01*
X1260957Y-2623362D01*
X1262786Y-2637434D01*
X1266393Y-2651201D01*
X1271727Y-2664358D01*
X1278686Y-2676753D01*
X1287170Y-2688132D01*
X1297076Y-2698343D01*
X1308150Y-2707182D01*
X1320342Y-2714548D01*
X1333296Y-2720340D01*
X1346911Y-2724353D01*
X1360982Y-2726639D01*
G37*
G36*
X2580538Y-2715666D02*
G01*
X2580538Y-2665120D01*
X2529890Y-2665120D01*
X2536444Y-2676753D01*
X2544978Y-2688132D01*
X2554833Y-2698343D01*
X2565958Y-2707182D01*
X2578100Y-2714548D01*
G37*
G36*
X2678226Y-2715564D02*
G01*
X2686862Y-2711094D01*
X2698546Y-2702966D01*
X2709062Y-2693416D01*
X2718257Y-2682595D01*
X2726029Y-2670657D01*
X2728671Y-2665120D01*
X2678226Y-2665120D01*
G37*
G36*
X1782927Y-2473147D02*
G01*
X1818538Y-2473147D01*
X1818538Y-2411120D01*
X1756460Y-2411120D01*
X1756460Y-2446680D01*
X1757172Y-2452979D01*
X1759102Y-2458466D01*
X1762150Y-2463342D01*
X1766265Y-2467457D01*
X1771142Y-2470556D01*
X1776628Y-2472436D01*
G37*

%LPD*%
D10*
X7832521Y-3776446D02*
G01*
X6967753Y-3776446D01*
X6756400Y-3987800D01*
X6756400Y-4127068D01*
X6554851Y-4328617D01*
X3124352Y-4328617D01*
X6883425Y-2108200D02*
G01*
X7016267Y-2241042D01*
X9057995Y-2241042D01*
X9296400Y-2479446D01*
X9296400Y-2603881D01*
X9061602Y-2838678D01*
X7709077Y-2838678D01*
X4521327Y-2362200D02*
G01*
X4521987Y-2361539D01*
X4928488Y-2361539D01*
X4403598Y-2362200D02*
G01*
X4521327Y-2362200D01*
X5197602Y-4140200D02*
G01*
X5070652Y-4013250D01*
X3187014Y-4013250D01*
X3175736Y-4001973D01*
X3124352Y-4001973D01*
X3113074Y-4013250D01*
X1498600Y-4013250D01*
X1371600Y-4140250D01*
X5669305Y-2182063D02*
G01*
X5665851Y-2185517D01*
X1098448Y-2185517D01*
X803859Y-2480106D01*
X568223Y-2480106D01*
X473455Y-2574874D01*
X473455Y-2988106D01*
X609600Y-3124250D01*
X9677908Y-4064000D02*
G01*
X9494113Y-4247794D01*
X9326981Y-4247794D01*
X8966200Y-4608576D01*
X8966200Y-4690389D01*
X8896781Y-4759807D01*
X8812403Y-4759807D01*
X8727592Y-4844618D01*
X8727592Y-4925440D01*
X8629853Y-5023180D01*
X8489670Y-5023180D01*
X8455050Y-4988559D01*
X8403666Y-4988559D01*
X8378393Y-5013832D01*
X7680833Y-5013832D01*
X7569200Y-4902200D01*
X4403598Y-3632200D02*
G01*
X4788611Y-3247186D01*
X8861094Y-3247186D01*
X9677908Y-4064000D01*
X7315200Y-4902200D02*
G01*
X7457592Y-4759807D01*
X7626781Y-4759807D01*
X7696200Y-4690389D01*
X7696200Y-4613478D01*
X7773085Y-4536592D01*
X8951315Y-4536592D01*
X9423908Y-4064000D01*
X9423908Y-4064000D02*
G01*
X8862593Y-3502685D01*
X4870551Y-3502685D01*
X4798542Y-3430676D01*
X8661908Y-4064000D02*
G01*
X8465159Y-4260748D01*
X7388555Y-4260748D01*
X7112812Y-4536490D01*
X4220794Y-4536490D01*
X4140250Y-4617034D01*
X4140250Y-4775149D01*
X4013200Y-4902200D01*
X8915908Y-4064000D02*
G01*
X8628405Y-4351502D01*
X7391603Y-4351502D01*
X7188200Y-4554905D01*
X7188200Y-4679289D01*
X7076973Y-4790516D01*
X4378883Y-4790516D01*
X4267200Y-4902200D01*
X8407425Y-2108200D02*
G01*
X8723045Y-1792579D01*
X8899880Y-1792579D01*
X3007918Y-4104716D02*
G01*
X3048609Y-4064025D01*
X3150031Y-4064025D01*
X6883425Y-584200D02*
G01*
X6514338Y-953287D01*
X6113703Y-953287D01*
X6455308Y-2379446D02*
G01*
X6497421Y-2337333D01*
X6672198Y-2337333D01*
X711200Y-4902200D02*
G01*
X853592Y-4759807D01*
X1022781Y-4759807D01*
X1092200Y-4690389D01*
X1092200Y-4601209D01*
X1349654Y-4343755D01*
X3017672Y-4343755D01*
X3098825Y-4262602D01*
X6431305Y-4262602D01*
X1219200Y-4902200D02*
G01*
X1361592Y-4759807D01*
X1530781Y-4759807D01*
X1600200Y-4690389D01*
X1600200Y-4613681D01*
X1822475Y-4391406D01*
X6556502Y-4391406D01*
X6883908Y-4064000D01*
X7782915Y-4422800D02*
G01*
X7779435Y-4426280D01*
X7404557Y-4426280D01*
X2489200Y-4902200D02*
G01*
X2616149Y-4775250D01*
X2616149Y-4604537D01*
X2783636Y-4437049D01*
X6764858Y-4437049D01*
X7137908Y-4064000D01*
X1038732Y-3768902D02*
G01*
X902080Y-3632250D01*
X609600Y-3632250D01*
X609600Y-2870250D02*
G01*
X1235506Y-2244344D01*
X5694781Y-2244344D01*
X5965520Y-1973605D01*
X7510830Y-1973605D01*
X7645425Y-2108200D01*
X3251200Y-4902200D02*
G01*
X3470427Y-5121427D01*
X8130768Y-5121427D01*
X3505200Y-4902200D02*
G01*
X3632200Y-4775200D01*
X3794785Y-4775200D01*
X3901541Y-4668443D01*
X3901541Y-4592472D01*
X4011371Y-4482642D01*
X6953351Y-4482642D01*
X7221601Y-4214393D01*
X8003514Y-4214393D01*
X8153908Y-4064000D01*
X9169908Y-4064000D02*
G01*
X8746464Y-4487443D01*
X7568285Y-4487443D01*
X7442250Y-4613478D01*
X7442250Y-4690287D01*
X7362418Y-4770119D01*
X7193280Y-4770119D01*
X7061200Y-4902200D01*
X4403598Y-2870200D02*
G01*
X5012690Y-2870200D01*
X5055615Y-2827274D01*
X9169908Y-4064000D02*
G01*
X8670645Y-3564737D01*
X5383911Y-3564737D01*
X7971332Y-2948304D02*
G01*
X9523603Y-2948304D01*
X9931908Y-2540000D01*
X5197602Y-3632200D02*
G01*
X7808569Y-3632200D01*
X7937119Y-3760749D01*
X2350084Y-3759250D02*
G01*
X1688160Y-3759250D01*
X1434160Y-4013250D01*
X1252778Y-4013250D01*
X1115136Y-4150893D01*
X7645908Y-2540000D02*
G01*
X7190028Y-2995879D01*
X5930214Y-2995879D01*
X1981200Y-4902200D02*
G01*
X2117471Y-5038471D01*
X3297783Y-5038471D01*
X3476167Y-5034610D02*
G01*
X5324754Y-5034610D01*
X7137425Y-584200D02*
G01*
X7003872Y-450646D01*
X1821637Y-450646D01*
X6553200Y-4902200D02*
G01*
X6710375Y-5059375D01*
X8420582Y-5059375D01*
X1727200Y-4902200D02*
G01*
X2016404Y-5191404D01*
X8549386Y-5191404D01*
X8665438Y-5075351D01*
X5197602Y-2870200D02*
G01*
X5225618Y-2898216D01*
X5875756Y-2898216D01*
X5885688Y-2888284D01*
X6209080Y-2888284D01*
X6502907Y-2594457D01*
X6502907Y-2487853D01*
X6591376Y-2399385D01*
X8775293Y-2399385D01*
X8915908Y-2540000D01*
X9169908Y-2540000D02*
G01*
X8962059Y-2747848D01*
X8771153Y-2747848D01*
X7911185Y-4797475D02*
G01*
X7930032Y-4778629D01*
X8207628Y-4778629D01*
X8331200Y-4902200D01*
X9423908Y-2540000D02*
G01*
X9568662Y-2395245D01*
X9986187Y-2395245D01*
X10075570Y-2484628D01*
X609600Y-2362250D02*
G01*
X727328Y-2362250D01*
X6375425Y-584200D02*
G01*
X6051651Y-907973D01*
X6051651Y-981786D01*
X5077637Y-1955800D01*
X1133779Y-1955800D01*
X727328Y-2362250D01*
X2924479Y-3061919D02*
G01*
X2735148Y-3251250D01*
X2432659Y-3251250D01*
X2164740Y-3519169D01*
X2629382Y-3632250D02*
G01*
X1867382Y-3632250D01*
X8661425Y-584200D02*
G01*
X8437143Y-359918D01*
X1965020Y-359918D01*
X1867382Y-3886250D02*
G01*
X2310841Y-3886250D01*
X2437663Y-3759428D01*
X2684703Y-3759428D01*
X2756255Y-3687876D01*
X2756255Y-3583152D01*
X2678353Y-3505250D01*
X2446197Y-3505250D01*
X5197602Y-2616200D02*
G01*
X5070652Y-2489250D01*
X1994382Y-2489250D01*
X1867382Y-2616250D01*
X4156811Y-3235604D02*
G01*
X3099866Y-3235604D01*
X3002280Y-3333191D01*
X3002280Y-3432200D01*
X3092602Y-3522522D01*
X3202940Y-3522522D01*
X3569157Y-3888740D01*
X3961434Y-3888740D01*
X6121400Y-2108200D02*
G01*
X6013653Y-2108200D01*
X6121907Y-4064000D02*
G01*
X6014161Y-4064000D01*
X6013653Y-2108200D02*
G01*
X5632653Y-2489200D01*
X5406644Y-2489200D01*
X5406644Y-2489200D02*
G01*
X5157952Y-2489200D01*
X5092344Y-2423591D01*
X4730750Y-2423591D01*
X6014161Y-4064000D02*
G01*
X5771845Y-3821684D01*
X5430469Y-3821684D01*
X5406644Y-2489200D02*
G01*
X5406644Y-2518054D01*
X3961434Y-3634740D02*
G01*
X4085793Y-3759098D01*
X5070500Y-3759098D01*
X5197602Y-3886200D01*
X6629908Y-2540000D02*
G01*
X6236081Y-2933827D01*
X5904534Y-2933827D01*
X5894603Y-2943758D01*
X5644489Y-2943758D01*
X5591048Y-2997200D01*
X4317644Y-2997200D01*
X4188104Y-3126740D01*
X3961434Y-3126740D01*
D11*
X1244600Y-2082800D02*
G01*
X2362200Y-2082800D01*
X2362200Y-2082800D02*
G01*
X3708400Y-2082800D01*
X4978400Y-2082800D02*
G01*
X3708400Y-2082800D01*
D10*
X4978400Y-1828800D02*
G01*
X3708400Y-1828800D01*
X3708400Y-1828800D02*
G01*
X2362200Y-1828800D01*
X5791225Y-3048000D02*
G01*
X5801156Y-3057931D01*
X8925839Y-3057931D01*
X9931908Y-4064000D01*
X5791225Y-3048000D02*
G01*
X5273802Y-3048000D01*
X5197602Y-3124200D01*
X609600Y-4140250D02*
G01*
X741375Y-4272026D01*
X1735607Y-4272026D01*
X1867382Y-4140250D01*
X1867382Y-4140250D02*
G01*
X1997303Y-4270171D01*
X2930220Y-4270171D01*
X3060192Y-4140200D01*
X4403598Y-4140200D01*
X6375907Y-4064000D02*
G01*
X6071107Y-3759200D01*
X5157952Y-3759200D01*
X5073370Y-3674617D01*
X4745634Y-3674617D01*
X4403598Y-3378200D02*
G01*
X4290263Y-3491534D01*
X3248431Y-3491534D01*
X3135096Y-3378200D01*
X6629425Y-2108200D02*
G01*
X6375907Y-2361717D01*
X6375907Y-2540000D01*
X6375907Y-2540000D02*
G01*
X6238113Y-2677795D01*
X5744971Y-2677795D01*
X5679770Y-2742996D01*
X4345228Y-2742996D01*
X4104690Y-2983534D01*
X3248431Y-2983534D01*
X3135096Y-2870200D01*
X4403598Y-2616200D02*
G01*
X4290263Y-2729534D01*
X3248431Y-2729534D01*
X3135096Y-2616200D01*
X457200Y-4790719D02*
G01*
X485063Y-4790719D01*
X568807Y-4706975D01*
X568807Y-4338396D01*
X488315Y-4257903D01*
X488315Y-3329127D01*
X566191Y-3251250D01*
X2248382Y-3251250D01*
X2629382Y-2870250D01*
X457200Y-4902200D02*
G01*
X457200Y-4790719D01*
D12*
G01*
X3135096Y-2362200D03*
D13*
G01*
X3135096Y-2616200D03*
G01*
X3135096Y-2870200D03*
G01*
X3135096Y-3124200D03*
G01*
X3135096Y-3378200D03*
G01*
X3135096Y-3632200D03*
G01*
X3135096Y-3886200D03*
G01*
X3961434Y-2364740D03*
G01*
X3961434Y-2618740D03*
G01*
X3961434Y-2872740D03*
G01*
X3961434Y-3126740D03*
G01*
X3961434Y-3380740D03*
G01*
X3961434Y-3634740D03*
G01*
X3961434Y-3888740D03*
D14*
G01*
X1867382Y-2362250D03*
D15*
G01*
X1867382Y-2616250D03*
G01*
X1867382Y-3886250D03*
G01*
X1867382Y-4140250D03*
G01*
X1867382Y-2870250D03*
G01*
X1867382Y-3124250D03*
G01*
X1867382Y-3632250D03*
G01*
X1867382Y-3378250D03*
G01*
X2629382Y-4140250D03*
G01*
X2629382Y-3886250D03*
G01*
X2629382Y-3632250D03*
G01*
X2629382Y-3378250D03*
G01*
X2629382Y-3124250D03*
G01*
X2629382Y-2870250D03*
G01*
X2629382Y-2616250D03*
G01*
X2629382Y-2362250D03*
D16*
G01*
X6883908Y-2540000D03*
G01*
X6629908Y-2540000D03*
G01*
X6375907Y-2540000D03*
G01*
X6121907Y-2540000D03*
G01*
X9677908Y-2540000D03*
G01*
X9423908Y-2540000D03*
G01*
X9169908Y-2540000D03*
G01*
X8915908Y-2540000D03*
G01*
X8661908Y-2540000D03*
G01*
X8407908Y-2540000D03*
G01*
X8153908Y-2540000D03*
G01*
X7137908Y-2540000D03*
G01*
X7391908Y-2540000D03*
G01*
X7645908Y-2540000D03*
G01*
X7899908Y-2540000D03*
G01*
X9931908Y-2540000D03*
G01*
X9169908Y-4064000D03*
D17*
G01*
X8153908Y-4064000D03*
G01*
X7899908Y-4064000D03*
G01*
X7645908Y-4064000D03*
G01*
X7391908Y-4064000D03*
G01*
X7137908Y-4064000D03*
G01*
X6883908Y-4064000D03*
G01*
X6629908Y-4064000D03*
G01*
X6375907Y-4064000D03*
D18*
G01*
X6121907Y-4064000D03*
D16*
G01*
X8407908Y-4064000D03*
G01*
X8915908Y-4064000D03*
D17*
G01*
X8661908Y-4064000D03*
D16*
G01*
X9423908Y-4064000D03*
G01*
X9931908Y-4064000D03*
G01*
X9677908Y-4064000D03*
D14*
G01*
X609600Y-2362250D03*
D15*
G01*
X609600Y-2616250D03*
G01*
X609600Y-3886250D03*
G01*
X609600Y-4140250D03*
G01*
X609600Y-2870250D03*
G01*
X609600Y-3124250D03*
G01*
X609600Y-3632250D03*
G01*
X609600Y-3378250D03*
G01*
X1371600Y-4140250D03*
G01*
X1371600Y-3886250D03*
G01*
X1371600Y-3632250D03*
G01*
X1371600Y-3378250D03*
G01*
X1371600Y-3124250D03*
G01*
X1371600Y-2870250D03*
G01*
X1371600Y-2616250D03*
G01*
X1371600Y-2362250D03*
D19*
G01*
X1244600Y-1828800D03*
G01*
X1244600Y-2082800D03*
D20*
G01*
X457200Y-4902200D03*
D21*
G01*
X9855200Y-4902200D03*
G01*
X9601200Y-4902200D03*
G01*
X9347200Y-4902200D03*
G01*
X9093200Y-4902200D03*
G01*
X8839200Y-4902200D03*
G01*
X8585200Y-4902200D03*
G01*
X8331200Y-4902200D03*
G01*
X8077200Y-4902200D03*
G01*
X7823200Y-4902200D03*
G01*
X7569200Y-4902200D03*
G01*
X7315200Y-4902200D03*
G01*
X7061200Y-4902200D03*
G01*
X6807200Y-4902200D03*
G01*
X6553200Y-4902200D03*
G01*
X6299200Y-4902200D03*
G01*
X6045200Y-4902200D03*
G01*
X5791200Y-4902200D03*
G01*
X5537200Y-4902200D03*
G01*
X5283200Y-4902200D03*
G01*
X5029200Y-4902200D03*
G01*
X4775200Y-4902200D03*
G01*
X4521200Y-4902200D03*
G01*
X4267200Y-4902200D03*
G01*
X4013200Y-4902200D03*
G01*
X3759200Y-4902200D03*
G01*
X3505200Y-4902200D03*
G01*
X3251200Y-4902200D03*
G01*
X2997200Y-4902200D03*
G01*
X2743200Y-4902200D03*
G01*
X2489200Y-4902200D03*
G01*
X2235200Y-4902200D03*
G01*
X1981200Y-4902200D03*
G01*
X1727200Y-4902200D03*
G01*
X1473200Y-4902200D03*
G01*
X1219200Y-4902200D03*
G01*
X965200Y-4902200D03*
G01*
X711200Y-4902200D03*
G01*
X10109200Y-4902200D03*
G01*
X9855200Y-4648200D03*
G01*
X9601200Y-4648200D03*
G01*
X9347200Y-4648200D03*
G01*
X9093200Y-4648200D03*
G01*
X8839200Y-4648200D03*
G01*
X8585200Y-4648200D03*
G01*
X8331200Y-4648200D03*
G01*
X8077200Y-4648200D03*
G01*
X7823200Y-4648200D03*
G01*
X7569200Y-4648200D03*
G01*
X7315200Y-4648200D03*
G01*
X7061200Y-4648200D03*
G01*
X6807200Y-4648200D03*
G01*
X6553200Y-4648200D03*
G01*
X6299200Y-4648200D03*
G01*
X6045200Y-4648200D03*
G01*
X5791200Y-4648200D03*
G01*
X5537200Y-4648200D03*
G01*
X5283200Y-4648200D03*
G01*
X5029200Y-4648200D03*
G01*
X4775200Y-4648200D03*
G01*
X4521200Y-4648200D03*
G01*
X4267200Y-4648200D03*
G01*
X4013200Y-4648200D03*
G01*
X3759200Y-4648200D03*
G01*
X3505200Y-4648200D03*
G01*
X3251200Y-4648200D03*
G01*
X2997200Y-4648200D03*
G01*
X2743200Y-4648200D03*
G01*
X2489200Y-4648200D03*
G01*
X2235200Y-4648200D03*
G01*
X1981200Y-4648200D03*
G01*
X1727200Y-4648200D03*
G01*
X1473200Y-4648200D03*
G01*
X1219200Y-4648200D03*
G01*
X965200Y-4648200D03*
G01*
X10109200Y-4648200D03*
G01*
X711200Y-4648200D03*
G01*
X457200Y-4648200D03*
G01*
X10363200Y-4902200D03*
G01*
X10363200Y-4648200D03*
D16*
G01*
X6883425Y-584200D03*
G01*
X6629425Y-584200D03*
G01*
X6375425Y-584200D03*
G01*
X6121425Y-584200D03*
G01*
X9677425Y-584200D03*
G01*
X9423425Y-584200D03*
G01*
X9169425Y-584200D03*
G01*
X8915425Y-584200D03*
G01*
X8661425Y-584200D03*
G01*
X8407425Y-584200D03*
G01*
X8153425Y-584200D03*
G01*
X7137425Y-584200D03*
G01*
X7391425Y-584200D03*
G01*
X7645425Y-584200D03*
G01*
X7899425Y-584200D03*
G01*
X9931425Y-584200D03*
G01*
X9169425Y-2108200D03*
D17*
G01*
X8153425Y-2108200D03*
G01*
X7899425Y-2108200D03*
G01*
X7645425Y-2108200D03*
G01*
X7391425Y-2108200D03*
G01*
X7137425Y-2108200D03*
G01*
X6883425Y-2108200D03*
G01*
X6629425Y-2108200D03*
G01*
X6375425Y-2108200D03*
D18*
G01*
X6121400Y-2108200D03*
D16*
G01*
X8407425Y-2108200D03*
G01*
X8915425Y-2108200D03*
D17*
G01*
X8661425Y-2108200D03*
D16*
G01*
X9423425Y-2108200D03*
G01*
X9931425Y-2108200D03*
G01*
X9677425Y-2108200D03*
D14*
G01*
X4403598Y-2362200D03*
D15*
G01*
X4403598Y-2616200D03*
G01*
X4403598Y-3886200D03*
G01*
X4403598Y-4140200D03*
G01*
X4403598Y-2870200D03*
G01*
X4403598Y-3124200D03*
G01*
X4403598Y-3632200D03*
G01*
X4403598Y-3378200D03*
G01*
X5197602Y-4140200D03*
G01*
X5197602Y-3886200D03*
G01*
X5197602Y-3632200D03*
G01*
X5197602Y-3378200D03*
G01*
X5197602Y-3124200D03*
G01*
X5197602Y-2870200D03*
G01*
X5197602Y-2616200D03*
G01*
X5197602Y-2362200D03*
D19*
G01*
X2362200Y-1828800D03*
G01*
X2362200Y-2082800D03*
G01*
X3708400Y-1828800D03*
G01*
X3708400Y-2082800D03*
G01*
X4978400Y-1828800D03*
G01*
X4978400Y-2082800D03*
G01*
X5791225Y-3048000D03*
G01*
X5791225Y-2794000D03*
G01*
X5791225Y-1092200D03*
G01*
X5791225Y-838200D03*
D22*
G01*
X4745634Y-3674617D03*
G01*
X5430469Y-3821684D03*
G01*
X5406644Y-2518054D03*
G01*
X4156811Y-3235604D03*
G01*
X4730750Y-2423591D03*
G01*
X2446197Y-3505250D03*
G01*
X1965020Y-359918D03*
G01*
X2164740Y-3519169D03*
G01*
X2924479Y-3061919D03*
G01*
X7911185Y-4797475D03*
G01*
X10075570Y-2484628D03*
G01*
X8771153Y-2747848D03*
G01*
X8665438Y-5075351D03*
G01*
X8420582Y-5059375D03*
G01*
X1821637Y-450646D03*
G01*
X3297783Y-5038471D03*
G01*
X3476167Y-5034610D03*
G01*
X5324754Y-5034610D03*
G01*
X5930214Y-2995879D03*
G01*
X1115136Y-4150893D03*
G01*
X2350084Y-3759250D03*
G01*
X3124352Y-4328617D03*
G01*
X7832521Y-3776446D03*
G01*
X7971332Y-2948304D03*
G01*
X7937119Y-3760749D03*
G01*
X5383911Y-3564737D03*
G01*
X5055615Y-2827274D03*
G01*
X8130768Y-5121427D03*
G01*
X1038732Y-3768902D03*
G01*
X7404557Y-4426280D03*
G01*
X7782915Y-4422800D03*
G01*
X7709077Y-2838678D03*
G01*
X6431305Y-4262602D03*
G01*
X6672198Y-2337333D03*
G01*
X6455308Y-2379446D03*
G01*
X6113703Y-953287D03*
G01*
X3007918Y-4104716D03*
G01*
X3150031Y-4064025D03*
G01*
X8899880Y-1792579D03*
G01*
X4798542Y-3430676D03*
G01*
X5669305Y-2182063D03*
G01*
X4928488Y-2361539D03*
D23*
G01*
X1774418Y-1402588D03*
G01*
X2282418Y-894588D03*
G01*
X2282418Y-1402588D03*
G01*
X2282418Y-2418588D03*
G01*
X2790418Y-894588D03*
G01*
X2790418Y-1402588D03*
G01*
X3298418Y-894588D03*
G01*
X3298418Y-1402588D03*
G01*
X3806418Y-894588D03*
G01*
X3490442Y-3560622D03*
G01*
X3998442Y-1528622D03*
G01*
X4506442Y-1020622D03*
G01*
X4506442Y-1528622D03*
G01*
X5014442Y-1020622D03*
G01*
X5014442Y-1528622D03*
G01*
X5522442Y-1020622D03*
G01*
X5522442Y-2036622D03*
G01*
X958545Y-4039387D03*
G01*
X8776030Y-386588D03*
G01*
X9284030Y-386588D03*
G01*
X9792030Y-386588D03*
G01*
X10300030Y-894588D03*
G01*
X10300030Y-1402588D03*
G01*
X10300030Y-1910588D03*
G01*
X10300030Y-2418588D03*
G01*
X10300030Y-2926588D03*
G01*
X10300030Y-3434588D03*
G01*
X10300030Y-3942588D03*
G01*
X10300030Y-4450588D03*
M02*
